<?xml version="1.0" encoding="UTF-8"?>
<svg id="Calque_1" data-name="Calque 1" xmlns="http://www.w3.org/2000/svg" viewBox="0 0 256 256">
  <path d="M70.21,210.4l-7.18,1.35c-1.53.29-4.02-4.62-4.2-6.32l-1.98-18.69c-12.66-4.95-10.8-22.64-14.02-22.62l-7.28.05c-2.45-15.18-2.26-30.54-1.49-46.83.2-4.26-8.41-6.07-14.91-7.13l10.75-10.93c5.58-5.67,10.25-13.75,15.07-21.77-5.1-4.13-1.53,1.41-12.35,4.2-1.59.41-4.3-3.37-3.97-4.97,1.96-9.48,20.33-4.15,21.67-26.33l21.05-15.37c2.94.02,6.82,1.23,8.76.03,7.87-4.86,6.72-15.06,10.28-14.98,2.02.05,6.15.55,8.27,1.05l17.46,4.15c5.69-9.39,13.1-11.92,22.68-8.1,21.8,8.68-.02,5.41,19.13,7.22,3.73.35-4.11-6.29.94-13.72,4.38-6.45,15.31,22.36,35.84,19.12l12.6,16.01c2.19,2.78,8.58,3.83,13.29,3.88l8.38,16.25c1.34,2.6-3.44,5.78-7.82,7.01,9.71,10.46,8.66,25.11,10.59,37.73,2.01,13.16,7.57,25.59,2.1,39.45-.61,1.56-2,6.84-3.63,6.57-2.03-.34-4.83-1.94-8.41-3.98l-4.69,23.62c-2.42,2.53-6.15,6.98-6.64,9.57l-1.63,8.64c-.39,2.07-6.22,2.06-9.71,2.8-1.24,11.83-9.11,22.18-22.82,21.89l-3.26,11.22-17.93,4.53-1.25,8.93c-.28,2-5.75.92-8.1,1.43-22.61,4.88-35.19-11.51-50.21-14.78-11.57-2.52-24.54-6.88-25.37-20.17ZM129.7,24.73c0-1.31-1.06-2.37-2.37-2.37s-2.37,1.06-2.37,2.37,1.06,2.37,2.37,2.37,2.37-1.06,2.37-2.37ZM143.64,68.1c-1.55.25.95,6.28,2.05,5.22l3.55-3.39c.87-.83-3.15-2.22-5.6-1.83ZM170.17,71.53c0-.75-.6-1.35-1.35-1.35s-1.35.6-1.35,1.35.6,1.35,1.35,1.35,1.35-.6,1.35-1.35ZM193.56,87.46l-15.98,2.52-11.11-7.44c-1.36,5.81-6.6,14.39-11.11,13.49-2.53-.51-7.24-5.76-8.43-7.05-3.2,2.04-10.64,5.11-13.56,3.57-2.56-1.35-5.03-6.32-6.83-9.58l-6.92,2.83c-5.82,2.38,3.47-21.75-7.42-9.88l-12.4,13.51-16.29-9.8c-3.3-1.99-12.83-.86-15.47,1.95-2.67,2.85-4.7,10.64-4.39,14.36,14.99-2.35,26.96-2.27,41.36-.3l39.76,5.42c10.04,1.37,21.11-.04,31.43.72l22.75,1.66-5.39-15.98ZM206.71,82.14c.51-5.13.65-7.57.44-8.58l-.44,8.58ZM42.52,101.32c0-.75-.6-1.35-1.35-1.35s-1.35.6-1.35,1.35.6,1.35,1.35,1.35,1.35-.6,1.35-1.35ZM58.76,99.94c.7-.31-3.14-.93-3.53.29-.26.81-1.4,3.11-1.85,3.93-.46.84,2.26,2.35,2.66,1.52l2.72-5.74ZM147.28,150.26c.62,3.23-3.17,10.14-4.74,12.14,28.27,22.54,1.77,6.75,32.29,18.63,10.39-1.65,22.14-11.24,28.47-20.57,6.27-9.24,3.47-20.57.59-31.04l-11.34,16.06-25.06.81c-21.71.7-13.5-34.63-39.96-31.16-11.04,1.45-15.34,30.56-29.92,30.18-8.44-.22-19.3-.72-26.48-2.53-13.05-3.3-10.59-20.21-14.87-31.02l-5.14,28.14c-1.28,7.03,2.8,11.11,6.41,16.23,3.15,4.47,6.52,15.5,10.39,18.87,1.59,1.39,6.86-2.89,9.79-4.8.51.39,2.34,4.11,4.32,8.38,8.04-.85,15.91-6.59,22.84-12.37,14.66-12.23,2.04-14.73,10.48-21.93,1.35-1.15,4.96-1.02,5.91-.59l.66,12.62c5.5-3.82,8.59-4.09,18.17-4.18-.89-7.24-4.28-19.75-7.05-28.01-1.2-3.58,5.86-17.22,14.23,26.14ZM213.09,131.07c.51-5.13.65-7.57.44-8.58l-.44,8.58ZM135.02,159.93c1.18.56-.71-.34-2.24-1.06l-5.23,3.02c-.91.53,2.25,2.35,3.03,3.06.52.47,1.22-.99,4.44-5.02ZM127.61,176.61c-4.89-3.69-10.88-3.77-15.45-1.64,4.89,3.69,10.88,3.77,15.45,1.64ZM142.4,176.15l-10.28.37c4.71,3.51,9.56,6.38,10.28-.37ZM113.19,191.26c.32-.39,2.72-3.33,2.6-3.17l-12.71-7.96c-1.67,2.1-3.78,10.8-3.35,13.59l13.46-2.46ZM150.37,197.88l-.93-14.97-16.81,5.83,17.74,9.14ZM125.73,187.83c-5.52-.54-5.83-.57-.92-.08,2.38.2,3.22.27.92.08Z"/>
</svg>