<?xml version="1.0" encoding="UTF-8"?>
<svg id="Calque_1" data-name="Calque 1" xmlns="http://www.w3.org/2000/svg" viewBox="0 0 256 256">
  <path d="M80.81,84.28c-.97,3.04-4.14,5.94-5.72,8.88-2.24,4.16-4.8,11.68-5.13,16.78-.36,5.5,4.69,11.31,4.92,17.44,5.04-.73,11.65-3.83,12.23-9.56.95-9.53,4.56-5.46,6.68-25.34,2.4,4.45-4.89,23.28,1.25,26.82,4.84-2.42,6.2-6.08,5.37-10.6-1.53-8.32-1.48-16.24-.81-25.04,3.36,2.81,1.46,20.17,3.67,27.58l3.2-7.74-.75,11.83c-.19,2.99,13.72,31.72,17.72,36.43,6.2-.49,10.52-.18,17.04,1.45l2.17-8.78c6.83-10.55,8.31-21.04,9.44-34.2.4-4.62,2.74-12.19.51-15.71l-7.85-12.39,7.21,4.17c1.76-11.03,3.06-22.8,2.21-33.91l-.63-8.17c-2.99,4.5-7.94,6.63-13.16,5.31-1.41-.36-3.57-4.32-2.44-5.31,3-2.37,9.54-1.81,13.64-.99,7.65-12.3-11.4-2.15-21.26-6.63-7.15-3.25-12.02-3.47-18.06,2.47-2.11,2.07-3.48,4.87-4.03,8.64-1.94,13.28-3.75,21.13,1.26,32.88l3.96,9.28,6.98-9.03c-.97-3.88-1.1-7.16,1.02-8.88l1.63,7.2,3.55-1.97c.66-.36,1.68.64,2.93,1.94-13.45,3.71-10.26,13.97-18.46,12.83l-5.35-12.78-.53,13.85-2.9-10.35,2.84-3.86c-.54-6.77-2.13-14.22-1.27-20.6l1.38-10.15-3,2.85.95-9.88c4.34-2.74,6.94-5.47,9.89-9.51l-6.11-2.1c-1.3-.45-2.71,2.74-4.36,4.98-2.52-3.04,3.69-7.86.01-9.54-1.56-.71-4.08.21-4.36,1.47-.34,1.47-.55,3.36-1.13,3.44l-3.66.46c-.54.07-2.18-1.38-1.73-1.8l2.73-2.57c9.2-8.65-5.19-1.34-7.19-13.74,13.36-3.13,4.74-4.43,20.42-7.15,6.43-1.11,13.51-4,19.93-3.92l13.44.18c5.76.08,11.21,2.16,14.6,5.66,4.66,4.8,5.14,10.22,5.15,16.87v3.06c0,.74-2.08.25-3.42.29,7.16,9.33,15.87,17.86,20.68,29.13l5.12,11.99c2.76,6.46,4.88,17.29,1.53,21.84l-.96-6.08c-2.97,8.27-5.55,17.86-3.95,25.86,1.11,5.56,1.33,8.32-.68,13.9-.81,2.25,1.76,6.76-1.78,8.35l-.74-13.61c-1.09-20.1-2.68.48,1.73-21.54.18-.91-2.45-1.12-3.69-.91-3.31,10.43.12,22.63-2.52,33.92-1.25-5.49-1.11-11.03-1.63-16.54l-1.28-3.62c-.27-.75-3.18.46-3.61,1.24l-7.58,13.63c-3.25-6.19,2.9-8.73,5.2-13.37l.02-7.99-5.16,6.99-1.57,7.72c-.63,3.13-1.21,5.9-1.32,9.67,5.33-1.08,8.23-2.61,12.7-5.01-2.94,5.1-9.86,8.29-15.41,6.05-4.38,15.52-6.12,10.34-10.63,29.69,1.68,4.44,3.09,9.35,1.57,13.73l-5-16.57-9.73-1.74.85,20.02c-4.75-4.75-3.98-10.56-4.44-16.97-4.99-2.52-1.67,15.96-5.93,19.29,4.34-25.76,1.62-19.05-8.77-42.8-2.72-6.21-5.91-11.4-9.3-17.27l-6.24,11.09c-1.69-4.47-2.59-7.83-3.69-12.37-6.55,12.34-4.32,9.18-17.86,15.62-1.83-6.36-3.18-11.21-5.26-16.21-4.14.39-9.58-3.08-8.06-7.62,1.74-5.2,8.47-9.53,11.2-14.65,1.9-2.54,4.85-32.12,6.72-30.85l1.92,1.3,5.9-8.46c2.39-3.43,4.17-7.66,3.09-11.18-1.4,4.41-1.97,7.8-6.75,9.22,3.23-12.3,4.88-5.81,6.8-16.6.17-.96,3.33-.22,3.71.74,2.18,5.64-1.26,12.34-3.05,17.67-1.95,5.78-3.01,10.68-5.62,16.52-.41-4.46.32-8.06,1.18-12.6-6.73,9.09-10.43,19.79-9.69,31.87,3.59-4.55,3.21-15.27,8.71-15.75l-3.34,10.45ZM138.94,4.02c-4.52-1.47-7.43-1.48-10.04-.05l10.04.05ZM155.02,29.92c2.12-8.12-.1-22.88-11.05-23.01l-18.46-.23c-5.54-.07-13.06,4.4-18.07,7.02l-8.08,4.22c2.96,2.25,8.17,7.9,11.69,8.78l17.03,4.29c13.39,3.37,15.76,4.31,26.94-1.07ZM105.62,10.32l4.27-.73c.43-.07-.03-1.17-.38-2.13l-3.89,2.86ZM103.95,12.02l-5.88-1.29c1.07,2.14,3.01,4.48,3.76,3.65s2.37-2.64,2.12-2.36ZM93.52,13.16c-.68.78-1.87,1.91-1.4,2.27.31.24,1.7,1.2,1.65,1.15.68.75.81-4.64-.25-3.42ZM178.98,93.39c2.23-4.13,4.71-12.44,2.71-17.2-9.62-22.97-1.2-15.13-14.8-32.11l.59,6.52-7.09-9.09c2.48.04,2.9.4,6.26,1.89-1.76-2.71-5.32-6.69-8.47-9.18-8.24,7.39,8,15.78,2.01,42.26-1,4.44-4.79,9.45-4.92,13.66l-.44,13.47c-.03.91,3.06,1.95,3.17,1.15l.32-2.37,1.14-9.9,2.64,7.89c1.01.59,3.56,1.74,3.66,2.74l.44,4.57c8.19-1.4,1.54-14.88,12.8-14.31ZM144.26,47.36c-3.22-.32-3.41-.33-.54-.05,1.39.12,1.88.16.54.05ZM155.57,81.16c4.75-9.02,4.14-18.73,1.22-28.44l-.7,13.79-.53,14.66ZM65.35,110.93c3.23-4.84,4.75-9.58,5.03-14.76l-8.25,10.32c-.98,1.23,2.42,5.63,3.22,4.43Z"/>
  <path d="M140.92,190.01l1.15-16.89c1.46,5.28,1.97,10.41,1.98,16.47.01,11.2,3.68,23.68-1.62,33.89l-4.59,8.85c-8.82,16.98-4.43,14.9-8.68,21.93-1.71,2.83,1.38-3.69-2.53-11.1-2.97-5.62-6.43-11.58-8.58-17.22-4.93-12.88-3.88-26.73-2.52-40.12l1.79-17.59c1.98,12.94-1.22,20.51,1.02,33.73,1.08,6.37-2.82,15.75,2.41,21.03,10.95,11.07-2.21-4.09,8.74,20.71l6.59-13.53c1.37-2.81,2.26-5,4.16-7.03,4.55-19.54-1.16-5.99.69-33.15Z"/>
  <path d="M140.61,78.94l-8.66,2.2c11.51-16.34-9.83-19.03.17-39.81,2.04,11.72,4.08,22.08,7.64,32.32l2.62,1.81c.51.35-1.2,3.34-1.77,3.48Z"/>
  <path d="M126.13,43.3c-.79,2.95-3.02,6.38-5.32,6.64-3.55.4-7.68-1.55-9.13-5.31.96-.94,4.46-3.81,6.12-3.4l8.33,2.07ZM118.36,45.66l1.31,2.17c.2.34,2.05-.3,1.8-.61l-1.11-1.34c-.25-.31-2.18-.52-1.99-.22Z"/>
  <path d="M90.67,79.8l6.07-23.87c.2-.77,1.43-2.32,1.83-2.72s1.13,1.07,1.75,2.08c-2.33,8.98-4.72,17.6-9.64,24.52Z"/>
  <path d="M76.29,123.99c-5.61,4.86,10.18-27.18,9.63-20.33l-9.63,20.33Z"/>
  <path d="M140.19,85l-15.33,3.67c2.69-2.12,5.22-3.15,8.46-4.47l3.97-1.61c1.1-.45,3.28,2.32,2.91,2.41Z"/>
  <path d="M81.46,101.51c-1.6-3.15-.95-6.55,1.05-10.26.86,2.81,1.01,6.19-1.05,10.26Z"/>
  <path d="M146.92,93.84c-5.14,2.07-6.81-2.52-7.48-5.58l7.48,5.58Z"/>
  <polygon points="138.25 98.73 130.85 97.89 138.67 94.99 138.25 98.73"/>
  <rect x="128.33" y="89.18" width="5.9" height="2.75" transform="translate(-21.9 46.16) rotate(-18.43)"/>
  <path d="M130.23,95.05l-2.1,2.59c-.57.7-4.03-.81-4.74-1.72l6.84-.87Z"/>
  <rect x="120.19" y="90.6" width="5.33" height="2.35" transform="translate(-29.71 76.29) rotate(-30.96)"/>
  <path d="M74.68,101.22l.23-5.06c.28.64.2,2.06-.23,5.06Z"/>
  <path d="M88.44,66.13c.32,3.22.33,3.41.05.54-.12-1.39-.16-1.88-.05-.54Z"/>
  <path d="M164.24,82.11c-3.02-2.67-.27-5.6.09-8.61l1.15-9.63c.56-4.7-6.41-16.73-2.34-13.31l2.42,2.03c1.07,3.93,3.29,11.2,2.57,14.84l-3.89,14.67Z"/>
  <path d="M171.61,81.32l-.11-6.84c3.12-8.16-.03-14.36-4.22-21.68l5.03,3.9c2.35,8.72,4.05,16.13-.7,24.63Z"/>
  <path d="M164.61,98.88c-1.05-3.74-2.57-8.73,2.98-11.94l-2.98,11.94Z"/>
  <path d="M170.34,93.82l3.79-9.06c1.35,3.07,1.18,6.78-3.79,9.06Z"/>
</svg>