<?xml version="1.0" encoding="UTF-8"?>
<svg id="Calque_1" data-name="Calque 1" xmlns="http://www.w3.org/2000/svg" viewBox="0 0 256 256">
  <path d="M230,187.47l-15.36,8.17c2.07-7.86,6.51-10.71,13.05-16.26l-.5-21.39c-23.5.56-28.53,8.19-49.2,5.66l-40.07-4.91c-17.51-2.14-32.74,3.4-48.01-9.82l.29,7.87c.05,1.25-2.5,4.62-3.57,3.98-1.42-.86-4.55-3.87-4.93-5.51l-1.19-5.17c-.25-1.07-2.37-.09-3.13.69s-2.14,3.76-2.17,4.82l-.61,19.84c6.66,5.06,15.89,11.91,20.85,17.55-.19,2.03-6.08,2.29-7.78,1.08l-18.05-12.8c-3.53-2.5-2.91-13.14-2.96-20.05l-28.91,2.42c-18.25,1.53-4.99,22.8-33.62,40.04,1.51-7.97,9.3-14.94,13.88-20.55,3.41-32.32,27.6-21.38,52.27-28.4,2.22-8.72,4.14-45.5-2.06-47.39l-.9-35.28,12.7-16.16,14.76,6.62,26.99-20.94c18.56-14.4,32-5.63,31.82-12.12l-.29-10.52-.1-5.53c-.02-1.23,4.68,1.41,5.22,2.58l6.77,14.61c17.6,4.81,33.01,3.06,51.8-.72l-8.48,13.2c7.22,11.52,12.75,21.11,18.28,33.27l11.33,4.45-6.99,5.39c-4.07,3.14,14.53,21.12,12.42,34.8l-14.67-9.57,1.05,20.44c.37,7.12,1.87,12.05,5.82,18.7.94,5,1.14,14.49.67,20.75-2.42,31.94,10.01,17.74,1.56,38.57-3.75,9.25-9.63,16.76-20.72,13.13-9.75-3.2-18.79,1.3-28.04,3.53-16.71,4.02-35.18-3.73-52.11-5.29-20.84-1.92-41.31-2.17-59.66-15.1-42.44,9.36-36.11,30.77-63.79,36.79l38.4-33.6,21.78-6.61-4.42-17.83c19.41,16.79,3.93,20.05,45.89,24.53l32.6,3.48c5.69.61,15.34,4.48,21.02,5.93,24.62-7.98,50.74-.41,62.76-12.17,4.6-4.5,3.21-12.41-1.66-19.17ZM151.31,40.06c0-.83-.68-1.51-1.51-1.51s-1.51.68-1.51,1.51.68,1.51,1.51,1.51,1.51-.68,1.51-1.51ZM126.31,46.33c0-1.29-1.04-2.33-2.33-2.33s-2.33,1.04-2.33,2.33,1.04,2.33,2.33,2.33,2.33-1.04,2.33-2.33ZM109.86,61.97c-.89.48-3.42,3.76-2.4,3.9s4.09,1.27,4.49.34l1.78-4.21c.28-.66-3.28-.35-3.88-.03ZM192.91,65.02c0-.83-.68-1.51-1.51-1.51s-1.51.68-1.51,1.51.68,1.51,1.51,1.51,1.51-.68,1.51-1.51ZM119.2,65.65c.24,1.37.87,4.33,1.64,3.43l2.69-3.12c.51-.59-4.47-1.07-4.33-.31ZM167.95,66.21c0-.83-.68-1.51-1.51-1.51s-1.51.68-1.51,1.51.68,1.51,1.51,1.51,1.51-.68,1.51-1.51ZM144.18,70.96c0-.83-.68-1.51-1.51-1.51s-1.51.68-1.51,1.51.68,1.51,1.51,1.51,1.51-.68,1.51-1.51ZM125.16,75.72c0-.83-.68-1.51-1.51-1.51s-1.51.68-1.51,1.51.68,1.51,1.51,1.51,1.51-.68,1.51-1.51ZM150.81,75.28l2.45,4.08c.39.65,3.94-.57,3.45-1.16l-2.13-2.56c-.48-.58-4.19-1.06-3.77-.37ZM106.15,82.85c0-.83-.68-1.51-1.51-1.51s-1.51.68-1.51,1.51.68,1.51,1.51,1.51,1.51-.68,1.51-1.51ZM81.19,88.79c0-.83-.68-1.51-1.51-1.51s-1.51.68-1.51,1.51.68,1.51,1.51,1.51,1.51-.68,1.51-1.51ZM82.06,96.08q0-2.95,0,0,0,5.51,0,0ZM99.02,94.73c0-.83-.68-1.51-1.51-1.51s-1.51.68-1.51,1.51.68,1.51,1.51,1.51,1.51-.68,1.51-1.51ZM216.48,97c.56,1.28,2.88,4.87,3.07,4.17l.77-2.8c.2-.72-4.15-2.06-3.85-1.37ZM136.31,99.28c5.22,2.3,6.29,6.37,6.12,2.68-.05-1.06-.26-4.09-1.03-3.9-.85.21-4.92,1.3-5.09,1.22ZM122.79,101.86c0-.83-.68-1.51-1.51-1.51s-1.51.68-1.51,1.51.68,1.51,1.51,1.51,1.51-.68,1.51-1.51ZM186.25,112.99l3.55,5.64c3.83,6.09-9.21-2.05-14.32-3.05l-20.2-3.98,1.22,12.33-21.43-4.7c8.45,6.95,15.93,11.65,18.88,19.81-14.47,11.61-36.43,5.01-44.99-8.87-.95-1.54-1.16-6.36.12-7.43,1.29-1.07,5.35-2.75,7.3-2.88l16.98-1.08-24.06-13.49-9.69,17.17c-3.17,5.63-10.65,12.03-5.29,20.93,7.74,12.86,24.72,12.59,39.36,9.94,12.51-2.26,30.81,8.41,32.51,2.81l2.31-7.57,4.95,2.71c.98.54.66,3.11.82,5.76,8.87,4.86,18.79,1.76,28.75-.05l22.52-4.1-3.16-39.3-20.26,5.55-15.88-6.13ZM81.19,112.56c0-.83-.68-1.51-1.51-1.51s-1.51.68-1.51,1.51.68,1.51,1.51,1.51,1.51-.68,1.51-1.51ZM90.66,112.89c0-1.29-1.04-2.33-2.33-2.33s-2.33,1.04-2.33,2.33,1.04,2.33,2.33,2.33,2.33-1.04,2.33-2.33ZM145.08,137.81c-6.75-10.9-19.74-14.62-31.16-10.94,5.59,11.65,19,15.44,31.16,10.94ZM87.47,146.31l.2-15.31c-2.72,2.59-5.32,6.2-4.25,8.11l4.05,7.2Z"/>
  <path d="M215.62,135.16c-10.68,14.45-35.41,14.65-47.56.99l23.9-9.68c3.98-1.61,10.64-3.28,14.06-2.84s9.36,7.37,9.61,11.54ZM207.89,134.47c-4.21-4.44-17.94-5.2-19.92,2.28,2.74,6.08,16.82,3.1,19.92-2.28Z"/>
</svg>