<?xml version="1.0" encoding="UTF-8"?>
<svg id="Calque_1" data-name="Calque 1" xmlns="http://www.w3.org/2000/svg" viewBox="0 0 256 256">
  <path d="M132.26,245.54c-31.26,8.74-77.71-26.17-77.43-69.82l.28-43.12c.11-17.2,3.05-34.49,10.44-49.7,8.91-18.3,10.93-27.4,21.78-39.79l.34-18.31,5.71-2.9c1.28-.65.1-17.3,9.73-17.78,7.1-.35,12.59,6.82,15.79,11.49,1.48.64,7.93,1.4,8.3,3.31l3.64,18.83,17.21,10.1c18.59,10.91,52.47,85.2,53.06,109.11.47,19.1-3.81,42.38-16.67,57.44-13.06,15.29-33.43,25.89-52.2,31.14ZM106.11,8.92c-6.9-1.63-8.53,5.66-8.06,9.72l8.06-9.72ZM104.88,16c-.97-.05,1.2,3.57,2.12,3.21l2.74-1.07c.61-.24-1.06-1.95-1.72-1.98l-3.14-.15ZM93.26,42.11c13.04-7.98,19.23-7.98,32.38-5.54l-2.87-15.44c-11.3,1.95-20.2,4.02-30.76,7.42.21,5.44.64,10.33,1.25,13.56ZM70.22,210.78l6.7-8.27-7.08-1.51c1.49-.95,5.91-3.14,7.47-2.25,1.3.75,3.13,2.37,5.04,3.97,7.41-10.05,15.12-20.02,24.17-28.64,5.57-5.3,11.85-5.25,19-6.05,13.5-1.5,27.77-1.22,37.59,9.88,3.26-6.27,18.7-20.11,18.24-21.99l-1.32-5.36c2.43-6.95,3.44-13.07,3.66-20.94,3.34,1.06,4.44,6.09,4.97,11.1.64.35,3.94-3.98,3.16-5.79l-10.09-23.51c-9.19-21.43-17.33-41.26-34.67-57.85l-3.86,7.92-4.91,10.06c-.63,1.29-1.96,5.52-3.25,5.05-13.12-4.8-13.14-22.01-13.63-35.17-5.07-3.12-14.98-3-20.6,1.59-3.75,3.07-8.45,13.69-5.78,17.66,3.41,5.07,4.18,10.96,2.51,16.45-.97,3.18-6.48,6.06-10.04,5.93-.99-.31-2.86-3.66-3.77-3.18l-5.14,2.69.23-10.34c-23.02,21.26-19.52,68.51-18.87,97.79l10.7-6.95c1.67,2.94,2.47,5.34,3.44,5.05l6.06-1.81s-1.07,5.42-1.25,6.28l8.45,1.65,6.67-.22,1.24,10.23c.95.64-5.48,1-5.39-.6l.32-5.97-9.04,4.86-1.74-5.53-12.08,8.83c12.03-8.79-5.34,4.64,0,4.26l5.01-.36-5.98,11.62c-1.05,2.17,1.71,7.17,3.85,9.42ZM94.34,75.61c2.49-5.47-.52-9.46-3.38-14.16-1.73-2.72,1.3-9.26,2.81-13.88-5.46.65-9.31,6.04-10.19,12.66-.76,5.73.96,11.66,4.59,14.76,1.59-.66,2.83-1.49,3.4-1.13l2.76,1.76ZM139.46,52.4c.42.95,1.81,3.53,1.99,3.04.23-.63.61-1.58.57-1.87-.05-.33-2.85-1.83-2.56-1.18ZM132.51,67.19c0-1.06-.86-1.92-1.92-1.92s-1.92.86-1.92,1.92.86,1.92,1.92,1.92,1.92-.86,1.92-1.92ZM184.62,153.39c5.48-3.4,7.17-6.07,7.97-10.52-4.01,2.88-7.09,6.76-7.97,10.52ZM173.77,185.39l23.75-30.09c-5.78-6.15-22.07,26.11-30.24,25.13l6.49,4.96ZM189.78,171.71c6.89-.1,6.58-2.59,5.14-6.12l-5.14,6.12ZM144.32,173.62c-6.26-1.53-10.19-1.58-13.9-.13l13.9.13ZM63.51,183.5c1.58-.35,2.37-4.27,1.38-5.27l-3.89-3.92c-2.21,3.68-1.77,10.13,2.51,9.19ZM190.02,189.91c2.65-2.72,3.74-11.32,3.71-13.94-6.06,8.95-10.89,16.71-14.87,25.38l11.16-11.44ZM118.43,189.19c1.51-.01,3.68-3.71,3.12-5.04-.68-1.62-3.36-5-4.72-4.81-3.47.48-5.02,9.91,1.6,9.86ZM128.79,188.11c1.96-1.14,3.09-5.29,2.39-7.16-.59-1.56-6.4-2.96-6.72-1.33-.44,2.23,2.12,7.8,4.33,8.49ZM140.28,178.32l-5.07,1.3,1.56,6.09,5.07-1.3-1.56-6.09ZM152.38,179.29l-6.71.81c1.2,4.32,6.04,3.46,6.71-.81ZM161.83,197.32l4.74-6.57c.81-1.12-2.14-4.54-3.35-3.87-2.44,1.34-6.71,4.12-6,5.84.6,1.48,3.72,5.84,4.62,4.59ZM116.47,242.18c16.22,1.49,37.8-9.46,49.73-19.66l9.25-16.38c2.42-2.17,1.95-2.26-2.59-1.73l9.48-18.01c-3.21,1.62-5.5,5.43-7.74,9.69-12.82,24.43-32.2,26.58-56.87,28.11l-4.72,13.13c1.4-.26,3.54-.86,3.53-.18l-.07,5.02ZM158.21,201.15l-6.09-7.94c-2.33,1.47-5.12,2.76-4.89,4.28l1.35,8.72,9.63-5.07ZM168.74,198.2c0-.6-.49-1.09-1.09-1.09s-1.09.49-1.09,1.09.49,1.09,1.09,1.09,1.09-.49,1.09-1.09ZM94.69,199.18c.61,1.91,2.31,4.62,2.86,3.7s2.14-3.22,1.5-2.74-4.6-1.68-4.37-.96ZM136.77,210.09c2.02-.41,6.04-2.04,6.64-3.53.48-1.18.3-4.75-.37-5.85-1.14-1.89-6.69.76-7.9,2.61-1.03,1.59-.38,7.18,1.63,6.77ZM106.69,203.37c0-.6-.49-1.09-1.09-1.09s-1.09.49-1.09,1.09.49,1.09,1.09,1.09,1.09-.49,1.09-1.09ZM112.49,201.07l-3.76,7.73,6.24,3.03,3.76-7.73-6.24-3.03ZM172.15,217.13c7.66-3.14,11.87-8.66,13.28-16.08l-13.28,16.08ZM101.43,212.42l-12.29-9.1c-.12,8.59,7.59,8.97,12.29,9.1ZM129.65,203.9l-3.56.43c-1.55.19-4.06,2.74-3.39,4.18.59,1.29,2.61,4.04,3.7,3.4,4.32-2.54,3.76-8.07,3.26-8.01ZM70.78,214.31c6.46.11,12.1-3.13,13.41-9.38l-13.41,9.38ZM103.31,214.04c9.27,9.72,53.38,4.97,58.4-9.34-21.02,12.46-35.2,14.25-58.4,9.34ZM88.59,212.85c0-.6-.49-1.09-1.09-1.09s-1.09.49-1.09,1.09.49,1.09,1.09,1.09,1.09-.49,1.09-1.09ZM79.28,212.75l-3.5,5.83,3.04,1.83,3.5-5.83-3.04-1.83ZM89.48,222.15l6.65-6.01c-2.99-1.54-6.81,2.12-6.65,6.01ZM83.41,224.39l4.28-6.6-4.72,1.22c-.7.18-.35,1.12.44,5.38ZM106.82,220.92l-5.32-1.76-3.98,8.45,9.29-6.69ZM91.35,231.18l5.35-9.9-9.97,5.87,4.62,4.03ZM112.31,222.49l-2.64,4.06c-.29.45,1.59.48,1.98.13s1.35-1.32,1.71-1.72c.35-.4-.76-2.92-1.05-2.47ZM110.28,238.44l-8.72-8.79-6.85,3.96c4.56,3.16,8.08,4.99,15.56,4.82Z"/>
  <path d="M100.53,144.4c7.88-19.48,3.94-23.54,8.3-41.67-3.77,6.14-10,11.11-15.99,16.15-7.18,6.04-1.69,16.94,2.98,22.61l-.79,21.08c-.07,1.94-4.11,4.05-6.6,4-8.51-.17-2.52-3.4-7.98-19.94-2.36-7.13-4.39-16.46-6.14-23.55-2.78-1.51-7.32-3.68-8.74-5.82-6.44-9.69,6.66-27.78,23.3-31.29,8.85-1.87,14.75,2.44,20.62,6.58,6.9,4.87,6.7,10.15,4.41,18.58-1.91,7.05,4.62,24.34,1.73,23.22l-4.05-1.58,3.34,3.65c1.03,1.13-1.9,5.87-3.13,6.82l-2.69-12.34-6.16,14.61c-1.71,4.05-1.45,10-.99,15.88-7.98-3.5-4.09-10.37-1.41-16.99ZM86.87,112.01c5.65.46,8.88-6.93,9.2-11.15.26-3.48-1.89-10.04-6-10.24-6.13-.29-9.14,4.77-9.69,8.67-.63,4.41.23,12.2,6.49,12.71ZM101.75,103.47c1.46-1.67,5.15-5.39,3.78-6.77l-5.36-5.4,1.58,12.17ZM81.31,116.72c-3.82-7.23-5.11-10.19-7.23-16.37-3.8,3.88-6.24,9.39-5.29,16.74,4.94.82,9.98.6,12.52-.36ZM115.36,103.39c0-.91-.74-1.65-1.65-1.65s-1.65.74-1.65,1.65.74,1.65,1.65,1.65,1.65-.74,1.65-1.65ZM110.38,111.98l.45-5.1-.45,5.1ZM91.76,161.63l.85-12.04c1.17-16.62-6.05-1.21-6.33-29.37-10.94,15.26,8.19,14.54,1.76,37.26l3.73,4.15Z"/>
  <path d="M147.37,150.2c-2.93.15-8-.56-9.78.38-2.08,1.1-3.77,4.74-5.67,8.35l-11.58,4.76-6-8.04c-.91.57-4.14,3.69-7,6.5-2.07-5.05,3.56-9.96,9.17-10.17l4.77,7.95c14.24-1.94,8.96-15,23.3-12.76,1.55.24,4.28-.91,5.07-2.11,3.86-5.85-8.38-.72-13.88-21.42-2.89-10.87-8.24-20.82-9.89-31.87,1.18-5.52,9.96-9.9,14.56-10.18,20.28-1.26,31.22,27.54,28.63,28.53l-6.77,2.58c3.31,12.31,19.77,32.87,6.99,40.58-1.81,1.09-4.24-1.64-6.62-3.49-8.48-3.16-6.25-9.46-7.65-15.81l-4.72-21.4-16.22-5.54,7.62,23.47c1.84,3.68,8.88,8.01,12.76,11.26-.85,2.44-4.43,8.3-7.08,8.44ZM153.11,101.26c2.2-2.26,1.28-8.93-.63-11.82-1.52-2.29-7.55-4.13-9.76-2.19-4.23,3.71-5.59,10.56-2.86,13.5,3.37,3.62,9.27,4.6,13.25.51ZM133.73,100.52v-11.36c-1.84,1.85-3.9,4.76-3.44,6.38.37,1.3,1.87,3.1,3.44,4.99ZM163.37,106.6c1.07-.01-.62-4.16-1.22-5.01-.6-.85-2.48-.88-3.08-.02l-3.58,5.13,7.88-.1ZM162.22,122.65l-3.58-11.8c-3.71,3.38-1.64,6.09.49,8.92l3.08,2.88ZM171.31,146.36c-2.11-8.54-4.06-14.02-7.39-20.93l-.58,14.31c-.13,3.26,4.19,7.13,7.96,6.62Z"/>
  <circle cx="88.12" cy="100.69" r="3.7"/>
  <circle cx="146.49" cy="93.77" r="3.58"/>
</svg>