<?xml version="1.0" encoding="UTF-8"?>
<svg id="Calque_1" data-name="Calque 1" xmlns="http://www.w3.org/2000/svg" viewBox="0 0 256 256">
  <path d="M143.16,246.6c-7.22,1.85-45.35-2.12-44.89-11.78-42.02-15.91-30.45-42.02-51.23-76.8l-17.06-28.56c-5.51-9.23-9.23-24.03-8.31-35.07.84-10.19,5.32-21.35,8.12-30.25,5.68-18.06,17.74-26.84,33.42-34.82,16.94-8.62,33.71-13.97,52.29-17.7,20.16-4.05,37.02-1.35,56.27,6.2,10.46,4.1,19.64,7.67,27.67,16.4,10.47,11.39,22.67,22.37,27.76,37.79,2.83,8.58,6.28,21.48,5.81,30.29-1.07,20.13-7.03,40.09-15.06,57.77-4.22,9.29-12.93,16.74-17.45,24.77-16.65,29.6-6.18,33.57-38.4,46.65-5.61,2.28-12.06,13.35-18.93,15.11ZM94.96,169.67c3.62-11.55,15.34-9.77,23.58-10.54l38.29-3.57c11.68,20.54,7.94,42.58,6.71,66.07,16.3-8.44,19.27-24.63,23.07-39.53,8.92-34.96,22.46-15.55,15.74-90.63-1.62-18.09-18.84-35.05-37.04-36.66-17.94-1.59-36.86.04-53.63,4.24-11.23,2.81-20.54,5.53-32.52,2.89-5.31,2.3-14.54,6.88-18.86,10.95-3.62,3.41-6.35,15.46-5.11,20.68,6.8,28.66-3.47,46.36,4.58,66.57,4.63,11.62,8.92,21.62,12.46,33.12,4.36,14.19,11.15,26.07,23.94,30.46-5.42-17.41-6.57-36.92-1.2-54.06ZM107.82,186.24c0,10.8,1.39,21.38,3.63,33.36,29.28,1.11,13,5.38,39.42-5.21,1.43-15.25,2.25-29.89.64-45.99l-36.76,3.38c-1.74.16-5.47,2.39-6.4,3.37-.7.74,1,3.12,1.48,3.42l34.2,2.51,5.95.29c1.15.06.77,2.97.56,6.39l-42.7-1.53Z"/>
  <path d="M107.8,137.61c-10.67,7.64-28.33,13.18-37.05,1.13-7.79-10.77-.81-32.3,10.71-40.15,9.86-6.71,31.9-7.48,38.94,2.03,9.43,12.75-1.36,28.95-12.59,36.99ZM109.57,104.92c-7.43-5.72-17.61-5.17-24.06,3.11l24.06-3.11ZM106.87,124.77l5.27-6.65c1.08-1.36-2.33-5.6-3.98-5.13l-6.24,1.78,4.95,10ZM94.27,128.46l-7.92-11.31-5.52,1.3c-1.53.36-2.48,7.36-.91,7.62l14.35,2.38ZM87.53,137.04c0-.82-.66-1.48-1.48-1.48s-1.48.66-1.48,1.48.66,1.48,1.48,1.48,1.48-.66,1.48-1.48Z"/>
  <path d="M161.77,144.83c-18.64.69-29-11.04-29.53-27.47-.39-11.99,5.36-18.61,15.81-21.74,14.23-4.26,23.33.37,31.19,12.7,4.92,7.72,7.19,14.92,4.29,24.06-2.64,8.33-11.48,12.08-21.76,12.46ZM152.14,114.95l3.84-5.63-12.43,5.83c-1.72.81,3.47,7.32,4.46,5.86l4.13-6.07ZM167.74,124.68c3.45-2.25,5.24-8.9,3.23-11.68-1.71-2.36-8.04-2.42-9.37-1.41l6.14,13.09ZM172.68,132.42l-28.57-3.32c7.48,8.23,20.15,10.08,28.57,3.32Z"/>
  <path d="M115.03,87.53c-35.25-2.06-47.72,18.52-52.38,6.41,4.94-8.05,16.7-12.51,25.73-13.7l28.74-3.78c2.08-.27,6.92-.09,7.24,1.59.39,2.09.3,6.99-.22,9.05-.52,2.06-6.01.61-9.1.43Z"/>
  <path d="M171.78,81.25c6.3-.86,28.04,16.13,17.66,15.34-1.46-.11-6.68-.49-8.25-1.32-29.06-15.41-39.24-1.77-44.06-11.91-.99-2.07,2.21-7.55,4.93-7.09l29.72,4.99Z"/>
</svg>