<?xml version="1.0" encoding="UTF-8"?>
<svg id="Calque_1" data-name="Calque 1" xmlns="http://www.w3.org/2000/svg" viewBox="0 0 256 256">
  <path d="M132.63,242.23c-3.6.9-6.58-4.03-8.2-8.44l-3.15,3.23c-.94.97-3.44-.54-5.01-1.66l-13.01-9.26c-17.23-12.26-19.31-33.75-25.34-46.12-1.46-2.99-4.08-8.77-4.38-11.61l-4.82-44.95c-.49-4.6,1.14-12.66,1.17-17.13-4.18-.04-12.3-2.84-12.18-6.26,6.3-13.21,13.97-24.48,23.12-35.35,27.06-32.16,31.96-19.13,65.29-33.93,16.71-7.42,14.51-1.17,39.1-3.58,20.57,13.01,12.58,38.45,12.18,60.47-.04,2.49,3.16,8.12,2.81,10.39-4.46,28.63,6.61,8.43.67,46.64-.85,5.47-5.89,8.91-10.68,9.01-2.44,19.29-4.68,56.72-22.99,66.32l-12.27,6.43c-.5.26-1.42,3.5-1.94,3.28l-3.44-1.45c-6.53,5.17-18.84,4.82-18.17,7.96l1.27,6ZM138.6,57.95l17.48-24.89c-9.73,1.65-14.92,9.83-19.39,18.14l-2.97,5.53c-.45.84,4.2,2.19,4.88,1.23ZM149.33,57.97l16.34-26.24c-8.66,7.8-13.69,16.59-20.46,25.44l4.12.8ZM182.13,32.5c.19,1.1.68,3.36,1.27,2.67l2.08-2.42c.39-.46-3.45-.83-3.35-.24ZM174.97,33.28c-4.52-1.08-17.65,20.97-18.25,24.82-1.96,12.73,20.42-23.41,18.25-24.82ZM192.15,42.58c-1.55-2.71-2.99-5.47-3.52-4.77-3.29,4.39-21.45,33.49-23.35,40.29l26.87-35.52ZM180.32,41.18c0-.64-.52-1.16-1.16-1.16s-1.16.52-1.16,1.16.52,1.16,1.16,1.16,1.16-.52,1.16-1.16ZM92.07,91.9l16.55-21.68c6.39-8.37,11.56-17.52,16.58-27.3l-20.22,24.05-23.6,29.06c3.35,1.26,8.17-.82,10.7-4.13ZM96,95.12c3.87,7.86,39.36-49.84,38.91-52.19-8.82,6.26-11.86,16.94-18.1,25.07l-20.81,27.12ZM157.91,75.92c7.06-9.22,13.3-18.5,18.41-30.47-7.07,9.01-13.69,18.9-18.41,30.47ZM65.57,100.06c7.51,4.18,40.54-43.55,45.28-49.8-11.82,10.43-21.32,21.54-31.25,33.29l-14.03,16.51ZM189.63,62.55c3.54-4.04,6.59-7.28,3.66-12.11-8.57,11.48-16.73,21.3-23.62,34.89l19.96-22.77ZM148.13,78.51c3.99-3.12,5.84-10.58,6.19-14.98-5.39-1.88-14.53-2.47-16.7,1.77-3.05,5.95,4.05,18.25,10.51,13.21ZM119.69,93.04c5.52,1.27,7.26.02,8.77-2.56l6.42-10.99-5.32-16.17-20.56,30.61c9.42-3.53,11.9-14.25,17.51-19.62.74-.39,2.67-1.05,3.36-1.3.69-.25,1.37,3.08.95,3.69l-11.14,16.33ZM193.15,68.68c0-.64-.52-1.16-1.16-1.16s-1.16.52-1.16,1.16.52,1.16,1.16,1.16,1.16-.52,1.16-1.16ZM180.24,83.52c4.79-1.86,6.91-5.39,6.6-9.81l-6.6,9.81ZM163.82,81.51c0-.64-.52-1.16-1.16-1.16s-1.16.52-1.16,1.16.52,1.16,1.16,1.16,1.16-.52,1.16-1.16ZM191.8,79.83l-2.81,4.35c-.31.48,1.68.5,2.1.12.45-.41,1.45-1.4,1.82-1.82s-.82-3.1-1.12-2.65ZM135.57,91.32c4.48-1.17,8.11-3.21,7.58-4.81-.42-1.28-3.86-3.64-4.69-2.64-1.59,1.95-4.33,7.88-2.89,7.44ZM147.56,90.56c3.83-2.03,5.27-4.61,4.6-7.2l-4.6,7.2ZM160.15,87.01c0-.64-.52-1.16-1.16-1.16s-1.16.52-1.16,1.16.52,1.16,1.16,1.16,1.16-.52,1.16-1.16ZM116.82,183.53c1.48-3.53,3.32-8.19,5.31-10.59,1.27-1.53,6.56-.73,7.53.98l3.7,6.51,2.12-6.7c.44-1.4,4.99.82,6.43,1.35.91.33.87,2.87.07,3.21l-3.28,1.4,5.29,15.37c1.92-9.82,2.02-20.41-1.46-29.08l-8.8,3.98c-1.69.76-5.89-2.75-5.95-4.05l8.13-2.73c1.56-.53.93-4.13,1.09-7.32l4.9-.96c1.33-.26,4.09,3.19,4.5,4.7l7.1,26.03,3.72-3.65,2.63,8.89c2.65-9.07,4.68-18.46,14.85-18.89-1.61-20.6,7.66-27.76,6.58-40.93-.54-6.52-5.25-15.59-3.74-21.05,2.12-7.69,3.65-13.56,3.15-20.86-10.78,2.4-18.81,5.42-28.2,6.33l-23.73,2.28-30.13,2.65-20.76,1.84c-1.75,16.97-1.11,32.21,4.22,47.23-.89,4.03-2.25,11.15-1.64,14.81,6.41,4.21,8.11,10.24,6,18.12,1.38-.86,3.64-2.28,3.4-2.13l7.8,5.11,8.69-20.46c.87-2.05,4.31-4.68,6.37-6.02,3.63-7.02,4.79-17.83,6.32-26.41,3.24-.17,5.25,4.68,4.6,7.63l-6.23,28.17c-2.74,0-5.69-.27-6.21,1.13l-2.38,6.35c3.08.41,5.29.08,5.79,1.47l2.23,6.28ZM193.27,148.18c4.05-9.96,5.46-18.44,3.01-28.68l-5.33,11.68c-2.54,5.56-3.19,11.97,2.32,17.01ZM169.21,183.81c2.62-4.12,3.62-6.23,2.82-6.81l-2.82,6.81ZM143.24,203.9c2.61,1.59,4.34,2.54,4.11,1.77l-1.22-4.18-31.92-2.76c-.66-.06-2.45-4.56-1.79-4.56s2.55-.08,3.35-.03l21.94,1.25c.44-1.96-1.9-7.71-3.74-7.68l-7.11.12-11.22.4c-2.54.09-7,2.63-9.34,5.2-1.69,1.85,2.08,7.57,3.83,8.04,1.64-.88,4-2.61,4.11-1.81s.42,3.36.23,4.09l-2.46,9.42,11.41-10.22c4.79,4.82,6.13,7.08,8.5,12.1-.41-5.41,5.89-12.82,11.31-11.12ZM167.49,189.66c0-.64-.52-1.16-1.16-1.16s-1.16.52-1.16,1.16.52,1.16,1.16,1.16,1.16-.52,1.16-1.16ZM156.47,195.55c.29,1.46.66,3.4,1.26,2.71l2.08-2.38c.4-.45-3.46-.93-3.35-.33ZM160.13,208.46c.19,1.11.69,3.35,1.29,2.65l2.06-2.4c.39-.46-3.45-.83-3.35-.25ZM104.72,219.06l-.05-7.66-3.61,3.25c-.72.65,1.48,2.49,3.65,4.4Z"/>
  <path d="M166.14,117.49c-5.25,12.25-19.74,19.38-29.41,12.05-5.81-4.4-9.83-13.41-2.57-19.1l.82,7.29,31.16-.25ZM141.79,125.5c0-1.13-.91-2.04-2.04-2.04s-2.04.91-2.04,2.04.91,2.04,2.04,2.04,2.04-.91,2.04-2.04Z"/>
  <path d="M107.07,127.77c-6.75,2.08-25.95,3.11-23.33-6.65,2.02-7.5,19.71-5.09,29.35-3.37l5.37-8.92c1.11.63,3.31,6.31,2.22,8-5.63,8.75-.29-2.01-9.93,10.36-2.32,2.97-.96-5.87-6.88-7.57-1.38-.4-4.45,2.39-5.15,3.57l8.35,4.58Z"/>
</svg>