<?xml version="1.0" encoding="UTF-8"?>
<svg id="Calque_1" data-name="Calque 1" xmlns="http://www.w3.org/2000/svg" viewBox="0 0 256 256">
  <path d="M156.66,220.04l-16.13,9.07c-9.04,5.08-22.95,4.7-33.84,3.81-9.83-.8-28.17-18.54-35.46-25.95-6.99-7.1-17.98-14.94-18.95-25.83l-2.17-24.39c-11.8-1.15-19.8-6.87-24.56-17.36-5.2-11.46-4.41-25.67,6.95-33.48l15.29-3.21c-.03-24.22,9.77-43.32,24.05-60.99,5.38-6.66,9.39-8.11,18.15-9.97,42.44-9.01,45.63-15.91,83.51,9.6,7.78,5.24,18.15,10.79,21.39,19.74l10.55,29.2c9.6-1.27,17.31,1.2,22.17,8.38,9.31,13.73,7.49,31.35-4.37,43.68l-12.9,6.43c2.06,25.16,4.35,25.72-21.97,44.73-19.68,14.21-15.84,17.6-31.71,26.53ZM121.99,109.99c1.78.05,7.58-1.51,7.35-3.22l-.91-6.86c8.43-10.08,19.75-18.67,32.8-23.99,3.55-1.45,11,7.11,8.23,9.44l-14.62,12.29,31.55,3.09c-10.96-24.34-20.66-35.31-31.51-55.62l-7.33,8.83-43.01,5.06c-8.9,1.05-17.67,2.94-26.73,4.85l-4.84,17.13,38.2,16.7-2.92,11.89,13.75.4ZM220.09,102.25c-2.09-4.93-7.9-6.79-12.1-3.48l2.44,11.51,9.66-8.03ZM84.82,103.22l-18.69-4.94-1.1,10.28,19.79-5.34ZM154.29,129.03l12.82-23.16c-12.34-9.14-22.27,18.63-28.16,28.41,3.26,1.05,7.81,2.02,9.76,1.54s3.97-3.87,5.58-6.79ZM47.9,116.37c.43-1.27-.84-7.44-2.67-6.94-1.61.44-4.55,1.52-8.73,3.07l11.4,3.87ZM81.68,138.03l14.61-25-8.06-2.45-13.22,23.04c-.51.89.19,4.23.99,4.25l5.68.16ZM161.72,205.39l-1.91-31.39c-.25-4.16,9.07-9.28,12.57-11.64,15.16-10.18,26.31-28.95,17.06-46.75.68,28.56-47.99,31.32-63.26,21.05-2.2-7.67-2.95-14.62-10.55-21.88-4.25,8.43-6.58,14.79-9.53,22.95-11.93,8.96-28.62,8.79-42.65,1.04-3.4,19.54,3.9,36.12,27.15,41.35l-.88,30.14c-1.17,2.44-2.19,3.77-1.33,4.47,11.29,9.17,11.74,12.09,24.3,12.21,22.98.22,30.42-5.17,49.03-21.55ZM216.92,117.04c-1.49-1.44-7.85.15-7.6,2.18l1.03,8.28c4.3.73,10.07-7.08,6.56-10.46ZM47.98,139.19c-4.17.1-10-.61-11.51-3-1.84-2.9-2.06-8.24-1.63-11.75l.63-5.12c.11-.85-2.1-.59-3.4-.49-5.38,11.32,2.29,28.57,14.85,29.63,2.4-.23,3.32-9.43,1.05-9.26ZM48.81,124.24l-7.67.38.46,9.23,7.67-.38-.46-9.23ZM210.88,139.09c6.53-.9,11.8-8.5,11.74-13.63-3.96,3.27-7.99,5.27-12.42,6.24-1.3.58-.95,7.06.68,7.39Z"/>
  <path d="M122.07,184.63c-8.4,2.09-19.58,2.87-21.69-7.89-.42-2.13,5.99-.7,8.64.15,13.14,4.25,23.69-5.25,35.39-12,.81,13.43-11.25,16.98-22.33,19.73Z"/>
  <path d="M130.03,152.68c-.71,3.39-3.04,8.87-4.68,11.45-1.9,2.99-10.98,5.13-13.44,2.63-3.42-3.48-5.55-9.04-6.62-13.36,7.85-4.73,15.65-4.72,24.75-.72Z"/>
</svg>