<?xml version="1.0" encoding="UTF-8"?>
<svg id="Calque_1" data-name="Calque 1" xmlns="http://www.w3.org/2000/svg" viewBox="0 0 256 256">
  <path d="M122.5,237.08c-16.1-4.01-34.34-4.09-45.2-18.37-9.39-12.35-11.4-30-13.5-44.43l-4.53,6.14c-3.67,4.98-.91-8.59-10.73-19.21-10.47-11.32-7.94-33.55,4.78-42.53,6.17-4.35,7.68-7.27,11.08-14.21,13.9-28.34,16.01-30.78,49.71-38.94l-7.15-24.21c-2.58-8.73,3.18-17.34,11.72-18.76,11.18-1.86,22.62-2.41,33.87-.45,7.11,1.24,10.81,10.42,10.08,16.66l-2.95,25.06c14.25,5.46,32.35,24.15,38.2,36.21,13.21,27.26,6.21,35.67,14.23,68.25,3.29,13.35,1.87,31.1-.96,43.3-4.44,19.12-18.28,20.64-32.78,23.58-19.39,3.93-35.11,7.07-55.85,1.9ZM169.94,171.05c3.65.94,12.8,1.05,14.25-1.76,11.92-23.07,17.94-47.18,4.76-71.69l-10,9.93c7.54,8.07,13.42,17.24,7.09,26.86-3.47,5.28-16.48,7.74-21.41,2.27-3.49-3.87-6.98-12.04-8.41-16.58l14.78-19.22c2.96-3.84,5.65-6.65,10.1-10.52-4.66-7.06-13.16-16.63-22.36-18.87-2.7,8.19-3.91,15.5-7.91,20.95-4.23,5.76-22.95,7.08-26.5.98-3.83-6.57-7.7-15.46-12.43-20.8-8.83,3.18-20.07,6.19-25.57,12.29-17.77,19.67-23.83,49.42-16.22,73.89,10.45,33.63,37.77,8.2,74.71,17.41l23.77-5.04-14.83-7.69c-.69,2.49-3.64,7.35-6.48,7.97-3.01.65-9.69-1.6-9.87-5.88l27.55-7-10.98-17.56-11.78-19.24c7.88-3.53,14.92,5.42,16.8,13.94,2.45,11.06,19.66,11.92,10.94,35.38ZM177.85,116.58c0-.78-.63-1.4-1.4-1.4s-1.4.63-1.4,1.4.63,1.4,1.4,1.4,1.4-.63,1.4-1.4ZM56.49,143.05l2.86-21.39c-12.9,8.02-16.68,33.3-.19,39.45-.41-5.4-3.25-13.73-2.67-18.06ZM181.07,125.87c-5.55,1.93-6.88,3.07-7.9,2.22l-5.81-4.78c-.72.46.49,7.07,1.69,8.95,1.2,1.88,7.52,1.39,8.64-.54l3.39-5.86ZM166.17,191.42c-13.19-6.77-28.41-7.99-42.08.21l42.08-.21ZM184.94,191.23c-.2-2.39-.12-1.52.09.96.51,5.11.47,4.77-.09-.96ZM173.33,208.39c.96-.25-.55-5.59-1.55-5.59l-46.23.31c-1.53.01-4.95,2.55-5.87,3.34-.92.79,3.91,2.4,5.22,2.29,26.49-2.05,36.91,2.65,48.42-.36ZM175.64,218.32c0-.78-.63-1.4-1.4-1.4s-1.4.63-1.4,1.4.63,1.4,1.4,1.4,1.4-.63,1.4-1.4Z"/>
  <path d="M125.14,123.61c.98.64-6.29,19.29-8.78,21.55-2.74,2.48-12.26,3.46-15.99,1.92-12.49-5.14-13.58-20.05-12.94-31.93l.67-12.49c13.03,5.19,21.19,10.66,31.42,17.3l5.62,3.65ZM109.55,140.89c-10.87-11.68-.62-12.99-10.24-18.26-1.01-.56-3.64-.92-3.61.22l.22,7.18c.08,2.76,2.14,8.69,4.54,10.03,2.4,1.34,9.4,1.29,9.09.83Z"/>
  <path d="M129.77,169.65c-1.78,1-7.68,2.29-9.75,1.04-4.37-2.65-7.77-14.62-4.48-15.21,1.44-.26,4.87.81,5.73,2.02l8.5,12.15Z"/>
</svg>