<?xml version="1.0" encoding="UTF-8"?>
<svg id="Calque_1" data-name="Calque 1" xmlns="http://www.w3.org/2000/svg" viewBox="0 0 256 256">
  <path d="M172.21,157.74c-.12-.94-6.12-27.62-10.15-26.62l-7.4,42-4.28,25.05c-1.35,7.89-10.67,15.36-16.78,21.36-5.13.53-13.48.66-19.22.64-7.91-8.13-15.39-16.63-19.68-26.87l-15.26-36.48c-1.76-4.2,4.56-12.27-2.35-17.44-9.67,23.78-16.21,45.82-14.83,71.76.7,13.32,4.68,26.12,1.37,40.3-3.96-13.79-3.61-26.99-4.73-40.49-2.04-24.57,5.1-46.88,13.03-70.33l13-9.53c4.23-3.1,2.45-12.31-1.89-13.61-10.46,4.03-14.66,15.3-18.52,25.01-11.92,29.98-10.9,56.12-11.04,88.55-7.57-20.19-2.4-40.5-.13-60.89,1.79-16.06,8.24-31.14,15.77-45.44,4.56-8.67,14.87-10.26,19.11-16.6,1.5-2.24-2.87-10.43-5.19-8.98-17.71,11.1-26.07,29.8-30.36,49.05l-7.73,34.65c-3.38-9.11-.39-18.25,2.03-26.76l6.64-23.39c4.13-14.56,15.04-27.41,27.04-36.29,3.86-2.86,6.69-3.65,7.48-8.44.47-2.85-2.41-9.5-6.81-8.13-19.25,6.02-29.4,18.89-35.27,37.61-4,12.76-.95,25.94-9.71,37.93.88-15.77,8.29-55.65,20.59-64.25l21.22-14.85c7.65-5.35,11.75-39.55,24.91-54.79l10.58-12.25c6.95,1.33,14.97,3.78,22.39,6.1,22.37,7,23.93,37.41,24.08,58.1,31.95,16.71,18.26,12.59,35.36,31.36,9.08,9.96,19.59,20.72,21.37,34.59l2.86,22.27c-11.42-12.75,3.38-21.35-19.05-46.44-7.44-8.33-13.57-15.99-20.41-25.21-3.97-5.36-12.64-10.33-18.66-11.9-2.69-.7-6.18,5.9-5.58,8.29,2.83,11.47,32.46,20.4,44.53,44.63,21.31,42.75,5.6,45.67,11.17,67.17.84,3.24.96,6.33-1.42,10.1l-3.37-22.6,2.43-14.1c3.79-22.03-28.91-73.28-51.28-72.07-1.04,14.89,17.56,11.32,21.12,19.85,11.13,26.7,15.13,82.73,15.96,111.99-5.95-9.47-4.48-19.62-5.37-29.71-2.14-24.25-5.26-47.63-10.37-71.16-2.14-9.87-9.67-18.89-20.43-15.11-2.61.92.43,8.56,2.67,10.41,11.9,9.83,15.04,32.46,16.66,47.79l2.9,27.45,2.72,26.91c.37,3.7,1.96,7.05-1.86,9.99l-9.82-80.18ZM156.27,71.81c1.65-19.78-2.14-55.59-30.26-54.36,12.55,17.05,21.95,35.1,30.26,54.36ZM147.67,197.17c1.8-12.63,3.1-22.96,5.58-35.1,2.39-11.72,6.72-25.01,4.1-36.3-.51-2.19-4.5-6.18-3.7-7.97.87-1.95,2.64-4.35,5.16-7.6-7.22-3.62-3.19-10.84-3.79-15.54-.74-5.75-5.67-12.62,1.33-17.56-2.37-2.06-4.7-4.58-5.13-6.31-1.73-6.96-6.59-10.05-10.01-15.1l-15.25-22.49c-2.7-3.98-4.91-7.86-8.33-11.03-16.88,15.5-26.28,33.49-34.38,54.58,3.88.89,8.31,4.26,8.49,8.37.12,2.88-2.54,8.38-2.96,11.4-.36,2.56,4.3,7.62,3.29,10l-3.71,8.8c.86,3.51,2.59,9.64,2.48,13.27-.08,2.77-4.49,5.61-7.9,7.88,1.3,9.88,1.2,22.89,5,31.98l12.07,28.85c2.66,6.35,9.87,14.43,14.82,19.2,3.96,1.96,14.49,1.8,17.99-.82,5.41-4.06,14-12.44,14.87-18.5Z"/>
  <path d="M140.77,192.38c-5.97,7.98-13.77,13.63-23.76,10.74l-8.94-12.51c1.63-2.95,5.23-9.26,8.1-10.44,4.29-1.76,12.04-1.58,16.33.11,3.81,1.51,7.18,8.2,8.27,12.09ZM119.78,183.2c2.11-.98,3.52-1.05-1.37-2.3l-4.3,5.3,5.67-3ZM133.55,185.58c-1.79-3.84-5.33-5.76-7.62-2.39l7.62,2.39ZM127.78,186.73c0-.55-.45-1-1-1s-1,.45-1,1,.45,1,1,1,1-.45,1-1ZM128.69,192.93l-11.6-2.2c1.44,1.78,4.09,4.41,5.66,3.95l5.94-1.75ZM119.25,200.17c4.02,2.3,13.62-1.34,15.01-6.48-7.21,2.66-11.98,3.86-17.51,2.79-.59-.68,1.81,3.29,2.5,3.69Z"/>
  <path d="M146.58,138.25c-1.45,4.26-5.97,6.58-9.76,6.82-3.59.23-9.45-3.43-8.32-7.54.71-2.6,6.86-5.4,9.39-4.71s6.85,3.33,8.7,5.43ZM137.97,138.91c0-.55-.45-1-1-1s-1,.45-1,1,.45,1,1,1,1-.45,1-1ZM139.97,137.8l1.63,2.73c.26.43,2.61-.37,2.28-.76l-1.41-1.69c-.32-.38-2.77-.73-2.51-.28Z"/>
  <path d="M108.28,143.33c5.69.81,4.91,1.28,1.44,2.49-2.66-.36-6.93-1.02-8.9-1.62-2.1-.64-2.94-6-2.63-8.14,4.17-3.32,13.01-4.02,16.46,1.21l-4.12.96c-1.15.27-1.9,3.65-2.26,5.1ZM106.1,137.8c-1.88,1.56-2.52,2.57-3.07,2.1l-2.58-2.25c-.74.26.69,4.43,2.19,4.4,1.2-.02,3.5-.86,5.56-1.63l-2.11-2.62Z"/>
  <path d="M104.31,127.03c-4.39,1.71-7.62,2.68-10.49.26,6.33-6,13.18-8.43,21.04-3.04l-10.55,2.78Z"/>
  <path d="M118.23,166.99l-3.23,3.11c-.6.57-3.26-3.5-2.45-3.66l4.02-.81,2.98-14.29c1.53,5.16,1.5,12.92-1.33,15.65Z"/>
  <path d="M124.47,167.83c-.45-.74,3.55-.72,4.61-.87.83-.12.56,1.85.22,2.89-.26.8-2.22,2.25-2.66,1.53l-2.17-3.54Z"/>
  <path d="M145.44,122.47c-3.12,1.16-6.72,1.91-10.98,2.03,3.03-2.02,5.32-2.57,10.98-2.03Z"/>
  <path d="M128.73,165.92l2.05-4.89c1.25.67.92,2.1-2.05,4.89Z"/>
</svg>