<?xml version="1.0" encoding="UTF-8"?>
<svg id="Calque_1" data-name="Calque 1" xmlns="http://www.w3.org/2000/svg" viewBox="0 0 256 256">
  <path d="M141.89,224.56c-8.56,5.6-18.25,6.65-23.77-2.36-17.14-4.24-25.86-17.92-34.37-31.44-4.09-6.5-6.32-10.41-6.21-19.51l-15.1-20.61c-20.96-8.52-41.26-20.21-55.62-39.77-1.15-7.98,2.52-21.1,7.92-26.04,17.04-15.62,27.85,14.09,55.09,14.54.88-20.45-5.39-27.12-2.94-51.8,32.17-18.8,75.07-28.91,109.12-11.26,5.54,2.87,16.69,9.68,17.3,17.31l2.67,33.32,23.4-5.05c11.17-2.41,29.05,3.39,32.95,15.83,3.27,10.42-2.83,24.37-9.52,32.08-9.75,11.23-23.82,16.5-37.65,18.04-1.42,9.12-5.18,17.11-12.67,23.04-2.54,22.11-27.26,50.94-50.6,53.7ZM135.63,32.93c3.21,5.12,51.05,29.49,50.39,30.96l1.25-2.78c1.63-3.64-45.59-27.93-51.64-28.18ZM126.77,36.39c0-.72-.59-1.31-1.31-1.31s-1.31.59-1.31,1.31.59,1.31,1.31,1.31,1.31-.59,1.31-1.31ZM108.4,37.8c18.19,11.99,34.62,23.32,54.5,33.61-5.6-6.3-47.69-35-54.5-33.61ZM144.62,70.49c-15.43-12.19-30.92-22.23-48.55-30.26,14.11,14.41,29.81,24.34,48.55,30.26ZM132.96,40.52c0-.72-.59-1.31-1.31-1.31s-1.31.59-1.31,1.31.59,1.31,1.31,1.31,1.31-.59,1.31-1.31ZM168.2,38.66l-1.24,2.48,11.15,5.57,1.24-2.48-11.15-5.57ZM121.43,68.6l-34.92-24.89c8.09,11.44,21.01,19.91,34.92,24.89ZM164.09,57.9l-24.16-12.29c13.35,10.03,26.36,18.2,42.41,27.26-3.36-7.12-10.57-11.06-18.26-14.97ZM78.07,49.21l-2.63,3.81,28.94,20.03,2.63-3.81-28.94-20.03ZM95.5,75.67c-7.24-6.36-13.96-11.07-21.61-15.46,4.32,8.77,12.06,14.82,21.61,15.46ZM76.06,75.57c.34.91,2.44,4.2,2.66,3.56.24-.7.48-1.76.61-2.4s-3.49-1.77-3.27-1.16ZM118.51,84.61c.45.76,8.17,1.01,8.12-1.3l-.16-7.68c-.04-1.79-13.9-1.24-20.28,1.01-2.32.82-2.45,7.26-2.73,10.04l11.11-.04c-2.24-3.44-3.77-6.24-4.05-8.18-.22-1.51,6.01-2.29,6.36-.8l1.64,6.95ZM153.11,76.52c-.69-2.11-7.38-1.57-8.43-.84.26,3.08,1.45,6.4-.06,6.75-1.42.33-5.47,1.1-5.75-.03l-1.34-5.36c-.39-1.57-5.58-2.21-5.66-.61l-.39,7.82,24.73,1.76-3.1-9.49ZM178.7,87.38l.05-9.21-18.73-2.02-1.18,9.46,19.86,1.76ZM184.1,87.3c.78.35,7.05-4.06,5.48-5.2l-5.29-3.84.15,5.23c.02.72-.13,1.56-.34,3.81ZM98.25,87.99c-3.04-3.82-9.1-6.54-10.73-4.78-.15,2.42.45,7.43-1.49,7.89l-9.25,2.19c8.05,3.57,16.01-.74,21.47-5.31ZM21.76,91.65l4.24-4.76-7.28,2.03c-1.01.28,1.07,1.54,3.05,2.73ZM232.26,87.35c-14.29,4.43-26.12,10.58-36.29,17.7,14.75-2.9,26.89-8.77,36.29-17.7ZM143.58,105.58c-6-5.63-12.09-11.38-20.02-15.36,3.85,8.08,10.68,12.81,20.02,15.36ZM156.51,100.65l-17.59-10.39c2.61,7.22,9.25,12.86,17.59,10.39ZM168.29,96.08c-6.26-3.7-8.38-4.7-11.76-5,2.52,4.73,8.04,7.32,11.76,5ZM201.94,92.22c3.43-1.07.18-.06-3.43,1.07-4.41,2.42-1.65,1.37,3.43-1.07ZM31.8,94.2c0-.72-.59-1.31-1.31-1.31s-1.31.59-1.31,1.31.59,1.31,1.31,1.31,1.31-.59,1.31-1.31ZM128.84,108.09c-5.14-8.08-11.58-13.13-20.52-14.5l20.52,14.5ZM239.62,91.77l-13.06,7.83,1.82,3.04,13.06-7.83-1.82-3.04ZM97.38,94.61l-1.86,3.72,11.15,5.57,1.86-3.72-11.15-5.57ZM21.47,98.33c0-.72-.59-1.31-1.31-1.31s-1.31.59-1.31,1.31.59,1.31,1.31,1.31,1.31-.59,1.31-1.31ZM44.78,97.42c-10.42,2.66-20.59,7.2-30.87,12,10.93-2.02,21-5.69,30.87-12ZM245.29,102.64c-17.82,4.85-35.08,13.57-53.04,24.56,18.78-4.22,36.55-11.24,53.04-24.56ZM122.55,131.31c-.66,13.42-9.44,17.72-20.57,18.48-10.26.7-15.85-6.48-20.62-16.72,2.27,14.62,7.11,47.72,17.94,54.62l10.14-12.37c17.83-.2,29.28-10.31,43.19-.08l14.7,10.81c2.39-18.9,15.01-15.68,13.11-21.62l-2.9-9.02,6.83-10.5c-.44-5.69-1.03-14.55-2.67-19.32l-7.78-22.67-19.59,5.52c5.09,1.84,15.59.36,17.97,5.85,3.35,7.74,5.35,19.68,3.35,27.24-2.52,9.47-19.63,12.03-24.2,4.65l-10.25-16.58,3.88,22.09c.63,3.6,11.4,8.96,4.81,13.27-15.54-5.4-43.99,8.25-31.45-9.61,4.37-6.23,2.78,9.46,27.13.45l-6.85-6.37-1.58-19.22-14.58,1.1ZM47.01,105.82c-9.21,2.68-17.28,5.2-26.09,10.89,10.04-1.72,18.06-5.67,26.09-10.89ZM67.59,105.38c-13.87,5.1-25.74,10.49-39.54,18.12,2.7,2.54,37.19-13.94,39.54-18.12ZM95.35,111.2l-12.59-3.46,1.46,18.69,11.13-15.23ZM136.22,117.93c6.54,1.25,12.04-1.72,15.55-7.56l-35.39,3.75,19.85,3.81ZM207.01,108.65l-11.15,5.57,1.24,2.48,11.15-5.57-1.24-2.48ZM43.63,130.06c9.75-5.68,18.2-10.28,25.8-15.8l-28.12,12.6c-.93.42-3.54,1.77-4.47,2.24-.88.45,2.25,3.61,3.1,3.11l3.68-2.15ZM202.6,132.93c14.99-1.67,27.14-8.62,37.81-17.06l-37.81,17.06ZM137.51,122.6l-16.44-2.1c3.21,6.86,9.04,5.96,16.44,2.1ZM67.55,128l1.22-5-21.45,13.07c9.22.44,11.31-4.05,20.23-8.07ZM210.71,139.82c9.57-1.84,13.15-3.51,18.03-7.53l-18.03,7.53ZM78.09,158.33c-.31-9.85-2.24-17.88-7.61-24.38-4.46,9.87-1.25,19.78,7.61,24.38ZM188.11,165.62c10.56-7.56,12.88-19.99,7.85-30.86-1.88,1.95-4.11,5.51-4.46,7.84l-3.39,23.02ZM143.85,196.08c-4.01,4.41-7.69,9.27-5.49,11.27,12.41,10.25,25.11-8.88,25.64-7.77l-3.21-6.61c-6.33-13.06-15.98-19.33-30.31-16.1l-16.43,3.7c-6.2,12.64-2.37,31.35,4.37,28.45l6.48-2.79c1.24-.54,5.78-3.39,4.75-4.24l-5.68-4.72c3.39-5.09,14.17-4.12,19.88-1.18ZM115.65,214.28c-5.35-.52-5.66-.55-.9-.08,2.31.2,3.13.27.9.08ZM136.65,213.49c.57.84,2.82,4.17,2.37,3.53s1.73-3.12.96-3.22c-.77-.1-3.77-.97-3.32-.32ZM135.03,222.22c0-.72-.59-1.31-1.31-1.31s-1.31.59-1.31,1.31.59,1.31,1.31,1.31,1.31-.59,1.31-1.31Z"/>
  <path d="M130.55,154.41c-9.63-6.06-7.48-15.43-1.32-23.19l1.32,23.19Z"/>
  <rect x="119.23" y="183.5" width="27.31" height="6.28" transform="translate(-11.92 9.09) rotate(-3.75)"/>
  <rect x="164.77" y="78.68" width="6.97" height="5.6" transform="translate(-11.53 30.23) rotate(-9.93)"/>
</svg>