<?xml version="1.0" encoding="UTF-8"?>
<svg id="Calque_1" data-name="Calque 1" xmlns="http://www.w3.org/2000/svg" viewBox="0 0 256 256">
  <path d="M71.62,138.85c.1-.96,1.24-3.57,2.1-4.17-.24,2.35-1.42,3.61-2.1,4.17Z"/>
  <path d="M215.4,194.76c-11.4,7.15-9.26,18.9-23.26,14.87l-2.96,3.6-13.61-18.16c-10.49,17.35-25.29,30.86-45.71,37.08-28.11,8.56-28.2-5.73-47.62-12-10.65-3.44-14.24-12.63-18.03-21.8l-5.26-12.7c-5.95,9.79-15.1,14.19-26.23,9.41-4.31-1.85-9.67-5.49-11.39-8.84-2.76-5.37-.86-11.35.5-17.19l5.28-22.59c.75-3.22-1.26-10.43-1.49-13.44-1.41-18.97,8.9-33.88,17.17-49.36,2.93-5.49,4.98-8.82,10.4-13.14l-3.1-3.54,13.28.8c-.21,1.53-.42,2.54-.39,2.72s1.53,1.62,1.57,1.65c.04.04,2.12-2.4,2.49-3.08l15.15-28.1c9.92-18.39,30.21-22.03,48.56-15.73,26.64,9.14,63.56,18.51,64.9,54.55l8.83,1.76-3.37.98c-.79.23-2.96,2.34-2.13,2.21l6.33-1.04c1.22-.2,3.74,2.53,3.19,3.64l-2.64,5.32c-.43.87,3.8,2.71,3.97,1.75l.86-4.79,11.97,14.32c.26-.12-2.67,1.16-2.61,1.15.05,0,.95,1.66,1.26,2.14.45.69,1.57-1.06,4.15-3.81l5.5,26.8c.93,4.55,9.35,9.9,2.42,16.57l-2.18-14.16c-2.46,1.21-5.57,4.25-5.06,5.82l2.23,6.83c-1.61,1.45-3.75,3.32-5.07,4.75-1.32,1.43.26,7.33,1.16,8.57l3.91-10.44c.4-1.07,4.67-.65,4.4.41-.27,1.06-.94,3.11-1.5,4.06l-10.35,17.58c-3.63,6.17-4.22,17.86-5.5,24.59ZM129.71,67.45c11.47.09,13.78,1.69,28.21-3.1-2.29.76,1.16-24.48-33.31-35.53-31.35-10.05-46.81,27.13-54.96,53.95,13.7-5.71,22.98-10.02,35.85-11.2,7.7-.71,17.1-4.18,24.22-4.12ZM189.42,74.4c-3.68-18.19-20.05-31.96-36.95-36l14.76,31.19,22.19,4.82ZM56.89,71.39c.43.62,2.68,3.86,2.23,3.26s1.62-2.95.9-3.03-3.58-.87-3.13-.23ZM55.36,75.66c0-.68-.55-1.23-1.23-1.23s-1.23.55-1.23,1.23.55,1.23,1.23,1.23,1.23-.55,1.23-1.23ZM172.01,75.66c0-.68-.55-1.23-1.23-1.23s-1.23.55-1.23,1.23.55,1.23,1.23,1.23,1.23-.55,1.23-1.23ZM153.54,79.3l6.15-1.15c-1.7-1.14-6.9-2.33-7.83-.74l-3.25,5.51-7.76,13.61c7.93-2.16,14.69-8.63,12.68-17.22ZM56.79,86.39c1.17-.28,5.48-4.18,4.42-4.76l-3.98-2.17c-.8-.44-2.22,2.18-2.71,3.01l-1.84,3.13c-.32.55,3.32.99,4.12.8ZM141.88,80.52c0-.68-.55-1.23-1.23-1.23s-1.23.55-1.23,1.23.55,1.23,1.23,1.23,1.23-.55,1.23-1.23ZM146.74,79.55c0-.68-.55-1.23-1.23-1.23s-1.23.55-1.23,1.23.55,1.23,1.23,1.23,1.23-.55,1.23-1.23ZM125.35,81.49c0-.68-.55-1.23-1.23-1.23s-1.23.55-1.23,1.23.55,1.23,1.23,1.23,1.23-.55,1.23-1.23ZM130.75,80.66l-3.01,4.62c-.33.5,1.8.55,2.24.15.48-.44,1.53-1.49,1.92-1.94s-.81-3.34-1.15-2.83ZM136.56,80.78l-3.07,4.46c-.4.59,3.23,1.88,3.39,1.19-1.13,4.69,3.41-11.08-.32-5.65ZM174.77,81.94c-1.87-.5-7.21-.47-8.51,1.64-1.12,1.81-1.46,7.62-1.09,8.29l9.61-9.93ZM187.57,81.49c0-.68-.55-1.23-1.23-1.23s-1.23.55-1.23,1.23.55,1.23,1.23,1.23,1.23-.55,1.23-1.23ZM175.47,85.94c-.91.25,1.46,3.1,1.98,2.49l2.97-3.43c.37-.42-3.37.5-4.95.94ZM196.31,86.35c0-.68-.55-1.23-1.23-1.23s-1.23.55-1.23,1.23.55,1.23,1.23,1.23,1.23-.55,1.23-1.23ZM95.79,96.03l3-9.72c-4.16,2-4.69,6.43-3,9.72ZM102.99,88.3c0-.68-.55-1.23-1.23-1.23s-1.23.55-1.23,1.23.55,1.23,1.23,1.23,1.23-.55,1.23-1.23ZM126.32,88.3c0-.68-.55-1.23-1.23-1.23s-1.23.55-1.23,1.23.55,1.23,1.23,1.23,1.23-.55,1.23-1.23ZM141.88,88.3c0-.68-.55-1.23-1.23-1.23s-1.23.55-1.23,1.23.55,1.23,1.23,1.23,1.23-.55,1.23-1.23ZM199.93,86.71l1.85,4.84c.26.69,2.01-.55,2.04-1.3l.13-3.23c.03-.73-4.28-.99-4.02-.31ZM92.92,99.46l-.65-12.24c-5.77,3.12-2.69,7.87.65,12.24ZM160.86,92.51c0-1.69-1.37-3.06-3.06-3.06s-3.06,1.37-3.06,3.06,1.37,3.06,3.06,3.06,3.06-1.37,3.06-3.06ZM50.14,93.9l5.72-.36c.98-.06-2.06-3.72-2.84-3.11l-3.66,2.89c-3.81-.66-3.38-.46.78.59ZM88.52,101.84l-2.24-12.28-9.63,4.15,11.87,8.13ZM132.14,90.76c.19,1.12.7,3.56,1.34,2.82l2.21-2.57c.42-.48-3.65-.86-3.55-.25ZM116.58,92.7c.18,1.11.73,3.54,1.36,2.81l2.19-2.55c.41-.48-3.65-.84-3.55-.25ZM124.38,94.13c0-.68-.55-1.23-1.23-1.23s-1.23.55-1.23,1.23.55,1.23,1.23,1.23,1.23-.55,1.23-1.23ZM182.93,92.55c-.78,1.06-2.65,3.51-1.77,3.47l4.3-.19c.56-.02.37-.93.04-1.42s-2.18-2.38-2.56-1.86ZM200.17,94.4c0-1.05-.85-1.9-1.9-1.9s-1.9.85-1.9,1.9.85,1.9,1.9,1.9,1.9-.85,1.9-1.9ZM151.28,99.78c3.04-2.43,2.72-4.58-2.4-1.67-4.69.8-3.26,1.2,2.4,1.67ZM166.94,99.09c0-1.74-1.41-3.15-3.15-3.15s-3.15,1.41-3.15,3.15,1.41,3.15,3.15,3.15,3.15-1.41,3.15-3.15ZM172.98,98.02c0-.68-.55-1.23-1.23-1.23s-1.23.55-1.23,1.23.55,1.23,1.23,1.23,1.23-.55,1.23-1.23ZM208.44,103.69c.01,1.19,4.08-1.82,5.1-2.62,1.78-1.4-7.91-6.18-8.54-5.3-.82,1.12-2.91,3.99-2.77,3.79,3.72-.36,6.15-1.11,6.16,0l.05,4.13ZM43.03,99.48c-1.24.36,1.08,4.88,2.17,4.18l3.41-2.17c.84-.53.87-3.91-.07-3.63l-5.51,1.62ZM113.69,98.99c0-.68-.55-1.23-1.23-1.23s-1.23.55-1.23,1.23.55,1.23,1.23,1.23,1.23-.55,1.23-1.23ZM133.67,100.33l-9.88-.18c1.81,2.01,3.05,3.67,4.22,3.08l5.66-2.9ZM183.17,102.95c0-2.02-1.64-3.66-3.66-3.66s-3.66,1.64-3.66,3.66,1.64,3.66,3.66,3.66,3.66-1.64,3.66-3.66ZM66.45,103.37c-.17-2.1-.11-1.33.08.84.45,4.49.42,4.2-.08-.84ZM73.83,103.85c0-.68-.55-1.23-1.23-1.23s-1.23.55-1.23,1.23.55,1.23,1.23,1.23,1.23-.55,1.23-1.23ZM115.63,102.88c0-.68-.55-1.23-1.23-1.23s-1.23.55-1.23,1.23.55,1.23,1.23,1.23,1.23-.55,1.23-1.23ZM73.72,134.68l3.08-16.18-2.99.81c-.98.27-4.5-.05-4.21-1.01l1.48-4.82.89-2.86c.2-.66-.74-1.83-1.38-1.54-9.02,4.17-5.84,15.45-3.2,24.87.47.2-1.02-.46-3.58-1.58-2.03,2.56-2.89,12.03,1.49,14.11-3.98,21.43-5.17,56.62,15.26,68.61,8.33,4.89,18.65,8.07,27.1,14.08,7.19,5.11,18.95.23,25.89-2.62,31.56-12.93,44.73-36.21,46.44-69.64l1.22-24.06c.33-6.43-.12-13.65-2.07-19.61l-11.54-2.03c-1.24-2.16-21.37-3.77-19.26-4.78l-7.35,3.56v-7.05s-20.02,4.38-20.02,4.38c-8.5,1.86-15.82,3.91-24.67,4.85l-9.18,2.2c-3.9.93-7.3,3.03-7.83,7.35l20.92-4.18c2.3-.46,8.11,4.73,6.76,6.35-8.23,9.85-13.71-2.89-33.23,10.79ZM33.02,114.27l4.96-6.31c.85-1.08-1.06-2.63-2.83-4.52l-2.13,10.83ZM62.04,111.4l-1.68-6.72c-.28-1.11-3.65-.44-4.34-.18l6.02,6.89ZM90.29,107.05c.86,1.85-.69-1.48-1.19-2.55-.23-.49-.44-.17-3.18,2.26-3.81-.24-3.58-.23,4.37.29ZM205.06,104.82c0-.68-.55-1.23-1.23-1.23s-1.23.55-1.23,1.23.55,1.23,1.23,1.23,1.23-.55,1.23-1.23ZM216.73,104.82c0-.68-.55-1.23-1.23-1.23s-1.23.55-1.23,1.23.55,1.23,1.23,1.23,1.23-.55,1.23-1.23ZM57.53,116.68c2.15-.84-.68-7.87-2.42-8.6-2.72,2.82-4.49,11.29,2.42,8.6ZM221.1,113.13l-7.62-5.33,2.99,5.82c.6,1.17,3.12.72,4.63-.49ZM190.36,110.3c-1.13.16,1.33,3.92,2.39,3.56.7-.24,3.16-1.28,3.08-1.16-2.21,3.13,2.57-3.57-5.47-2.4ZM36.7,114.56l-2.59,8.2,4.02,1.27,2.59-8.2-4.02-1.27ZM226.55,120.98l-2.23-7.12-3.24,6.35c-.43.85,1.87,3.12,2.02,2.64.61-5.71.71-5.59,3.44-1.87ZM192.38,119.41c0-1.2-.97-2.16-2.16-2.16s-2.16.97-2.16,2.16.97,2.16,2.16,2.16,2.16-.97,2.16-2.16ZM214.78,118.43c0-.68-.55-1.23-1.23-1.23s-1.23.55-1.23,1.23.55,1.23,1.23,1.23,1.23-.55,1.23-1.23ZM46.61,121.35c0-.68-.55-1.23-1.23-1.23s-1.23.55-1.23,1.23.55,1.23,1.23,1.23,1.23-.55,1.23-1.23ZM57.19,119.42c-1.59,1.73-3.17,3.27-2.46,3.73.86.55,2.62,2.19,2.98,1.42l1.97-4.19c.25-.53-2.01-1.04-2.49-.96ZM86.47,124.27c0-.68-.55-1.23-1.23-1.23s-1.23.55-1.23,1.23.55,1.23,1.23,1.23,1.23-.55,1.23-1.23ZM51.17,135.95c1.67-1.96,3.45-8.25,2.19-10.06-2.46-.64-4.21,5.28-5.21,8.15-1.03.83-4.11,2.39-4.27,3.54s2.21,4.33,2.97,3.44l4.32-5.07ZM208.24,133.33c1.01-1.19,2.62-4.04,1.92-5.15l-2.22-3.5.3,8.65ZM217.62,129.42c-.68-1.82-1.98-4-2.79-4.97s-4.57,2.89-3.62,3.72,2.01,1.59,5.04,3.76c.5-.59-1.2,1.45-1.78,2.12-.34.39-.11.78.37.77,1.57-.03,4.8,0,4.51-.75l-1.75-4.65ZM36.89,129.13c0-.68-.55-1.23-1.23-1.23s-1.23.55-1.23,1.23.55,1.23,1.23,1.23,1.23-.55,1.23-1.23ZM41.75,132.04c0-.68-.55-1.23-1.23-1.23s-1.23.55-1.23,1.23.55,1.23,1.23,1.23,1.23-.55,1.23-1.23ZM198.26,135.27l-2.22,4.77c-.44.95,4.18,1.65,4.46.64l1.03-3.66c.19-.67-2.98-2.37-3.27-1.75ZM39.34,136.13l-3.31,4.33,5.49,4.19,3.31-4.33-5.49-4.19ZM192.43,150.58l-1.48-10.64c-1.85,1.4-3.97,6.32-2.86,7.2l4.34,3.45ZM210.01,157.59l7.03-5.31,4.2-10.56c-2.46.31-10.23,2.05-10.46,4.95l-.77,10.92ZM50.14,146.29l1.39-4.54-9.49,6.78c.07.86,3.3,1.88,4.14,1.17l3.97-3.4ZM32.92,145.57c.34.84,2.33,3.97,2.42,3.38.1-.68.39-1.63.6-2.22s-3.25-1.7-3.03-1.16ZM40.78,150.51c0-.68-.55-1.23-1.23-1.23s-1.23.55-1.23,1.23.55,1.23,1.23,1.23,1.23-.55,1.23-1.23ZM30.89,151.52c.2,1.7,2.02,6.18,2.3,5.16l1.11-4.06c.18-.67-3.48-1.73-3.41-1.1ZM191.38,161.85c.49-6.24-.45-9.2-3.8-10.81l-.93,7.05c-.2,1.5,3.29,3.35,4.73,3.76ZM48.47,153.34c.4.93,2.34,4,2.42,3.38s.38-1.62.6-2.21-3.29-1.77-3.03-1.17ZM46.56,159.26c-.62-.74-6.22-2.09-7.16-.47-1.51,2.61-2.91,9.23-1.77,11.59.63,1.29,5.53-1,6.25-2.24s.72-2.67.35-6.71c-5.55.97-3.36.09,2.33-2.18ZM196.65,166.04c.47-4.69.59-6.92.4-7.84l-.4,7.84ZM213.81,164.12c0-.68-.55-1.23-1.23-1.23s-1.23.55-1.23,1.23.55,1.23,1.23,1.23,1.23-.55,1.23-1.23ZM54.39,168.01c0-.68-.55-1.23-1.23-1.23s-1.23.55-1.23,1.23.55,1.23,1.23,1.23,1.23-.55,1.23-1.23ZM47.83,170.3l-5.21,2.4c-.85.39,1.95,2.15,2.71,2.87.68.65,2.7-1.84,2.65-2.79-.04-.63-.16-2.58-.15-2.48ZM186.34,171.03c.43,1.2,2.79,5.63,2.99,4.66l1.02-4.97c.13-.65-4.23-.32-4.01.31ZM37.49,183.88l-4.89-11.94c-1.08.64-3.38,2.08-3.02,2.95l1.63,3.95,6.29,5.04ZM50.24,179.05c3.89-1.11,4.61-4.07,3.02-7.27l-3.02,7.27ZM211.83,175.79c0-1.2-.97-2.16-2.16-2.16s-2.16.97-2.16,2.16.97,2.16,2.16,2.16,2.16-.97,2.16-2.16ZM190.14,180.5l-6.57-4.62c2.18,5.09,4.66,9.33,8.85,13.8,2.23-3.06.25-7.4-2.28-9.18ZM41.22,178.58l2.24,3.15c.44.61,3.27-.5,2.98-1.22-.31-.77-.77-2.13-.98-2.85-.21-.73-4.68.29-4.24.92ZM181.5,189.53c.49-3.83.48-7.23-.05-9.99-.49,3.83-.48,7.23.05,9.99ZM196.29,182.15c.17,1.07.73,3.54,1.35,2.82l2.2-2.58c.41-.49-3.65-.84-3.55-.24ZM213.81,183.57c0-.68-.55-1.23-1.23-1.23s-1.23.55-1.23,1.23.55,1.23,1.23,1.23,1.23-.55,1.23-1.23ZM42.47,188.31l-9.6-2.91c1.83,4.68,6.2,5.01,9.6,2.91ZM200.28,187.78l.33,5.57c.04.76,3.2-.34,3.22-1.1l.11-3.8c.02-.76-3.71-1.42-3.67-.67ZM207.98,189.4c0-.68-.55-1.23-1.23-1.23s-1.23.55-1.23,1.23.55,1.23,1.23,1.23,1.23-.55,1.23-1.23ZM49.53,190.37c0-.68-.55-1.23-1.23-1.23s-1.23.55-1.23,1.23.55,1.23,1.23,1.23,1.23-.55,1.23-1.23ZM201.17,197.14c-5.26-3.87-9.6-5.85-14.91-7.23,1.93,4.9,3.75,7.81,6.13,9.74,1.8,1.46,6.58.08,8.78-2.51ZM202.52,203.34h-12.82c2.13,2.09,5.36,4.37,7.2,3.89,1.47-.38,3.51-2.11,5.62-3.89Z"/>
  <path d="M65.31,146.48c.42-2.27,4.45-6.09,6.31-7.64-.28,2.73-3.69,8.07-6.31,7.64Z"/>
  <path d="M219.53,190.97l2.99-7.22c.85.61-.21,2.85-2.99,7.22Z"/>
  <path d="M136.69,179.55l11.71,5.76c2.6,1.28,10.92-2.89,10.85-5.91-.15-6.57-4.94-14.73-7.66-22.61,8.36,5.11,10.14,17.52,12.81,27.86-6.79.1-13.48,2.49-19.62,6.42l.13-3.4c.28-7.54-19.01,18.08-47.09,4.24,12.22,9.63,27.9,7.87,43.7,1.4-18.59,13.79-45.3,9.45-57.55-10.59l-4.67,2.01,15.32-31.22c1.56-3.18,7.53-5.95,10.75-6.12l-6.04,11.42c.06-.09-4.54.1-5.05,1.06l-6.8,12.77c-1.06,1.99-.99,7.33.58,8.77,2.12,1.95,6.55,2.46,9.31,1.41l16.3-6.26c4.88-1.87,13.49-1.16,18.52.31-13.52.79-25.43,1.95-35.51,10.38,14.36-5.41,26.01-8.97,40.68-6.02-3.23-3.8-3.68-4.51-.67-1.68ZM112.95,187.79c-1.09-2.56-1.99-4.65-1.5-3.51l-4.81,2.19c-.76.35.21,3.29,1.01,3.03l5.3-1.7ZM131.97,184.18c-1.1.12,1.63,4.4,2.41,3.61l2.24-2.26c.5-.51.91-1.95.2-1.88l-4.85.53Z"/>
  <path d="M173.07,122.64c-3.59,11.73,2.26-.97-20.6,4.91-4.53,1.17-8.45.67-11.01-1.09,5.79-3.4,3.48-3.06-1.75-1.95,4.04-11.31,20.26-9.74,28.82-3.68l-6.49-.1c-.96-.02-.79,3.15.17,3.18l4.56.12c.92.03,1.91-1.38,2.67-1.93s3.91-.35,3.64.54Z"/>
  <path d="M113.66,141.28c-.73.87-6.79,1.18-6.78.04.08-5.46,4.93-18.33,9.18-24.89l8.79,4c-1.67,5.48-7.47,16.4-11.19,20.84Z"/>
  <path d="M145.59,156.36l-2.48,4.45c-.45.8-3.41.99-3.01.15l2.42-4.99-6.16-8.75c1.87-.02,6.07.43,8.47.92,1.93.39,1.76,6.42.76,8.22Z"/>
  <path d="M103.91,160.18c3.43-3.13,8.14-4.87,11.94-4.19-1.49,5.39-5.56,8.35-11.94,4.19Z"/>
  <rect x="128.67" y="153.84" width="4.72" height="9.61" transform="translate(-61.49 231.23) rotate(-71.1)"/>
</svg>