<?xml version="1.0" encoding="UTF-8"?>
<svg id="Calque_1" data-name="Calque 1" xmlns="http://www.w3.org/2000/svg" viewBox="0 0 256 256">
  <path d="M186.99,219.88c-1.52,6.81-4.38,6.75-6.15-.85.81,5.56-32.32,20.96-31.95,21.15l-6-3.12c-63.62,17.88-47.07-.4-48.85-2.36-1.17-1.29-3.35-3.6-4.6-5.09-2.45-7.81-5.04-15.96-10-24.45l1.28,19.86-17.11-32.72c-2.44-4.67-14.63-7.83-16.69-13.73-4.78-13.73-25.4-1.35-15.6-49.23l6.4-31.26c1.97-9.6,10.69-18.33,15.46-26.87,11.19-20.03,22.94-37.53,42.42-50.81,6.28-4.29,18.16,3.43,24.04,2.13,8.66-3.85,17.52-11.31,26.63-11.35,10.17-.04,17.02,6.13,25.71,12.25,4.19,2.95,16.42,5.94,18.45,10.69l12.96,30.27-2.56,5.23c-.54,1.1,1.95,3.08,4.01,4.66l.38-12.42c.02-.69,2.27-3.13,2.69-2.48.63.99,2.32,3.92,2.54,5.11l6.34,34.07c.24,1.28.62,4.83-.28,4.9l-4.24.33,7.19,33.03c1.05,4.84.75,10.65-.76,16.59l-6.82-17.75.74,16.56-8.83-18.17c-7.64,32.7,6.1,23.56-4.96,53.61l-11.85,32.22ZM162.5,25.81c-.71-1.72-5.65-8.07-8.72-8.43-5.78-.69-17.35,3.77-21.53,7.37,12.53-1.92,21.5-3.29,30.25,1.06ZM142.42,37.28c2.42-1.41,5.04-4.19,6.59-4.07l7.81.57c-6.72-6.33-15.52-3.3-24.96,2.07,2.21.87,8.21,2.8,10.55,1.43ZM183.34,38.77c.45-.29.07-5.6-1.64-5.7l-6.89-.43,8.53,6.14ZM113.3,44.87c-1.61-6.44-1.75-10.5-3.15-10.38l-5.64.49,8.79,9.89ZM134.44,179.29l20.46,3.87c5.89,1.11,9.93,4.12,14.86,10.28-10.54,3.31-17.22,5.15-26.35,7.44-9.96,2.5-18.81,11.48-30.41,3.29l14.12-4.81c.87-.3,3.84-1.34,3.88-1.3-5.93-6.89-16.73,10.39-34.08,2.46-.27-5.03,5.51-7.33,9.66-7.91l6.68-.94c1.29-.18-1.11-5.97-2.26-5.37l-20.55,10.7c-3.58,1.86-2.37,11.92-.2,15.6,5.69,9.68,25.05,5.91,25.56,19.92.06,1.71,6.34,3.42,5.91,2-.31-1.04-1.18-3.45-1.75-4.58l-4.45-8.88c9.5-.91,13.13,3.17,15.66,12.75l6.34-5.74c1.74-1.58,6.06-7.21,8.19-6.23l8.43,3.88,2.52-8.72c.3-1.03,2.14.33,4.46,1.74,11.45-7.48,13.13-22.7,9.9-35.96,7.8-3.97,9.71-8.85,11.72-16.56l5.61-21.45c6.18-23.66,2.97-45.89-15.2-63.62l-24.37-23.78c-14.91,8.26-29.82,11.1-47.86,8.97,10.05-5.23,19.65-4.94,27.9-7.18-1.68-4.22-2.96-8.21-1.26-9.18l7.94-4.54c-5.76-2.68-8.2-4.17-13.21-8.1l-1,19.5c-7.39,6.18-18.81-.37-28.23-1.39-8.43-.91-17.64,10.96-19.54,16.87,6.14-5.38,9.29-10.11,16.96-11.73l-12.97,18.43c7.42-4.75,10.76-13.67,21.8-14.54-12.07,12.39-22.63,26.85-26.19,43.85,9.68-3.26,31.05,6.96,32.77,1.13l3.3-11.16c1.44.81,5.51,5.3,5.68,8.05.15,2.41-7,24.24-12.38,26.96-12.89,6.51-27.73-.15-25.7-2.44l5.3-5.98-8.03,1.59c-.53-3.3-.99-6.26-2.32-9.04l-.62,40.97c-.02,1.45,2.03,6.15,3.39,6.36l5.17.8,6.77,15.46,3.43,10.81,17.32-9.36c2.07-1.12,8.66-5.6,9.61-3.48l4.62,10.24.53-14.49-13.17-6.37,19.88-3.37c1.27-13.43-3.2-27.54-8.01-42.26,14.84-3.5,16.47,36.29,18.03,43.8l-14.13,9.49,3.79,5.48c.42.61,5.23-2.43,6.1-2.26ZM179.79,63.62c-4.03-10.26-10.94-20.26-23.97-20.88,9.17,12.12,12.1,6.99,23.97,20.88ZM108.74,52.54l-5.24-6.98c-.75-1-3.88,2.06-5.84,3.82l11.08,3.16ZM201.63,91.09c-4.12-16.17-11.1-32.11-23.37-46.06,5.4,10.67,10.71,20.42,15.36,31.7,2.13,5.16,3.68,9.88,8,14.36ZM142.29,51.44c0-.79-.64-1.44-1.44-1.44s-1.44.64-1.44,1.44.64,1.44,1.44,1.44,1.44-.64,1.44-1.44ZM184.18,68.42c0-.79-.64-1.44-1.44-1.44s-1.44.64-1.44,1.44.64,1.44,1.44,1.44,1.44-.64,1.44-1.44ZM69.22,98.25l6.25-16.24c-4.49,4.61-7.17,9.2-6.25,16.24ZM44.3,111.39c11.46-.19,11.83-14.02,8.67-22.51-3.61,7.35-6.38,14.72-8.67,22.51ZM205.96,116.53c2.31-8.88,1.28-15.48-5.32-22.07-3.64,6.94-.45,16.86,5.32,22.07ZM65.53,123.83c0-7.25.21-13.9-.85-20.25-5.37,15.21-4.8,29.69.83,44.41l.02-24.15ZM102.51,121.56c-1.94-3.24-13.3-2.43-11.45,3.49,1.46,4.68,12.37.01,11.45-3.49ZM57.78,170.27c.55-5.46.69-8.06.46-9.13l-.46,9.13ZM72.57,183.61c-1.16-8.28-2.93-12.8-5.56-18.12-1.34,7.67.21,14.41,5.56,18.12ZM156.34,189.62l-23.41-4.49c6.53,7.76,16.5,6.26,23.41,4.49ZM111.72,235.97c0-.79-.64-1.44-1.44-1.44s-1.44.64-1.44,1.44.64,1.44,1.44,1.44,1.44-.64,1.44-1.44Z"/>
  <path d="M224.64,93.95c1.75,4.8,5.38,55.11-.9,57.42l-3.17-55.53c-.05-.84,3.78-2.68,4.07-1.89Z"/>
  <path d="M148.16,129.39l1.74-11.12-7.85,8.88-9.78-7.55c-4.1-3.17-8.56-6.63-9.74-11.49-.89-3.68,3.1-10.83,5.77-11.65-1.97,32.47,30-7.21,48.02,10.88,6.24,6.26-.25,16.71-4.99,19.94-6.8,4.62-15.34,5.79-23.17,2.12ZM168.93,117.12c-1.34-1.82-7.27-3.58-8.99-3.23-.26,2.61-.43,8.3,1.39,7.73,1.82-.57,8.73-2.96,7.6-4.5Z"/>
</svg>