<?xml version="1.0" encoding="UTF-8"?>
<svg id="Calque_1" data-name="Calque 1" xmlns="http://www.w3.org/2000/svg" viewBox="0 0 256 256">
  <path d="M210.55,210.89c-10.3,6.77-16.82-3.5-28.25-2.58,8.05,12.57,9.59,8.88,15.18,18.67.62,1.08-4.12,2.57-5.74,2.18l-50.63-12.11c-11.54-2.76-22.19-2.41-30.02-13.3-10.01,10.79-18.32,19.09-30.43,28.65-24.1-15.06-41.46-39.55-44.09-68.53-1.63-17.95-6.31-35.38-3.63-53.2,3.01-20.02,10.73-28.68,14.09-56.68.15-1.24,2.15-4.86,2.87-4.05,5.88,6.53.48,11.8,5.25,26.35l16.68-19.8c8.78-10.42,9.15-19.32,15.14-19.89,1.55-.15,2.71,4.46,2.42,6.2l-2.5,14.59c11.82-5.54,23.46-26.98,26.75-24.62.95.68,2.85,3.77,2.71,4.99l-3.13,25.87,15.39-10.92,3.68-2.64c.86-.61,3.8,3.99,3.33,4.93l-8.62,17.49,26.67-4.44c.71-.12,2.46.16,3.14.32,1.02.24.21,3.92-.59,4.76l-9.71,10.25c14.07,2.54,24.24-8.24,32.4-6.14,1.04.27.38,4.66-.44,5.61l-15.51,18.04c13.2,9.87,27.77,14.26,44.52,20.88-7.91,7.48-17.02,6.9-27.52,8.53,8.75,22.7,18.53,27.17,27.01,40.25.54.83-2.24,3.94-3.18,3.67l-24.97-7.27c7.23,17.63,18.22,29.36,31.73,43.93ZM128.72,165.1c4.57-7.69,5.14-12.15,4.09-20.51l-2.44-19.5-9.73,2.46c7.15,5.22,3.03,17.82-3.55,18.71-9.52,1.29-18.09.06-27.88-5.02l30.12-12.29c-.13-8.42,1.36-13.11,4.63-22.75l-23.86,12.47-3.7-17.34-9.99,19.07c-1.52.29-5.91-2.09-6.76-3.58l-10.24-17.82-4.19,18.55c-6.71-4.35-9.13-8.06-14.75-14.89l1.74,24.79c16.23,10.56,24.06,4.54,28.27,15.04-7.46,2.86-29.56,3.53-35.52,1.1-6.45-2.63,5.93-17.81,1.32-19.91l-8-3.64c-.77,40.79,4.1,79.36,42.49,104.95,21.15-16.27,34.05-36.5,47.96-59.9ZM139.2,125.34c0-1.13-.91-2.04-2.04-2.04s-2.04.91-2.04,2.04.91,2.04,2.04,2.04,2.04-.91,2.04-2.04ZM145.64,141.9c1.6-.63,4.59-.93,4.36-1.98l-1.3-5.84c-.29-1.3,2.89-4.72,1.76-5.33l-5.06-2.76c-.95-.52-5.06,2.72-5.03,3.81l.62,20.25c.05,1.65,7.81.48,7.25-1.06l-2.59-7.08ZM119.08,138.17c0-.64-.52-1.16-1.16-1.16s-1.16.52-1.16,1.16.52,1.16,1.16,1.16,1.16-.52,1.16-1.16ZM109.89,140.26c0-.99-.8-1.79-1.79-1.79s-1.79.8-1.79,1.79.8,1.79,1.79,1.79,1.79-.8,1.79-1.79Z"/>
  <path d="M87,174.19c-6.01,1.79-10.5,2.65-16.23,3.21,5.84-16.19,3.44-25.42,8.52-32.29l-.69,21.44,8.4,7.65Z"/>
  <path d="M74.81,194.5l-3.97.71c-.73.13-2.13-2.86-1.45-3.14l4.45-1.85c8-3.33,18.41-4.83,24.3,3.87-9.01-.71-15.71-.97-23.33.4Z"/>
  <path d="M79.72,205.81c-2.5-.64,1.96-7.78,4.79-7.97,1.33-.09,3.02,2.81,3.33,4.1.47,1.98-3,3.86-8.11,3.87Z"/>
  <path d="M89.27,152.11c-.62,3.68-1.87,8.26-3.57,8.06-2.67-.32-1.91-5.39-.37-8.43,2.32-2.87,4.94-3.82,3.94.36Z"/>
  <circle cx="81.73" cy="216.05" r="3.69"/>
  <circle cx="85.78" cy="164.8" r="2.82"/>
</svg>