<?xml version="1.0" encoding="UTF-8"?>
<svg id="Calque_1" data-name="Calque 1" xmlns="http://www.w3.org/2000/svg" viewBox="0 0 256 256">
  <path d="M196.02,143.8c-2.98,5.96-4.82,14.17-7.97,21.93-7.49,18.43-33.84,76.32-58.93,73.46-6.42-1.08-19.27-5.3-24.22-9.45-29.23-24.57-23.48-35.63-35.12-48-11.2-11.91-18.23-24.55-21.65-40.76-9.63-10.3-16.05-24.32-17.61-37.94-1.26-10.97,5.82-11.87,11.14-17.59,5.84-6.27,7.04-19.5,11.81-27.6,10.39-17.64,28.26-32.94,48.67-39.18,8.2-2.51,22.65-2.26,30.88-1.19l23.29,3.03c5.83.76,15.47,5.45,19.71,9.21l15.39,13.68c4.97,4.42,10.69,17.36,9.87,24.05-.8,6.58-5.86,16.5,1.37,19.65,4.89.02,14.85-1.62,19.68-.22,6.51,7.03,1.6,18.4.31,26.85l-3.83,25.05c-1.2,7.88-13.98,12.85-22.79,5.03ZM181.49,160.69c-7.1,2.29-7.49,8.28-7.89,14.34l-10.08-.79c3.98-5.69,7.13-10.23,8.61-15.79-2.09-1.82-8.82-4.44-11.3-5.04l.3,8.63c-5.49-4.85-7.25-6.1-13.53-9.11l9.53-7.2-11.88-1.27c13.43-13.11,13.48,8.97,37.43,11.45,25.42-52.43,7.34-61.59,9.73-76.1,2.93-17.76-1.26-28.28-14.57-39.26-10.41-8.59-20.94-13.69-35.61-15.12-12.42-1.21-33.42-5.04-46.42,2.83-13,7.87-26.66,16.54-33.79,30.6-17.59,34.71-12.79,70.91,3.79,105.97,4.35-5.44-.99-11.57-1.93-16.89-1.24-7.06,10.48-6.14,14.76-6.09,5.92.06,13.41-7.15,20.47,3l-29.42,3.55,8.6,7.64-5.73,6.51c3.21,4.62,3.71,7.5,2.48,10.59l9.72,16.68c8.13,2.7,11.99,8.43,17.01,15.7,1.8,2.6,6.54,4.52,3.72,8.03l-15.1-14.21c5.63,15.04,22.62,28.11,37.49,32.9,21.48,2.75,47.09-54.65,53.6-71.54ZM207.55,118.06c-3.8,11.92-9.11,13.45-5.73,19.55,1.24,2.24,9.05,3.55,9.47.83l4.12-26.99c1.04-6.81,7.23-15.21-.15-20.38-2.87.1-11.62,4.52-11.99,7.64-.66,5.56-.56,16.47-.17,21.56,3.29-8.18,1.54-17.18,9.81-18.99l-5.35,16.78ZM42.08,116.15c.85-7.48,1.09-14.78.63-23.07-10.27,6.77-4.69,15.5-.63,23.07Z"/>
  <path d="M138.74,197.42l-25-1.13-18.69-10.17-4.7-2.64c-1.03-.58,2.95-5.57,4.19-5.52l36.21,1.52c5.29.22,12.87-2.73,17.66.74.43,4.97-5.11,15.73-9.66,17.19ZM131.46,188.91l-10.41-4.95c-1.02,3.95.85,7.7,4.51,6.65l5.9-1.7ZM117.87,191.43c0-.75-.61-1.36-1.36-1.36s-1.36.61-1.36,1.36.61,1.36,1.36,1.36,1.36-.61,1.36-1.36Z"/>
  <path d="M101.64,107.97c-7.05,15.28-39.24,2.36-31.8-.17l5.37-1.82,3.89-1.33c1.05-.36.62-4.78-.46-4.42l-5.3,1.73-6.98,2.29c-1.47.48-2.99-3.3-3.11-4.84s2.39-4.78,4.26-4.84l26.19-.84c6.37-.21,11.47-.73,13.09-6.85.47-1.78,6.45-4.08,7.02-2.48.57,1.59.63,3.62.5,6.33-1.83,3.81-3.65,7.78-5.21,9.81-2.74,3.57-15.04-.56-15.45,2.02-.22,1.42-1.48,4.74-.35,4.82l8.33.59Z"/>
  <path d="M151.35,109.76c8.04-1.26,11.61-1.88,17.02.49-11.81,9.54-23.88,5.93-34.21-2.06l5.67-4.78c-6.05-3.55-12.19-10.78-6.06-19.52,5.76,11.63,14.86,15.11,25.48,12.47l17.72,6.29c-5.85,9.52-24.44-7.68-25.62,7.11Z"/>
  <path d="M114.03,152.94c-2.19,1.32-10.52-1.23-10.42-4.19.28-8.16,5.51-18.27,9.73-25.68l6.44-13.92c12.56,15.65-16.82,23.33-5.75,43.78Z"/>
  <path d="M102.37,165c.4,2.69-12.64-1.14-19.72,2.49-.2.38,2.53-4.74,3.74-7s7.35-.79,10.32-.04l4.13,1.05c1.02.26,1.36,2.29,1.54,3.5Z"/>
  <path d="M133.45,169.32c-1.09-.88-1.64-5.35-.18-5.43l6.93-.38c4.78-.26,8.4-4.54,13.62.52l-20.37,5.29Z"/>
  <path d="M132.46,223.14c-6.35,8.66-14.4,2.51-18.57-3.79l18.57,3.79Z"/>
  <circle cx="129.96" cy="148" r="4.39"/>
  <path d="M159.02,176.98l-3.02,7.31-1.97-5.72c-.5-1.44,2.42-6.12,3.9-5.78,2.53.58,6.64,5.46,6.86,8.03.27,3.21-1.99,7.99-5.96,12.06l.19-15.91Z"/>
  <rect x="114.39" y="205.48" width="4.6" height="12.57" transform="translate(-120.08 260.75) rotate(-72.83)"/>
  <rect x="117.43" y="158.12" width="5.83" height="6.69" transform="translate(-73.74 215.18) rotate(-68.77)"/>
  <path d="M148.12,205.25l4.04-10.91c.71-1.93,4.8,6.39,3.04,7.29l-7.08,3.62Z"/>
  <path d="M136.51,161.4c-2.3-.97-5.51-2.63-4.44-3.06l6.34-2.52c4.61,3.42,4.96,3.79-1.9,5.58Z"/>
  <path d="M144.77,215.79l.63-8.56c5.08.81,4.06,6.87-.63,8.56Z"/>
  <path d="M127.3,212.62l5.09-1.03c.85-.17,2.06,3.15,1.24,3.47l-3.41,1.31c-1.2.46-4.16-3.5-2.92-3.75Z"/>
  <circle cx="103.64" cy="158.99" r="1.4"/>
  <circle cx="143.28" cy="203.21" r="1.36"/>
  <circle cx="141.14" cy="218.2" r="1.36"/>
</svg>