<?xml version="1.0" encoding="UTF-8"?>
<svg id="Calque_1" data-name="Calque 1" xmlns="http://www.w3.org/2000/svg" viewBox="0 0 256 256">
  <path d="M171.3,213.86c-12.55,8.91-22.9,18.15-33.5,28.7-3.3,3.28-13.55,4.79-18.28,3.53-38.09-10.12-44.44-4.15-51.4-25.71-5.48-17.01-13.38-32.67-15.65-49.83l-7.4-55.94c-.36-2.75-3.58-7.82-4.55-9.8,1.12-37.79,13.77-83.53,56.35-91.62,18.26-3.47,39.07-4.54,56.21,2.98,8.39,3.68,14.73,12.56,21.44,18.61,28.5,25.71,20.87,49.21,19,83.61,4.16.88,11.81,2.68,13.6,5.51,11.82,18.59-12.12,41.31-22.09,55.36-5.75,13.56,1.14,24.05-13.73,34.61ZM172.92,89.64c-1.84.63-8.05,3.11-8.5,1.12l-2.17-9.63c-.24,5.62-8.69,7.58-12.79,10.03-1.61.96-4.01,5.18-5.49,6.29s-6.78-1.72-6.58-3.56l.88-8.15c-1.38.13-5.1,1.42-5.78.25l-2.96-5.06c-2.9,18.76-20.33,26.88-20.77,20.42-.09-1.28-.23-4.7-.44-6.13l6.09-16c-3.41,3.94-8.6,8.75-11.44,7.05-1.93-1.23.19-7.36.69-11.1l-12.85,17.76c-.88,1.22-5.91,1.95-6.98.87s-1.48-4.43-.98-6.04l5.34-17.45c-9.93,11.54-1.27,18.79-21.68,23.64l-12.86,15.95c1.94,15.89,2.98,32.55,5.84,48.66,4.41,24.77,15.24,48.42,22.35,71.7,16.18,1.45,29.22,5.09,44.89,9.54l22.05-21.05c17.25-16.47,25.23-5.62,27.23-54.77-11.79-8.41-1.31-16.36-2.12-42.77l-.97-31.56ZM200.85,134.54c.23-4.82-4.77-9.36-7.88-7.71-2.47,10.67-4.49,21.65-5.76,33.43,8.36-6.32,13.1-14.57,13.64-25.73Z"/>
  <path d="M136.2,213.46c-7.59,11.86-43.25,1.07-48.9-6.43-7.56-10.03-10.28-31.36-1.98-40.66,10.3-11.54,44.09,3.65,55.91,9.7,1.04,12.11,1.84,26.66-5.02,37.4ZM128.25,179.3l-22.21-8.06c-12.49-4.54-1,15.11,22.21,8.06ZM131.79,206.2c.12-1.39-1.01-3.06-1.99-3.6-6.81,3.94-15.1,6.31-21.93,4.53-4.84-1.26-9.24-7.5-12.76-13.71-1.23.06-4.28,2.37-4.56,4.12-1.5,9.51,40.12,21.46,41.25,8.65Z"/>
  <path d="M100.67,159.19c-5.88.4-11.3-9.97-10.68-14.74.14-1.11,2.29-5.62,3.1-4.91l4.33,3.81,5.14-14.86-13.27-5.11,2.34,5.57c.44,1.05-2.99,4.76-3.9,4.08l-14.26-10.73c-.94-.71-2.21-5.18-1.22-5.81l5.07-3.25-10.16-9.86c-1.14-1.11-1.56-5.18-.85-6.6s5.66-1.88,7.28-.5l24.39,20.71,5.65-10.86c14.27-1.78-.32,38.55-3.12,45.73,3.45,2.97,14.31,1.07,15.34-3.48.33-1.45-.62-7.09.68-7.34,2.64-.36,6.97,3.5,7.82,6.05,3.08,9.21-14.04,11.44-23.7,12.09Z"/>
  <path d="M141.99,136.07l-7.81-8.5c-4.23,1.97-14.14,5.31-17.2,1.65-5.12-6.13-2.15-17.13,4.07-22.67,3.23,1.91,3.69,7.55,3.97,14.44l36.15-20.53c3.47-1.97,8.84-1.34,11.09,3.28-6.55,5.2-14.62,10.72-21.06,14.85l9.34,5.41-18.56,12.07Z"/>
</svg>