<?xml version="1.0" encoding="UTF-8"?>
<svg id="Calque_1" data-name="Calque 1" xmlns="http://www.w3.org/2000/svg" viewBox="0 0 256 256">
  <path d="M160.76,214.45l-13.75,11.49c-6.64,5.55-15.68,2.12-23.45,1.86-8.97-.3-16.95.41-23.99-5.71l-1.67,3.81c-.24.54-13.86,1.82-15.62-1.16-4.16-7.06-9-17.63-12.46-25.72l-7.16-6.29-1.39-33.07c-.73-17.3-.6-34.15-.24-51.48.55-27.01-6.42-31.04,9.45-65.35,6.77-4.15,17.43-8.02,21.73-14.29,7.61-11.09,17.21-11.88,28.42-15.04,12.06-3.4,25.28-7.92,36.12,1.74l19.11,17.04c8.03,7.16,11.22,15.79,13.93,26.43,4.13,16.19,11.4,33.68,9.18,50.78-1.13,8.71-2.37,15.6-.75,24.42l4.59,25.02c.91,4.93,2.63,34.94-3.51,32.36l-6.81-2.86-4.34,12.8-8.69,4.78c-1.14,7.19-11.39,24.23-14.87,24.67-2.33.29-6.65-2.52-6.29-4.49.61-3.4,1.89-9.12,2.45-11.75ZM116.33,64.58c0-.64-.52-1.16-1.16-1.16s-1.16.52-1.16,1.16.52,1.16,1.16,1.16,1.16-.52,1.16-1.16ZM147.45,64.58c0-1.13-.91-2.04-2.04-2.04s-2.04.91-2.04,2.04.91,2.04,2.04,2.04,2.04-.91,2.04-2.04ZM127.05,73.18c-4.42-.44-6.52-.56-7.39-.38l7.39.38ZM140.06,74.64c-4.27-.67-8.01-.65-11.28.06,4.27.67,8.01.65,11.28-.06ZM121.42,81.2c-3.99-3.47-9.37-5.87-12.94,1.19,3.84.05,8.55-.34,12.94-1.19ZM129.13,88.41c0-1.13-.91-2.04-2.04-2.04s-2.04.91-2.04,2.04.91,2.04,2.04,2.04,2.04-.91,2.04-2.04ZM106.97,88.99c-1.01.11,1.57,4.15,2.3,3.4l2.09-2.12c.5-.51.84-1.83.19-1.76l-4.58.48ZM154.86,89.56l-13.78-.53c3.42,6.15,10.63,7.22,13.78.53ZM125.07,96.98c-8.33-1.6-15.16-3.15-21.13,1.52l21.13-1.52ZM153.84,209.75c-2.36-5.76-8.95-12.1-1.91-19.97l4.34,17.15c8-5.59,8.69-14.32,12.42-21.96,5.26-10.77,12.2-20.25,18.87-30.69l-6.11-25.32-7.95,5.39c-1.69,1.14-6.4-4.35-8.34-3.91-4.7,1.06-14.81,4.21-19.41,5.63-.98.3-2.7-3.37-1.79-3.84l4.44-2.29,3.81-1.97c.79-.41-.48-3.71-1.37-3.67l-4.11.17c-.99.04-3.31-.3-4.35-.45-4.56-.66,7.47-5.88,4.56-6.65l-3.67-.97c-1.34-.35-4.47-2.2-5.68-3-.89-.59,1.34-3.8,2.61-4.01l19.98-3.18-21.47-1.69c-12.21-.96-24.92.14-37.47,2.96l20.04,2.42c1.29.16,4.39,5.04,3.1,5.27l-4.63.83-5.19.95c-.92.17,1.05,2.58,1.88,3.06l2.97,1.71,3.91,2.22c.6.34-.75,2.57-1.44,2.56l-3.6-.04c-2.67-.03-3.83-.07-5.03.5-.9.43-1.29,3.62-.44,4.19l5.65,3.77-16.04,2.61c-2.54.41-7.04,7.26-9.35,4.83-4.32-4.54-5.6-11.88-7.01-17.3l-7.8,28.17c1.36,12.06,5.37,25.44,8.5,38.25,2,8.2,11.76,14.36,16.83,21.17,8.8,11.82.19,5.78,29.46,9.16,7.47.86,16.72-6.54,20.81-12.05ZM88.84,110.41c0-.64-.52-1.16-1.16-1.16s-1.16.52-1.16,1.16.52,1.16,1.16,1.16,1.16-.52,1.16-1.16ZM156.87,115.28c-4.75-.47-5.03-.49-.8-.07,2.05.18,2.78.24.8.07ZM170.72,127.04l-6.51-11.2c-.25,4.44,1.15,9.82,6.51,11.2Z"/>
  <path d="M135.11,167.74c-.84,1.8-6.75,4.31-7.99,2.77l-5.18-6.44,11.11-3.83c-1.96-9.28-2.95-15.97-1.34-24.38,4.1,5.53,7.19,23.69,3.39,31.88Z"/>
  <path d="M157.23,181.04c-2.08.52-5.14-.48-5.31-1.5-3.62-22.07-6.46-15.93-9.8-41.78,6.99,2.55,5.78,10.21,8,16.35,3.03,8.38,5.87,16.9,7.11,26.94Z"/>
  <path d="M102.78,186.11c-2.92-6.36,1.04-10.13,3.08-14.76l14.68-33.29c-.3,19.31-10.66,32.95-17.75,48.05Z"/>
  <path d="M138.06,196.14l-10.92-2.69-8.08,5.81c-.74-2.78-1.34-5.38-.92-6.79.53-1.76,5.11-3.85,6.95-3.66l13.98,1.42c1.08.11,3.17,2.67,3.71,3.67.54,1-3.65,2.51-4.71,2.25Z"/>
</svg>