<?xml version="1.0" encoding="UTF-8"?>
<svg id="Calque_1" data-name="Calque 1" xmlns="http://www.w3.org/2000/svg" viewBox="0 0 256 256">
  <path d="M147.24,247.77c-7.27,4.39-25.07,2.23-32.13-2.23-12.95-8.17-24.34-20.88-30.36-34.24-6.99-15.49-3.1-34.02-8.89-49.07-5.26-5.52-13.81-11.84-13.95-18.69-.2-9.72,1.12-18.2,8.03-24.47l-.45-11.31c-14.03-.02-49.68.18-49.17-17.06.67-22.21,41.09-20.1,56.05-20.68l3.2-61.67c39.63-.08,62.26-6.8,101.43,2.04,6.21,17.57,7.33,34.55,5.04,52.82-.28,2.23,1.08,8.41,3.76,8.92,14.39,2.74,48.15,7.07,45.77,27.05-1.98,16.62-30.75,13.57-41.88,14.34.54,14.37,10.43,27.51-.34,43.47-1,1.48-5.53,4.18-6.02,6.03-4.29,16.35-4.75,39-12.01,55.5-5.07,11.51-17.09,22.62-28.08,29.25ZM145.88,61.72c12.61.74,23.84.18,35.27-.78,1.92-16.58.62-30.44-3.71-46.39-38.76-8.25-54.79-2-92.38-1.13l-2.62,44.57,63.43,3.73ZM224.92,104.02c2.28-.73,5.95-5.51,5.46-7.79-2.74-12.86-30.72-15.87-42.47-18.05l-6.88,8.04-1.02-10.46-64.78-.84-32.24-.55c.03,4-.09,9.08-1.9,9.26-2.34.22-3.74-4.63-4.23-7.88-10.9.05-50.86-.17-51.38,14.68-.45,13.09,42.34,11.29,51.14,10.98,25.94,3.52,51.06,2.99,77.26,2.67,24.9-.3,49.9,6.74,71.04-.04ZM83.7,109.9c2.38.25-1.55-.16-2.4-.25-.71-.07.32,3.28.53,4.54.08.46-.34,1.29,1.87-4.28ZM88.43,111.47c.16,1.02.67,3.23,1.23,2.58l2.01-2.35c.38-.44-3.33-.79-3.24-.23ZM122.55,121.83l4.96-10.86c-3.86,2.08-5.34,6.23-4.96,10.86ZM144.69,187.4l9.66-.78c.7.74-.27,8.73-2.6,9.86-5.99,2.9-17.12,3.51-23.62,3.29l-1.72,25.34,5.16-1.13-5.84,19.32c3.58.86,13.49,3.76,17.42.68,9.65-7.57,23.08-17.11,26.93-28.85,9.98-30.38,15.44-71.88,11.08-103.75-3.49,8.13-2.66,13.73-8.81,17.07-5.2,2.82-11.34,2.84-16.13-1.07-4.51-3.69-5.88-8.32-4.7-16.46l-18.96.42c-1.84,3.98-2.09,9.19-1.86,14.18.91,20.03-2.59,26.95,1.69,34.54.41.74-2.05,2.18-2.71,1.69-.73-.54-2.87-1.96-2.93-1.96-.07,0-2.33,3.1-2.13,3.77l3.31,11.49,3.1-7.54c2.88,7.89.52,14.05-4.12,21.31l7.35-3.04c.55-7.9,1.1-14.61,4.45-19.9-.22,8.42-2.11,15.44-.03,22.89l4.83-19.69,1.2,18.3ZM112.14,123.96c-5.39-.17-8.67-.21-8.51-1.79.32-3.12.61-7.54-1.06-8.6-1.66-1.06-7.32.45-8.82,2.09.02,4.51,5.07,11.82,8.8,14.49,1.48,1.06,7.68,1.38,8.09-.29s1.52-5.96,1.5-5.89ZM175.63,118.76c-3.4-7.68-17.11-8.99-20.91-2.95-3.48,5.52,4.58,10.49,9,11.09,3.97.53,12.93-4.15,11.92-8.13ZM111.38,144.92l3.63-7.79c.31-.67-2.51-.27-3.87.11-23.58-5.85-18.2-25.25-26.11-15.27-.88,1.1.94,4.34,2.13,6.08-3.1,5.14-8.76,10.33-5,18.69l6.39-14c2.55,1.34,2.67,6.93.85,10.69-.05.39,3.83,1.71,3.4,2.67l-3.21,7.16,5.62-2.32.75,3.79c.18.9,1.57,1.43,3.68,2.65l-4.41,9.89,3.82-2.29c.72-.43,3.57.42,3.45,1.12l-3.6,12.18,8.51-9.54,3.57,4.36c-3.5-9.91-2.98-17.79.44-28.18ZM75.44,156.82l-.13-18.19c-.04-5.39.32-9.86-4.48-13.1-3.62,6.54-6.29,16.91-2.09,22.45l6.71,8.85ZM190.51,130.26c-4.69,5.02-4.18,15.99-2.19,21.32,7.73-3.96,6.66-26.1,2.19-21.32ZM128.68,147.91l-.66-13.52c-2.73,5.49-4.63,12.12-4.66,19.36,2.71-.43,5.43-3.68,5.33-5.84ZM81.62,158.91c3.68-2.51,4.72-5.64,4.27-9.07l-4.27,9.07ZM83.12,166.23l.48,4.95c.06.64,1.78-1.27,2.02-1.86l.99-2.46c.24-.59-3.56-1.26-3.5-.63ZM113.61,226.4l-1.63-9.7-8.51.06c2.45-16.86-5.64-4.36-1.85-20.17-1.23,2.84-2.13,5.01-7.41,7.08l6.3-18.21c-3.19,4.59-4.79,7.31-9.97,12.82l4.08-23.07c-2.76,4.07-7.42,10.4-7.72,16.32-1.07,21.29,6.6,24.62,17.92,39.68.92-.58,3.82-2.43,3.72-2.36l4.31,8.38c.25.5,2.9.1,2.77-.38l-.5-1.89c-.13-.48-1.85-1.45-1.53-1.83,2.46-2.92,6.18-10.54,4.21-15.62l-4.19,8.89ZM145.14,193.45c-5.96-1.91-11.41-2.68-17.49-1.05,6.32,2.75,12.03,2.36,17.49,1.05ZM120.37,208.53c0-.62-.5-1.13-1.13-1.13s-1.13.5-1.13,1.13.5,1.13,1.13,1.13,1.13-.5,1.13-1.13ZM122.79,233.22l-5.37.42.76,9.68,5.37-.42-.76-9.68Z"/>
  <path d="M111.38,144.92c-.55.34-4.81-1.59-4.09-2.67.89-1.34,2.7-3.68,3.85-5.01l.24,7.68Z"/>
  <path d="M103.74,166.91l3.62-6.29c.43,2.13-.71,4.23-3.62,6.29Z"/>
  <path d="M165.65,180.53c-15.32-3.39-3.63-12.59-18.54-14.29-.88-.1.34-3.25-.47-3.53l-4.65-1.59c-.82-.28-1.63-1.81-1.12-2.48.68-.89,3.17-2.49,4.26-2.74l6.67-1.56,13.85,26.19Z"/>
  <path d="M145.77,153.66l-2-27.19c-.04-.6,2.32-3.69,2.37-3.1l.31,3.71c.73,8.69,5.54,17.77-.68,26.58Z"/>
  <circle cx="162.91" cy="120.16" r="3.43"/>
</svg>