<?xml version="1.0" encoding="UTF-8"?>
<svg id="Calque_1" data-name="Calque 1" xmlns="http://www.w3.org/2000/svg" viewBox="0 0 256 256">
  <path d="M156.31,217.74c-105.96,10.61-49.28-12.32-137.03-44.92,7.23-60.41.8-92.21,55.13-123.58,33.67-19.44,25.67,9.94,58.98-13.61l40.4,6.8c5.32.9,12.78,10.5,17.31,13.79,14.54,10.56,33.89,21.92,39.1,41.09,6.98,25.68,13.36,73.1-3.22,94.67-48.38,20.01-6.15,19.29-70.67,25.76ZM195.1,166.13l17.27-20.57c7.65,17.31-7.12,27.7-19.03,39.4-2.88,2.83-9.65-.92-13.44-.52l-73.05,7.62c-4.26.44-12.37,5.9-13.34,6.79-5.6-3.89-12.61-7.91-17.95-9.14,29.49,20.89,2.29,15.23,48.2,20.61,11.47,1.34,25.47-2.34,36.44-2.12,19.08.38,31.28-3.71,45.96-15.15l18.98-14.79c2.86-23.1,2.33-46.81-1.92-69.99-4.06-22.12-21.52-34.62-38.56-45.5-5.06-3.23-12.3-10.98-17.47-11.95l-31.01-5.85c-14.64,7.9-28.16,6.52-45.47,7.67-19.71,1.3-45.8,24.22-50.91,43.89-4.73,18.19-10.5,52.02-9.33,69.75l20.96,8.53c-.52-7.15-4.17-11.36-10.84-15.55-3.93-2.47-4.16-13.38.05-18.59,26.59,13.71,11.19,26.09,41.94,40.13l1.05-12.51c.12-1.44,5.1-1.54,6.88-1.57l2.64,13.77c.59,3.07,8.29,5.06,11.44,4.45l-.38-9.37c-.54-13.27,12.83,9.38,17.66,7.3l14.32-6.2c2.98-1.29,12.88,4.26,14.54,1.49l6.29-10.53c4.09,2.56,6.94,7.84,9.57,7.75l12.82-.45c5.94-.21,11.16-3.41,15.69-8.8Z"/>
  <path d="M149.53,125.38c-5.06-7.27-8.73-16.24-4.24-18.72,28.63-15.82,32.57-30.5,43-28.15,9.2,2.07,17.61,14.01,17.23,22.07-.45,9.53-6.65,20.52-16.85,23.61-12.48,3.78-25.27,2.95-39.15,1.19Z"/>
  <path d="M109.82,98.25c-.04,8.18-3.37,19.69-8.36,23.9-7.02,5.91-20.21,9.26-27.37,5.26-15.87-8.87-18.39-32.07-13.19-45.03.95-2.36,7.02-6.54,8.83-5.24,15.51,11.18,3.15,24.79,40.09,21.11Z"/>
  <path d="M117.83,125.71c7.04,2.24-5.1,31.83-17.95,26.6,1.23-7.88,5.09-20.77,8.38-26.66.8-1.42,8.01-.43,9.57.07Z"/>
  <path d="M140.85,155.15c-13.18-3.68-17.52-20.43-11.29-28.97,10.42,3.53,14.25,18.43,11.29,28.97Z"/>
</svg>