<?xml version="1.0" encoding="UTF-8"?>
<svg id="Calque_1" data-name="Calque 1" xmlns="http://www.w3.org/2000/svg" viewBox="0 0 256 256">
  <path d="M133.51,194.13l-14.84-1.02,2.39,22.92c.51,4.89-3.61,14.44-3.52,19.8.09,5.46.12,9.54-1.01,14.48-22.6-19.19,8.01-52.33-13.55-68.63-1.12,8.16.26,16.78-8.27,19.83-4.07-5.29-7.58-12.54-10.23-18.4-.88,7.22,2.4,14.21-5.29,19.51l-4.72-30.72-1.01,22.69c-.19,4.31-.13,6.93-4.63,11.8l-7.74-29.72c-10.26,7.66,11.86,20.4-4,26.08l-6.13-22-2.58,12.61c-15.22.52-2.7-39.25.42-49.12,3.74-11.81,5.64-23.5,8.68-37.54l-10.07,16.36c-8.58-10.17,1.15-19.18,4.33-27.55l15.14-39.93c7.93-20.9,5.3-12.75,17.82-32.65,1.89-3.01,10.41-4.39,13.34-6.83,7.26-6.04,16.03-7.16,25.75-8.57,7.17-1.04,13.69-3.75,21.89-2.44,6.51,1.04,18.65-.05,23.49,4.31l19.22,17.32,10.38,9.91c8.17,18.97,13.49,23.3,7.74,44.05l3.13,17.24c3.23,17.81,9.4,99.66,1.6,109.41-10.08,12.61,0-43.87-3.03-44.47-7.01,11.44-4.34,23.64-5.51,35.26l-1.52,15-12.39-7.32c-.45-.27-1.39-3.84-1.77-4.2-.58-.54-2.05-1.91-.92-.86l-4.96,6.8c-.86,1.18-4.71-3.97-4.43-5.51l9.01-49.11c-5.17,6.56-6.49,16.69-8.38,25.92l-2.98,14.57c-.32,1.58-2,4.2-3.02,5.16-1.28,1.21-5.92-3.65-5.44-5.4l3.43-12.53c.24-.88-.14-3.79-.24-4.68-1.39-12.95-6.61,28.67-10.67,23.03l-2.88-12.75c-26.89,7.91,1.54,34.55-17.62,67.17-1.11-.91-2.79-4.17-2.88-5.66l-1.98-32.43c-.39-6.37,1.4-13.68.46-21.2ZM167.22,19.13c-2.22,17.72,6.93,11.46,1.37,39.94-.68,3.49-2.06,7.47-3.27,9.48-1.01,1.67-7.56,2.71-8.36.89-1.83-4.18,1.39-14.29,1.25-18.9-.46-14.23,1.67-33.27-7.61-31.99-7.92,1.09-14.79,1.91-21.47,3.41l-18.25,4.11-16.05,3.49-11.01,22.85c-2.72,5.64-3.01,15.07-4.39,22.8,10.65,1.43,20.34,3.27,30.57,3.61l48.58,1.62c13.88.46,29.72,3.28,42.36-3.1,9.34-19.93-13.04-50.36-33.73-58.22ZM76.24,60.88c0-.7-.57-1.27-1.27-1.27s-1.27.57-1.27,1.27.57,1.27,1.27,1.27,1.27-.57,1.27-1.27ZM69.39,76.4c2.84-4.42,5.31-7.32,3.27-12.09l-9.71,24.04c9.73.13,3.82-7.86,6.44-11.94ZM159.18,153.08l-25.78-11.23,12.05,9.82-12.21,3.16c-11.08,2.87-18.95-5.81-16.44-8.11l3.44-3.16-18.47,3.36c2.33-22.13,20.26-9.61,28.42-19.16l-19.6-3.99,10.04-12.14,7.84,1.28,4.69-27.2-10.86-.49,5.25,8.84c-3.79,3.7-10.58,7.31-15.81,6.47-5.35-.86-11.16-5.71-13.03-10.68l4.58-5.61-13.15-1.35.76,24.48-1.03,30.04c-.33,9.66,11.82,31.8,19.95,33.89,12.04,3.1,19.18-11.11,24.78-1.36,2.6,4.52,4.44,7.96,7.07,8.7,10.67,3,17.99-7.56,26.39-13.76l13.99-40.13c4.44-12.75,6.4-25.6,6.59-38.63l-22.27.76c2.14,2.9,6.04,7.38,5.3,9.64-1.48,4.45-9.78,7.41-13.35,6.14-3.88-1.38-11.65-6.36-9.72-10.9,1.84-4.31,9.38-4.39,13.66-6.4l-25-.15-2.63,15.07c-1.75,10.03-5.19,21.48,1.73,30.53l18.36,10.28c4.23,2.37,6.77,9.04,4.46,12ZM114.35,95.16c-1.29-6.45-4.33-8.41-7.02-3.88l7.02,3.88ZM59.1,104.51c3.59-6.08,4.57-8.14,4.85-11.43-4.59,2.45-7.11,7.81-4.85,11.43ZM159.49,93.99c0-.7-.57-1.27-1.27-1.27s-1.27.57-1.27,1.27.57,1.27,1.27,1.27,1.27-.57,1.27-1.27ZM203.38,111.18c.51-3.96.5-7.46-.05-10.31-.51,3.96-.5,7.46.05,10.31ZM195.01,120.57c-.18-2.17-.11-1.38.08.87.46,4.63.43,4.33-.08-.87ZM62.22,149.87c-1.68-7.69,5.5-14.65-3.01-19.27l1.73,40.65c2.92-6.08,3.11-13.01,1.28-21.38ZM206.22,155.66l-.22-24.63c-4.01,8.68-7.26,18.27.22,24.63ZM75.07,168.96c1.77-12.24.89-20.96-2.36-30.12l-.28,16.58c-.06,3.47,1.71,10.07,2.64,13.54ZM127.4,142.13c0-.7-.57-1.27-1.27-1.27s-1.27.57-1.27,1.27.57,1.27,1.27,1.27,1.27-.57,1.27-1.27ZM195.36,167.37c.73-4.68.72-8.77-.06-12.35-.73,4.68-.72,8.77.06,12.35ZM51.15,172.69l2.93-6.39c.36-.79-3.04-1.96-3.34-1.13l-1.55,4.33c1.53,2.5,2.42,3.96,1.95,3.2ZM83.02,181.39c.51-3.96.5-7.46-.05-10.31-.51,3.96-.5,7.46.05,10.31Z"/>
  <path d="M138.75,127.54c-1.27.32-3.74-6.25-2.34-6.51l5.71-1.04,1.38-8.14,9.54,12.06-14.29,3.62Z"/>
</svg>