<?xml version="1.0" encoding="UTF-8"?>
<svg id="Calque_1" data-name="Calque 1" xmlns="http://www.w3.org/2000/svg" viewBox="0 0 256 256">
  <path d="M198.55,201.68c4.02,5.27,5.21,11.73,3.86,18.53l-11.66-10.51c-2.76-2.49-6.15-4.93-9.47-7.19-.77,2.13-2.46,7.37-4.09,9.13-21.02,16.85-17.83,24.04-34.43,41.72-3.92.94-11.72-.63-15.92-1.62l-27.24-6.41-24.57-47.59c-3.87-7.49-3.88-16.98-4.32-25.47-3.58-2.79-7.73-5.91-9.71-8.77-2.7-3.89,1.88-12.45,1.16-16.43l-8.78-48.5-10.88-55.84C58.69,17.37,106.73,5.45,135.8,7.19c12.94.77,20.87,15.85,22.71,24.22,6.46,29.4,12.43,58.59,17.38,88.18,21.76-2.04,18.96,42.79,16.54,56.05,15.51,35.96,24.99,10.18,19.49,27.37l-15.44-4.35c3.67-4.03-8.87-26.31-16.04-22.67-1.11,5.53-.74,18.44,3.76,22.68l16.11,15.21c1.06-7.39-15-16.67-13.91-28.14l12.15,15.94ZM147.05,19.67c-.41-2.6-5.3-6.15-8.79-6.36-30.32-1.89-60.32,5.59-85.69,25.68,14.69,6.87,97.4-.6,94.48-19.32ZM131.88,77.26l12.67-41.76c-.78,13.07-5.24,22.93-6.83,35.95l15.39-25.41-8.94,25.69,8.49-8.08c.04,8.78-11,11.48-6.83,24.44l8.22-4.96c-4.54,7.28-11.57,8.55-6.46,15.95l14.93-8.97c-4.52,6.47-9.38,9.27-14.9,13.79.27,3.76,1.31,10.51,2.25,13.57,7.14,4.91,12.84,9.43,18.8,14.51,2.05-3.6,2.92-12.02-.03-13.54-5.02.44-9.52,1-12.55-1.07l12.61-4.21-16.78-81.59c-32.12,15.22-66.88,20.06-101.44,13.96-1.57,11.65,6.79,18.29,15.37,25.05-4.21-.74-7.08-2.93-12.25-6.6,1.42,10.39,3.49,20.5,6.42,31.3,5.7-.59,10.2-1.47,14.07-2.66,7.93,5.69,16.2,10.94,26.35,14.55-1.71-24.57-19.86-35.6-27.88-55.14l21.13,25.85c-.51-10.73-3.35-19.45-.16-29.27,3.75,19.96,3.73,37.62,11.23,57.62l9.99-38.84c5.03,3.22-4.1,21.21-3.91,30.54,3.15-2.14,6.49-5.37,7.07-7.94,3.96-17.51,7.39-32.95,13.01-49.41.62,16.51-7.76,29.15-8.04,45.53,2.35-1.52,8.2-6.13,9.02-8.83ZM173.74,207.2c7.06-8.01-3.38-37.54,2.97-40.45l11.06,5.8c1.52-13.02,1.72-21.9-.54-32.43-2.51,8.03-4.29,14.59-8.14,22.09-4.26-9.35-3.05-22.78,4.21-29.02,1.31-1.12.19-3.9-1.38-5.71-.9-1.04-5.43-1.27-5.75.15l-3.4,15.19c-5.63-1.95-11.34-11.87-13.71-10.87l-3.86,1.62c-4.03-2-11.54-5.59-16.04-6.61-7.88,4.24-12.82,12.76-14.34,21.02,9.81-4.94,18.07-8.98,29.17-12.43,3.84,20.76-12.1,20.4-27.97,29.48l3.54-8.55-4.05-2.76c-.49-.33-.81,1.7-.7,2.28l.69,3.83c-1.65.12-5.22-.85-6-2.57s-1.75-7.14-.92-9.44l10.95-30.44c.44-1.23,3.47-3.77,3.99-2.68l2.84,6.01c.02-7.29-1.74-13.13-.07-21.63,2.9,8.29,4.08,15.1,5.59,23.56l10.75,3.9c-12.97-7.85-8.72-29.63-12.86-47.32l-25.48,24.92c1.77,1.26,2.55,1.99,3.16,1.67l3.23-1.66c-.39,11.33,3.09,25.14-5.72,34.51-.33-8.34,4.77-16.67-1.38-21.86-.88-.75-4-1.04-4.04-2.12l-.15-4.26c-7.89,8.52-23.72-3.47-32.58-8.32l-4.69,41.2,4.75-6.14c-.19.25,23.71,13.34,29.78,20.43,7.81,9.11-3.57,43.48,11.83,30.71l12.1-10.03c9.52.71-13.69,26.14-24.37,15.54-3.62-3.6-1.25-14.18-1.5-19.4l-.22-4.71c-.1-2.06-15.15,9.21-27.31,4.77.32,3.87,1.12,10.16,1.98,13.74,4.99,3.41,13.14,6.97,15.11,12.23,3.03,8.09,5.59,16.19,6.57,24.24.47,3.83-1.56,8.99.42,11.32,3.16,3.73,6.23,5.53,10.29,6.42l28.9,6.27c5.45-5.91,9.32-14.3,14.58-20.26l18.72-21.22ZM63.66,113.57l6.27-3.39c.6-.33,2.87-12.44-1.34-12.36l-7.17.14c-1.55.03-.93,5.58-.63,7.23l5.92,33.02,3.75-23.65-6.8-.99ZM142.99,151.09c4.07,1.19,8.46-4.78,6.38-7.51l-6.92,2.16c-1.33.41-.83,4.95.54,5.35ZM95.09,156.37c-2.12-4.57-7.94-6.58-13.56-5.12l-8.9-5.09-6.19,7.98c-1.18,1.52.02,6.98,1.31,8.55,3.29,4.01,13.81-6.66,27.34-6.32ZM101.94,163.56c.73-.89-1.28-4.49-2.26-3.94l-3.29,1.84c-.94.53-1.33,3.77-1.34,4.84s3.73,1.14,4.4.31l2.48-3.05ZM85.02,170.43c-2.53-3.34-6.1-5-10.72-4.63,2.54,3.33,6.1,4.98,10.72,4.63ZM89.54,201.14c-.55-1.88-5.31-4.39-6.93-3.68,4.38,8.9,7.27,14.72,12.35,22.27l-5.43-18.58Z"/>
  <path d="M140.88,219.4l-31.37-.32c-.77,0-2.48-3.44-1.76-3.9,6.7-4.25,30.27-3.55,35.94-.22.84.49-1.61,4.44-2.8,4.43Z"/>
  <path d="M158.26,220.57c-4.19-6.57-2.04-15.25-1.99-23.71.04-6.96,1.04-11.41,5.3-16.87l8.61-11.03c3.89,8.98-6.2,11.74-8.8,18.16-3.81,9.41-1.16,21.03-3.11,33.45Z"/>
  <path d="M109.93,156.2l-4.91-28.81c-.41-2.39,1.88-7.71,3.22-8.77l2.19,22.81c1.01,4.78,4.06,9.29-.5,14.77Z"/>
  <path d="M124.1,242.43c-1.76-.36-5.31-3.97-6.01-6.28-.99-3.24.34-8.09,2.92-10.74l3.1,17.02Z"/>
  <path d="M67.16,63.81c4.42,1.52,24.66,21.31,20.88,27.55l-20.88-27.55Z"/>
  <path d="M104.37,85.49l5.57-30.74c1.44,10.57.46,20.79-5.57,30.74Z"/>
  <path d="M74.01,82.42l2.67,4.56c-5.94-.15-10.16-.99-15.6-4.82l12.93.25Z"/>
  <path d="M72.53,59.64c-4.15-2.13-8.35-5.43-12.2-9.66,5.87,1.08,9.08,3.14,12.2,9.66Z"/>
  <rect x="150.56" y="103.91" width="13.94" height="3.63" transform="translate(-31.84 94.18) rotate(-30.38)"/>
</svg>