<?xml version="1.0" encoding="UTF-8"?>
<svg id="Calque_1" data-name="Calque 1" xmlns="http://www.w3.org/2000/svg" viewBox="0 0 256 256">
  <path d="M113.56,233.64c-13.41-13.42-24.07-44.46-33.98-60.57-2.09,11.55-2.28,22.65-1.84,34.72.1,2.81-5.11,10.71-6.53,8.32-3.9-6.57-5.56-11.94-8.4-19.12l-5.55,27.09c-8.31-9.67-10.25-20.24-10.97-31.79l-3.79-60.55-17.98,16.25c-1.87,1.69-5.04,3.65-6.98,4.08s-3.71-6.37-2.96-8.47l19.41-55.03c3.61-10.23,8.55-20.02,14.6-28.35,6.78-9.34,17.85-11.72,27.8-5.26l13.59-13.58c28.75-28.71,80.2-27.21,114.74-11.65,45.8,20.63,24.27,63.5,21.57,82.93l-4.36,31.29c-2.19,15.72,11.63,42.83,20.92,56.83.95,1.42-3.89,5.39-5.62,5.25l-21.23-1.7-.18,9.32c-.04,2.17-8.03.97-9.16-1.2-3.54-6.79-8.18-18.06-11.87-27.37-11.35,12.65-2.21,9.94-18.43,29.66-13.19,16.04-46.59,29.2-62.8,18.91ZM66.31,165.48l4.02,15.76c6.1-22.62,2.47-36.71,8.26-63.91,3.42-16.06,6.21-30.43,12.45-45.78l29.81-3.86c15.57-2.02,30.39-7.12,45.8-7.82,12.65,30.41,17.48,28.06,34.66,52.16l14.29-6.65c7.31-19.18,12.76-43.46-5.85-58.36-10.81-8.65-24.91-11.76-38.87-14.87-31.5-7.02-65.19,1.77-85.51,27.53-1.88,2.38-4.92,5.82-7.06,6.42-5.54,1.55-16.29-10.39-22.27-.63-6.48,10.57-11.08,20.78-15.21,32.19l-13.44,37.13c1.42-.21,6.73-3.55,7.52-5.72l10.08-27.7c.62-1.7,3.74-4.42,5.15-5.28,8.99-5.46-.23,26.01.07,37.28.57,21.55,2.12,40.4,3.94,62.3,6.46-7.96-1.1-32.65,12.15-30.19ZM116.87,226.62c12,6.42,22.48-.87,31.85-3.65,19.12-5.69,28.52-18.42,35.99-36.08,4.42-10.43,12.64-19.92,6.63-33.29,12.85,2.15,17.8-3.36,21.42-12.9,2.34-6.18,8-23.32-1.42-25.33-1.39-.3-4.36,1.58-5.33,2.93l-11.64,16.42c-2.94-4.98-.68-8.28,1.8-13.21l-15.14-18.88c-3.25,18.74-16.93,36.27-33.99,29.87l-9.48-11.32,13.82-16.32-23.85,8.9c-2.54-4.98-3.96-14.21-2.32-18.1.53-1.26,4.91-.77,5.74.32l3.41,4.42,25.99-10.5,14.63,8.49-15.26-29.12-32.27,6.95c-10.5,2.26-20.52,2.67-32.17,4.26-2.5,6.45-5.3,16.81-6.45,22.28l18.67,6.49,3.32-11.73c1.24-.23,5.05.09,5.19,1.41.14,1.25.38,3.83.46,5.3l1,17.29,3.8-5.66c.52-.77,2.37.29,2.94,1.05.38.51,1.12,3.49,1.05,4.32l-3.78,44.99,9.9,4.35c0,3.23-7.13,6.54-11.07,6.27-14.72-1.01.82-39.93-2.05-57.66-7.08,6.04-10.63,9.71-14.72,14.18l6.98,4.89c-3.01,3.7-9.39,7.23-14.55,7.18-3.87-.04-8.84-4.18-13.19-7.52-1.69,13.24-3.14,20.21,3.65,33.21l18.41,35.21c3.17,6.06,8.71,14.96,12.01,20.29ZM167.08,118.16c1.15-2.31,3.3-7.46,4.57-11.33-6.08.46-10.75,2.13-14.39,4.03l9.82,7.3ZM155.76,126.33c-1.9-3.32-4.42-8.73-5.62-7.53l-5.32,5.31,10.94,2.22ZM97.42,137.92c-1.1-4.05-3.61-7.84-2.32-9.15l6.05-6.16-16.67,5.24,12.94,10.06ZM215.08,172.59l-2.65-14.98-10.26,5.76,12.92,9.22ZM205.58,182.21c.26,1.65,1.13,5.74,1.99,5.09.57-.43,2.26-1.3,3.02-1.61,2.38-.97-5.47-6.35-5.01-3.48ZM219.54,189.39c-1.29,1.91-2.65,3.89-1.74,3.43s4.63,3.15,4.74,2.17l.57-5.14c.08-.67-3.21-.9-3.58-.46Z"/>
  <path d="M137.84,203.69l-13.96,12.45c-2.28-5.29,1.25-8.39,3.98-12.59l-5.8-3.59c-1.27-.78,1.15-5.58,2.72-5.98l24-6.04c1.82-.46,6.22,1.54,7.18,2.92s-2.21,4.08-4.78,5.64c-1.84,1.12-1.04,6.06-.23,9.81-.08,1.01-3.78,4.15-5.02,3.25l-8.11-5.88Z"/>
  <path d="M142.43,155.02c5.07,12.05,2.35,23.76-3.43,23.13-2.84-.31-4.78-4.11-4.56-6.96l.91-11.59c.15-1.92.44-3.73.71-4.93.27-1.21,5.89-.78,6.37.36Z"/>
</svg>