<?xml version="1.0" encoding="UTF-8"?>
<svg id="Calque_1" data-name="Calque 1" xmlns="http://www.w3.org/2000/svg" viewBox="0 0 256 256">
  <path d="M166.62,223.81c-2.86,4.43-15.3,7.28-20.36,9.62-16.18,7.49-28.58,2.84-44.59,8.37l-21.27-12.83c-6.83-6.67-12.02-19.15-18.68-26.9-2.24-2.6-9.44-4.33-9.48-7.24l-.18-15.12-8.99-16.63c-4.55-8.41-1.67-18.07-8.36-26.26-5.79-7.1-3.91-9.66-5.14-29.54l-1.64-26.46c-.72-11.67,5.08-15.32,10.96-25.08l19.7-32.69c5.61-9.32,24.38-.17,33.85-2.65l42.05-11,8.51,13.72,17.06,2.47c4.21.61,11.79.05,15.03,2.21l23.38,15.55,11.86,13.41c9.58,10.84,6.63,29.5,10.1,27.5l-5.99,3.45c-1.88,16.47,16.45,24.98,5.12,42.95-4.45,7.05-3.72,15.16.6,22.94,6.71,12.08-13.78,10.75-14.01,18.2l-.42,13.29-3.01,16.19-18.81-4.23-17.3,26.78ZM72.74,27.71c-3.09-2.49-6.1-3.92-9.26-4.26l9.26,4.26ZM129.11,26.8l-10.49-2.73c3.1,4.55,7.72,4.45,10.49,2.73ZM59.4,28.16c-.92.98-3.65,6.31-2.37,6.2l4.44-.39c.97-.09,3.01-1.57,2.33-2.26-.88-.89-3.73-4.25-4.4-3.54ZM92.62,43.58c1.77-3.97-1-12.01-3.7-11.65-3.59.47-7.32,6.8-6.21,9.56.92,2.31,8.8,4.57,9.91,2.09ZM108.21,34.63c-1.24.35,2.48,4.46,3.29,3.4l3.41-4.46c.54-.71-4.33.39-6.7,1.06ZM135.58,36.3c0-.85-.69-1.54-1.54-1.54s-1.54.69-1.54,1.54.69,1.54,1.54,1.54,1.54-.69,1.54-1.54ZM168.93,36.2l2.78,3.9c.55.77,4.03-.61,3.72-1.48l-1.26-3.61c-.31-.88-5.76.48-5.24,1.2ZM56.72,39.94c0-.85-.69-1.54-1.54-1.54s-1.54.69-1.54,1.54.69,1.54,1.54,1.54,1.54-.69,1.54-1.54ZM68.48,51.63c-1.65-8.36-2.49-11.91-4.18-11.42-2.78.81-3.24,7.18-1.06,8.43l5.25,2.99ZM150.48,61.97l2.52-19.52-9.14,5.75,6.62,13.77ZM193.82,46c0-.85-.69-1.54-1.54-1.54s-1.54.69-1.54,1.54.69,1.54,1.54,1.54,1.54-.69,1.54-1.54ZM58.84,54.37c1.38-.08,3.32-5.67,2.08-6.16-.91-.36-2.57-1.27-3.35-.85-.78.42-2.54,1.93-3.11,2.62l-2.89,3.55c-.6.73,4.75.99,7.27.84ZM108.13,48.18l4.17,2.59c.69.43,2.12.89,2.09.16-.04-.98-.19-4.03-1-3.85s-5.97.66-5.25,1.11ZM131.91,47.86c.23,1.4.92,4.42,1.69,3.52l2.75-3.21c.52-.61-4.56-1.1-4.43-.3ZM122.15,49.16l-3.64,1.21,5.58,16.74,3.64-1.21-5.58-16.74ZM101.08,53.95c-1.07.32,1.77,3.9,2.45,3.13l3.75-4.25c.46-.52-4.57.62-6.2,1.12ZM87.5,64.37l-6.13-10.44-1.23,10.89c-.21,1.87,8.21,1.29,7.36-.44ZM167.91,59.75c-.41-7.43-2.96-8.12-5.6.97l5.6-.97ZM191.01,65.5c6.78-5.71,3.73-9.91-1.15-10.5l1.15,10.5ZM62.26,58.48c.42,1.85,1.79,6.65,2.66,5.85.58-.54,2.29-1.78,2.93-2.21.98-.64-.75-3.44-1.54-4.31-.53-.58-4.23-.11-4.05.66ZM104.25,85.31c6.63-6.74,11.77-15.87,10.83-25.91-5.08,5.85-8.69,9.3-15.32,12.89-1.71,2.34,1.16,8.64,4.49,13.02ZM209.59,64.2c0-.85-.69-1.54-1.54-1.54s-1.54.69-1.54,1.54.69,1.54,1.54,1.54,1.54-.69,1.54-1.54ZM57.75,76.23l1.13-12.58-5.18,4.64c-1.05.94,1.09,4.05,4.05,7.94ZM136.73,75.54c7.08-.58,12.33-1.2,11.9-2.95l-2-8.21-9.9,11.16ZM173.19,66.63c0-.85-.69-1.54-1.54-1.54s-1.54.69-1.54,1.54.69,1.54,1.54,1.54,1.54-.69,1.54-1.54ZM183.76,83.79c5.82-6.86,5.72-16.27-2.57-19.42-.69,1.37.89,7.46,2.27,10.73l.3,8.69ZM44.59,69.06c0-.85-.69-1.54-1.54-1.54s-1.54.69-1.54,1.54.69,1.54,1.54,1.54,1.54-.69,1.54-1.54ZM34.61,68.28l-4.96,5.92,5.1,4.27,4.96-5.92-5.1-4.27ZM198.67,70.27c0-.85-.69-1.54-1.54-1.54s-1.54.69-1.54,1.54.69,1.54,1.54,1.54,1.54-.69,1.54-1.54ZM83.56,88.58c-1.2-6.27-1.04-10.62-3.15-12.18-2.11-1.57-9.59-1.49-12.08-.9l15.23,13.08ZM122.03,75.31c.14,1.71,2.56,7.6,2.9,6.32l1.36-5.09c.23-.84-4.33-2.11-4.26-1.22ZM62.62,79.37c-1.07.77-6.96,2.22-6.04,3.09l4.02,3.8c.92.87,3.23-2.49,3.22-3.76,0-.85-.51-3.63-1.2-3.13ZM157.42,79.98c0-.85-.69-1.54-1.54-1.54s-1.54.69-1.54,1.54.69,1.54,1.54,1.54,1.54-.69,1.54-1.54ZM175.62,81.19c0-.85-.69-1.54-1.54-1.54s-1.54.69-1.54,1.54.69,1.54,1.54,1.54,1.54-.69,1.54-1.54ZM32.23,84.8c.41,1.06,2.99,4.92,3.16,4.17.19-.82.55-2.14.79-2.88s-4.2-1.94-3.95-1.3ZM61.12,91.48c-2.65-2.22-9.24-5.67-10.74-5.19.77,4.2,1.47,9,2.8,8.45l7.94-3.27ZM99.83,96.37c1.81.2,1.21-5.04.28-6.59-.74-1.24-4.75-4.12-5.32-2.85l-3.24,7.22c-.63,1.4,5.24,1.88,8.28,2.22ZM71.28,93.32c0-.85-.69-1.54-1.54-1.54s-1.54.69-1.54,1.54.69,1.54,1.54,1.54,1.54-.69,1.54-1.54ZM83.04,96.6c0-2.09-1.69-3.78-3.78-3.78s-3.78,1.69-3.78,3.78,1.69,3.78,3.78,3.78,3.78-1.69,3.78-3.78ZM112.5,91.47c.3,1.65.89,4.47,1.7,3.54l2.74-3.16c.52-.6-4.58-1.14-4.44-.38ZM141.9,91.37c-.88,1.2-3.29,4.39-2.19,4.33l5.36-.26c.7-.03.47-1.17.05-1.78s-2.76-2.91-3.23-2.29ZM159.85,92.11c0-.85-.69-1.54-1.54-1.54s-1.54.69-1.54,1.54.69,1.54,1.54,1.54,1.54-.69,1.54-1.54ZM206.26,98.69c-.99-3.65-2.06-6.94-3.76-7.87-1.7-.93-6.01,1.09-8.54,2.86l12.31,5.02ZM168.15,96.7c-1.45.29,1.91,4.79,3.27,4.26l3.86-1.5c.92-.36-.44-4.11-1.42-3.91l-5.72,1.15ZM53.41,106.32l-6.47-8.82-6.54,11.74,13.01-2.92ZM157.42,99.39c0-.85-.69-1.54-1.54-1.54s-1.54.69-1.54,1.54.69,1.54,1.54,1.54,1.54-.69,1.54-1.54ZM62.76,108.12l1-6.31c.17-1.04-2.92-.9-4.98-.97l3.98,7.28ZM100.15,101.57c-1.43.29,1.96,4.76,3.32,4.24l3.87-1.49c.89-.34-.47-4.11-1.41-3.92l-5.79,1.18ZM123.15,109.17c-.77-1.61-6.7-3.26-8.09-2.14s2.07,4.79,3.42,6.03c1.01.92,5.27-2.65,4.68-3.88ZM201.1,106.67c0-.85-.69-1.54-1.54-1.54s-1.54.69-1.54,1.54.69,1.54,1.54,1.54,1.54-.69,1.54-1.54ZM51.13,118.34l10.88-5.74c-1.96-1.93-9.46-3.39-10.84-1.45l-4.73,6.67c-.77,1.08-1.32,5.25-.12,5.81,1.2.55,4.46-.02,4.56-1.33.07-1,.27-4.06.26-3.96ZM104.13,186.12l-9.24-6.93c-1.88-1.41,2.96-9.09,4.9-7.78,2.17,1.47,4.52,6.53,6.58,6.07,7.83-1.74,19.74-12.94,25.73-1.61l7.65-8.59c1.6,3.46,3.3,7.29,4.08,9.39s-5.74,5.44-8.45,5.6l-31.33,1.89c18.6,6.74,39.69-7.17,49.67,17.46l16.58-8.24-7.75-12.94c31.51-28.69,20.02-33.78,17.37-52.36-.63-4.4-2.45-9.49-5.55-11.68-2.32-1.64-7.54,2.07-11.79,4.68l-7.25-7.54-24.24-2.16c-3.24-.29-9.8,8.67-12.54,6.87l-10.49-6.89c-3.15-2.07-11.15,2.05-15.46,2.73-13.15,2.08-27.84,7.09-30.72,20.59l-3.29,15.41c15.59,32.9.01,34.87,27.02,49.36-8.71,7.25-7.02,20.68.81,25.2,2.33-6.27,4.24-10.34,8.09-12.79l11.68,21.18c11.14.92,25.92-1.09,35-5.1-.14-6.21,1.33-13.7,5.86-12.64,2.66.62,7,3.43,10.59,6.09,2.94,2.18,8.35-8.42,6.09-11.36-2.06-2.69-8.65-4.13-13.13-4.07l-16.8-8.74-26.23,4.72c10.27,5.98,18.75.49,29.88,1.44-9.05,11.13-24.43,7.16-35.98,4.35-.31-1.83-.36-5.64-1.09-5.03l-4.17,3.51c-2.41,2.03-4.84,3.36-6.86,3.88-1.52.39-3.58-7.62-2.63-8.86,3.55-4.64,12.77-11.99,17.44-15.12ZM38.12,122.38c3.28-3.41,4.27-7.42,2.58-9.59-3.28,3.41-4.27,7.42-2.58,9.59ZM71.24,115.5c0-1.31-1.06-2.38-2.38-2.38s-2.38,1.06-2.38,2.38,1.06,2.38,2.38,2.38,2.38-1.06,2.38-2.38ZM197.35,121.14c.41,1.04,2.97,4.98,3.06,4.22.11-.88.44-2.03.71-2.8s-4.04-2.09-3.77-1.42ZM204.84,127.7l.41,6.95c.06.95,4-.42,4.02-1.37l.14-4.75c.03-.95-4.63-1.78-4.58-.83ZM197.39,138.69l-4.33-9.37-.07,7.56c-.01,1.31,4.28,2.05,4.4,1.81ZM40.35,132.91c.66,1.01,2.83,4.95,2.96,4.01.13-.99.63-2.87.91-3.77.26-.84-4.35-.98-3.87-.24ZM54.26,137.59c.29,1.61.9,4.48,1.68,3.58l2.76-3.21c.52-.6-4.57-1.14-4.43-.37ZM195.86,152.85c6.82-5.69,3.66-9.91-1.12-10.5l1.12,10.5ZM204.97,161.51c2.83-2.82,5.82-7,4.49-8.26l-4.96-4.69.47,12.95ZM54.21,167.82l-4.31-9.36-.08,7.53c-.01,1.29,4.3,2.07,4.39,1.83ZM201.86,168.21c-6.34-1.44-9.4-2.06-11.21-1.92-1.06.08-3.42,4.6-2.42,4.97,1.24.45,2.8,1.35,3.65.73.61-.44,2.22-1.36,2.82-1.72l7.16-2.05ZM170.44,179.53c.61,1.63,3.47,7.08,3.72,5.92l1.3-6.22c.17-.8-5.32-.51-5.02.3ZM185.3,178.86c.28,1.57.91,4.46,1.69,3.55l2.75-3.2c.52-.6-4.58-1.15-4.44-.34Z"/>
  <path d="M117.68,159.35c-6.41.22-11.99-.14-18.33-.36-5.92-.2-14.2,4.11-20.09.42-5.41-3.38-9.7-9.98-12.22-17.28l13.95-3.72-8.43-4.73c-1.58-.89,3.34-7.68,5.14-7.61,49.13,1.91,28.74,14.25,31.71,14.25h-12.44s20.72,19.03,20.72,19.03ZM103.4,150.54l-11.25-3.12c-2.01-.56-3.9,4.76-5.7,8.39l16.95-5.27Z"/>
  <path d="M166.14,154.24c-10.18,17.34-36.09-4.02-34.8-6.36l3.95-7.14-5.57-3.55c-1.69-1.08-2.13-6.99-.6-8.31,4.92-3.32,39.55-3.04,36.43,9.17-.33,1.27-2.03,2.99-3.35,2.86l-8.5-.84c4.59,2.58,15.59,8.78,12.43,14.17ZM157.74,151.73c0-2.25-1.83-4.08-4.08-4.08s-4.08,1.83-4.08,4.08,1.83,4.08,4.08,4.08,4.08-1.83,4.08-4.08Z"/>
  <path d="M125.52,216c1.1,3.85-2.13,11.38-4.75,11.37s-7.18-5.01-7.55-8.56c-.34-3.25,11.37-6.06,12.3-2.81Z"/>
</svg>