<?xml version="1.0" encoding="UTF-8"?>
<svg id="Calque_1" data-name="Calque 1" xmlns="http://www.w3.org/2000/svg" viewBox="0 0 256 256">
  <path d="M153.54,234.3c-4.01-2.97-5.71-7.56-6.85-13.68l-3.06,12.79c-9.83-8.46,4.58-28.2-4.55-44.35l-1.63,47.18-9.88-5.78c.82,3.63.65,9.63-3.53,10.97l-.74-22.48-.14-27.81-2.71,18.56-2.7,18.84-1.46,16.34-7.39-14.32c-5.33,7.27.07,13.81-8.45,18.55l-1.83-30.23c-.59-9.78,7.78-19.95-.57-29.88-3.57,5.1-1.36,59.65-7.79,44.97-2.33,3.84-3.04,5.13-5.76,8.67l-2.06-26.15c-1.2,4.08-2.15,8.48-2.78,13.15l-.68,5.01c-5.56,41.16-1.54-62.04-3.36-37.82-5.24,11.89-3.36,23.69-1.67,35.8l-9.86,5.22,4.28-46.66-6.81,39.68-2.53-19.42c-1.28,4.74-1.86,7.38-3.71,12.01-.72-8.08-.45-13.69.22-21.12l1.78-20.03,1.57-22.33c-6.31,19.58-3.47,40.44-12.89,61.48l-.23-20.2-2.56-18.12c-7.57,7.11.44,21.46-3.04,20.9l-4.78-.77-1.19,9.15c-1.65-1.05-3.21-3.98-3.2-5.94l.02-17.59-7.35,10.46,2.3-26.28-4.22,6.08c-6.79-6.62,15.87-41.87,18.54-55.58-5.3,4.7-7.09,9.01-14.17,11.01l13.4-18.09c3.86-14.75,9.52-27.55,17.14-40.85,3.72-6.49,6.43-14.77,11.34-22.08,14.22-21.18,29.46-32.38,53.01-39.56,10.19,8.5,33.69-4.79,34.21,12.21-9.01-7.09-19.4-8.86-27.61-2.12l14.56-1.96c1.14-.15,5.36.26,5.81,1.29l2.84,6.58c13.26-4.96,10.13-6.07,27.73,4.53,12.65,7.62,18.69,34.43,23.31,30.84l-3.25,2.53c30.17,39.3-1.26,16.56,22.81,37l-6.38.58c-1.23.11-1.54,3.97-.42,4.51,1.12.55,2.21.79,5.04,1.54,4.79,5.3,9.79,11.44,11.77,20.01l-13.56-11.57,12.05,17.54,1.31-7.66,4.33,5.94c.94,1.29-3.88,4.53-4.85,5.16,2.62,2,4.76,4.55,7.02,7.82l9.67,14.05c-6.68-.15-10.34-3.28-14.66-8.98-1.97,10.44,8.1,17.58,3.9,25.11l-10.26-14.82c3.15,10.53,7.48,19.33,12.78,30.32l-12.3-10.64,4.77,18.15,2.89,11c-8.8-9.35-13.32-17.46-18.75-27.14l2.65,10.9c-6.59-5.04-6.56-10-10.28-16.18,4.24,24.82,3.66,4.2,7.02,33.16.16,1.41-4.59,1.16-5.12-.26-1.17-3.16-2.76-10.82-4.45-13.82l-11.6-20.63c-6.87,4.04,1.08,5.23,2.62,7.85,7.72,13.09,11.39,28.25,11.73,42.72-3.64-8.12-7.42-13.84-13.06-17.59l-7.59-21.72c1.93,14.11,6.18,26.03,11.39,40.02-14.73-4.88-12.17-28.44-23.69-42.63,2.28,15.25,6.43,28.31,12.82,45.63l-13.56-5.08c-6.3-14.09-9.8-28.28-13.42-44.39-2.63,9.09-.43,18.12,2.99,27.54,5.75,15.81,11.02,18.32,9.07,19.03-.82.3-4.87-.47-5.25-1.27l-9.33-19.45c-3.44,4.4,5.38,32.42-1.17,27.57l-3.97-2.95ZM112.99,20.9c-6.44,2.95-11.48,6.51-17.06,9.92l-4.85,2.96c-3.34,2.04,6.17,6.03,21.91-12.89ZM125.72,24.41l-4.26-1.92c-.78-.35-.44,2.74-.6,2.96-6.63,1.91-12.36,4.03-17.67,6.91,2.88,2.53,3.47,3.16,4.04,2.55,8.74-9.34,7.33-.2,18.5-10.5ZM144.17,25.36c.4.91,2.07,3.82,2.2,3.24.15-.66.35-1.8.59-2.04.26-.26-3.01-1.72-2.79-1.21ZM124.62,32.03l-9.42.89c.61,3.79.39,4.25,1.56,5.22.94.78,5.91,2,6.19.82l1.67-6.93ZM129.33,34.61c3.09,1.57,6.19,1.64,7.94-1.91l-7.94,1.91ZM176.68,62.92c-2.46-15.48-12.05-25.92-26.18-30.72l18.71,19.84c2.14,4.11,4.84,8.59,7.46,10.88ZM158.05,47.97c-3.16-7.33-6.65-11.25-13.41-11.91l13.41,11.91ZM176.67,44.57c.14-4.14-3.83-7.98-7.07-6.4l7.07,6.4ZM110.36,42.18c1.03-.66,2.62-3.06,1.61-2.91-1.67.24-4.58.5-5.16,1.19l-3.04,3.6c-.4.47,2.18.92,2.71.59l3.89-2.46ZM93.37,45.93c-.12-2.09-.31-4.89-.21-4.29s-4.06,1.64-4.32,2.19l-7.17,14.96,11.7-12.86ZM139.55,42.23c-2.27-2.5-10.15-.08-12.66,2.13l-9.89-3.04,3.95,8.7c4.29-1.98,9.79-4.92,14.37-4.57,3.56.27,7.96,4.62,13.39,7.73-2.37-3.07-5.45-6.87-9.16-10.95ZM76.28,51.74c2.62-4.12,3.62-6.23,2.82-6.81l-2.82,6.81ZM74.45,95.81c15.61-15.83,4.5-14.79,23.18-36.98l9.98-11.86c-8.76,1.71-17.83,16.62-21.94,25.26l-11.22,23.58ZM190.74,60.67c-.58-7.04-4.26-15.4-12.31-12.75l12.31,12.75ZM139.35,101.81c8.88-1.87,18.9.58,20.21,9.41l-6.06-6.12c-4.93,9.19,1.11,16.49,9.74,21.36l5.7-10.73,4.29,6.05c.18-9.57-2.29-15.11-6.78-24.01l-1.69,8.85c-2.59-1.66-6.35-8.03-7.06-11.65,3.7-.15,7.19-.64,6.65-1.98l-9.2-9.98c-2.08,6.55-4.4,9.84-10.45,11.39-3.72.96-11.33-4.14-10.2-8.4.54-2.03,1.51-5.74,1.28-4.9l-10.43-.77c4.59-6.35,9.65-10.59,14.39-12.9l16.47,4.82c-3.55-6.67-18.18-21.44-22.36-21.58-1.64-.06-4.06,1.67-6.72,3.47-3.34,2.26-7.04.71-11.51-1.48-5.93-2.9-10.65,6.34-13.83,10.47-4.15,5.39-7.73,9.93-8.99,15.74,5.46-4.84,9.85-9.25,16.13-9.57l6.01-.31c1.01-.05,3.99,5.61,4.4,11.19.4,5.51-12.59-6.34-18.1,1.21l11.29.02,4.82,12.18c-5.22,5.94-5,10.4-5.8,18.32-4.09-4.53-8.33-11.33-12.78-7.99-4.97,3.73-1.31,12.81,2.32,16.47l16.17,16.28c15.58-2.6,29.07-13.71,30.13-30.84l-10.49,2.73c-2.65-6.44-5.69-11.54-4.99-18.93l7.41,12.2ZM158.87,55.76c0-.64-.52-1.16-1.16-1.16s-1.16.52-1.16,1.16.52,1.16,1.16,1.16,1.16-.52,1.16-1.16ZM70.41,84.39c6.88-7.04,14.24-14.44,16.48-25.48-6.03,8-10.99,15.68-16.48,25.48ZM67.22,64.92c0-.64-.52-1.16-1.16-1.16s-1.16.52-1.16,1.16.52,1.16,1.16,1.16,1.16-.52,1.16-1.16ZM180.24,66.43l-2.97,1.78,4.04,6.74,2.97-1.78-4.04-6.74ZM179.07,79.19l-5.17-10.84c-.19,1.49-.3,5.46.07,7.23.35,1.64,3.84,3.37,5.09,3.61ZM172.64,95.44c-1.28-9.8-2.91-14.56-7.9-20.44,1.96,7.87,4.64,14.45,7.9,20.44ZM56.12,90.23c2.62-4.12,3.62-6.23,2.82-6.81l-2.82,6.81ZM75.88,83.99l-13.21,18.22c-.58.8-.84,4.91-.13,4.39,5.69-4.17,9.59-12.48,13.34-22.61ZM148.77,88.94l.76-4.84c.11-.72-2.21-.61-3.77-.66l3,5.5ZM140.54,86.92c0-.64-.52-1.16-1.16-1.16s-1.16.52-1.16,1.16.52,1.16,1.16,1.16,1.16-.52,1.16-1.16ZM191.21,92.3l-.16-5.36c-.03-.99-2.24-1.11-3.86-1.2l4.02,6.57ZM109.23,98.32l-10.27-3.54c-1.97-.68-1.96-3.31-2.31-7.8-5.13.45-11.34,4.4-14.04,9.69l10.61,4.26c5.56-2.67,9.69-2.71,16.02-2.61ZM103.88,88.75c0-.64-.52-1.16-1.16-1.16s-1.16.52-1.16,1.16.52,1.16,1.16,1.16,1.16-.52,1.16-1.16ZM52.49,91.45l-4.19,10.8,3.85,1.49,4.19-10.8-3.85-1.49ZM57.95,103.48c2.37-3.44,4.1-6.81,5.23-11.14-2.39,3.44-4.13,6.83-5.23,11.14ZM204.53,95.24l2.71,4.41c.42.69.34-2.89.23-3.69-.07-.54-3.23-1.2-2.94-.72ZM90.08,103.27l-6.58,9.66.38-10.46c-5.02-.22-8.53,1.11-10.66,4.77-4.53,7.78,4.34,20.87,11.61,23.47l9.71-10.42-4.46-17.02ZM204.12,136.58c-2.04-11.74-6.08-22.25-12.42-30.86,2.8,12.23,7.25,21.45,12.42,30.86ZM210.19,108.91c0-.64-.52-1.16-1.16-1.16s-1.16.52-1.16,1.16.52,1.16,1.16,1.16,1.16-.52,1.16-1.16ZM64.34,112.95c2.89-1.94,5.1-3.3,4.41-3.24s-2.53-1.41-2.82-.79l-1.53,3.29c-.28,3.97-.37,5.16-.06.74ZM183.46,121.75c-.47-3.71-1.26-5.79-2.57-7.36l2.57,7.36ZM70.86,120.17c0-.99-.8-1.79-1.79-1.79s-1.79.8-1.79,1.79.8,1.79,1.79,1.79,1.79-.8,1.79-1.79ZM217.98,133.3c-1.31-4.94-3.93-9.73-7.26-13.46-.71,5.55-2.65,13.11,7.26,13.46ZM137.1,139.29l16.54-8.21c2.38-1.22-3.05-9.6-5.28-8.18-6.75,7.48-13.72,13.39-22.54,18.88.89.68,5.76,2.26,6.87,1.3l4.41-3.8ZM104.19,148.54l5.77-11.77c-2-2.61-7.71-8.42-11.68-11.58-3.2.05-8.6,7.55-6.15,8.68,4.43,1.5,8.03,2.03,9.78,3.96,1.93,2.11,2.53,8.92,2.27,10.72ZM71.28,143.6c3.81-6.72,2.75-10.48-.13-16.36-1.98,5.19-1.76,11.31.13,16.36ZM41.31,156.62c3.45-5.82,5.86-11.38,6.95-19.82-2.8,6.18-5.23,12.44-6.95,19.82ZM217.37,137.29c.32.8,2.19,3.72,2.37,3.17.2-.63.49-1.59.61-2.16.12-.57-3.16-1.47-2.98-1.01ZM62.04,145.54c.44-4.42.56-6.52.38-7.39l-.38,7.39ZM115.38,140.6c.48.69,2.5,3.69,2.14,3.11-.37-.59,1.53-2.78.84-2.86s-3.38-.83-2.98-.25ZM202.86,141.91c0-.64-.52-1.16-1.16-1.16s-1.16.52-1.16,1.16.52,1.16,1.16,1.16,1.16-.52,1.16-1.16ZM82.75,168.25c4.4-9.18,2.91-18.29,1.38-26.52l-1.38,26.52ZM229.82,148.9l-4.85-5.4c-.65,3.59,1.82,6.22,4.85,5.4ZM207.42,158.26c-.77-6-2.21-9.33-4.73-12.77,1.4,4.97,2.91,8.86,4.73,12.77ZM78.22,151.07c0-.64-.52-1.16-1.16-1.16s-1.16.52-1.16,1.16.52,1.16,1.16,1.16,1.16-.52,1.16-1.16ZM138.71,151.07c0-.64-.52-1.16-1.16-1.16s-1.16.52-1.16,1.16.52,1.16,1.16,1.16,1.16-.52,1.16-1.16ZM156.7,152.29c3.35-4.89.07-3.07-2.54-.3-1.1,4.65,2.56,9.65,6.35,9.63l-3.81-9.33ZM89.89,154.86q0-2.28,0,0,0,4.25,0,0ZM43.7,171.44c1.78-4.65,2.71-9.36,2.56-15.07-1.78,4.64-2.7,9.35-2.56,15.07ZM67.17,157.67l-1.55,4.93c-.27.85,2.22,1.06,3.02.65s1.82-2.24,1.42-3.05-2.63-3.38-2.9-2.52ZM189.26,178.87c.55-8.48-1.02-15.71-4.46-22.6-.55,8.47,1.01,15.72,4.46,22.6ZM175.85,184.67c1.33-9.8-1.04-18.2-3.96-26.47.19,9.5.87,18.39,3.96,26.47ZM181.63,165.74c-.47-3.71-1.26-5.79-2.57-7.36l2.57,7.36ZM146.03,166.31c-.79-2.53-1.57-6.11-3.03-6-1.17.09-4.68.37-4.1.32,2.4,2.21,4.86,4.61,5.14,6.36l.67,4.25c.11.72,2.84-.05,2.62-.76l-1.3-4.17ZM31.38,184.46c3.46-8.22,5.94-15.21,7.94-22.52-6.04,6.55-8.67,14.14-7.94,22.52ZM89.91,173.21c.67-4.27.65-8.01-.06-11.29-.67,4.27-.65,8.01.06,11.29ZM112.74,188.77c.37,5.97.22,7.74,1.78,10.43,1.43-12.51,1.97-23.81,2.07-35.24-4.98-2.87-4.17-.64-2.63,2.71l.25,18.98-8.84-.98.62,11.74,6.74-7.63ZM128.28,172.73l2.92-5.91c.43-.86-2.17-2.02-3.91-3.05l1,8.96ZM201.02,167.57c0-.64-.52-1.16-1.16-1.16s-1.16.52-1.16,1.16.52,1.16,1.16,1.16,1.16-.52,1.16-1.16ZM80.27,191.41c2.61-8.87,1.97-17.49-4.01-24.27l4.01,24.27ZM136.87,169.4c0-.64-.52-1.16-1.16-1.16s-1.16.52-1.16,1.16.52,1.16,1.16,1.16,1.16-.52,1.16-1.16ZM161.08,168.95c-.16-1.98-.1-1.26.07.8.42,4.23.39,3.96-.07-.8ZM62.42,195.25l4.29-26.32c-5.81,8.17-5.92,17.33-4.29,26.32ZM180.24,169.08l-2.97,1.78,4.04,6.74,2.97-1.78-4.04-6.74ZM52.56,173.07c0-.64-.52-1.16-1.16-1.16s-1.16.52-1.16,1.16.52,1.16,1.16,1.16,1.16-.52,1.16-1.16ZM89.78,202.59c1.88-9.46,2.87-20.04-4.46-27.5l2.77,8.03,1.69,19.47ZM109.7,182.2c.44-4.42.56-6.52.38-7.39l-.38,7.39ZM148.25,176.28c-.16-1.98-.1-1.26.07.8.42,4.23.39,3.96-.07-.8ZM50.73,178.57c0-.64-.52-1.16-1.16-1.16s-1.16.52-1.16,1.16.52,1.16,1.16,1.16,1.16-.52,1.16-1.16ZM69.43,181.78c-.16-1.98-.1-1.26.07.8.42,4.23.39,3.96-.07-.8ZM129.86,187.7c.44-4.42.56-6.52.38-7.39l-.38,7.39ZM60.58,206.19c.47-3.61.45-6.82-.05-9.42-.47,3.61-.45,6.82.05,9.42ZM178.48,223.62l-6.5-19.61c.22,7.84,2.67,14.27,6.5,19.61ZM111.44,220.67c1.63-6.65,1.68-10.84.14-14.78l-.14,14.78ZM152.23,224.55c.8-4.92.79-9.21-.06-13.14-.8,4.92-.79,9.21.06,13.14ZM133.9,225l-1.67-8.13c-1.72,2.13-1.84,6.38,1.67,8.13Z"/>
  <path d="M179.31,30.44c-10.05,1.14-2.57-5.79-22.17-8.37,6.85-9.8,25.28,8.02,22.17,8.37Z"/>
</svg>