<?xml version="1.0" encoding="UTF-8"?>
<svg id="Calque_1" data-name="Calque 1" xmlns="http://www.w3.org/2000/svg" viewBox="0 0 256 256">
  <path d="M158.64,214c-19.27,34.94-18.48,13.14-41.77,26.51-25.21-18.06-25.95-14.95-42.71-44.97l-17.48,48.01c-17.67-5.25-5.66-8.65-14.86-25.91l3.85-24.76-13.71,19.22c-7.94-8.01,13.27-22.39,6.26-39.31l-5.15,9.79c-5.82-12.58,2.33-21.11,4.08-31.48l6.46-38.3c.17-.98.19-4.67.21-5.67.02-.88-2.07-.69-2.57.06l-2.93,4.39c-.71-13.63,8.65-33.46,18.65-50.44l-11.49,9.64c2.24-5.79,10.07-13.56,15.29-19.21,1.54-1.67,3.94-6.64,5.81-8.03l14.66-10.91c-6.48,1.06-9.52,2.13-12.14,1.01l23.91-10.09-3.83-3.24c-.55-.47,14.96-.09,25.05-1.36,1.5-.19,5.43,3.05,6.87,2.58l6.19-2.01c4.88-1.59,8.46-3.44,15.35-7.08l-5.22,12.02c16.3-1.78,28.91,2.83,44.32,4.09l-13.08,6.51c4.75,2.04,8.94,2.57,15.87,2.89.55-1.18-1.62,3.44-2.38,5.05,2.01,1.44,6.74,4.97,8.4,7.28,1.66,2.31-1.04,9.2-.34,12.01,1.79,7.17,12.19,11.41,20.36,14.8-4.32,1.84-9.98,1.5-15.5.64l17.92,18.25c1.73,1.76,2.69,9.78.4,10.73-2.29.94-6.05-.7-10.68-2.23l10.36,18.37c1.04,6.56,2.78,9.35,8.93,15.14l-11.82.17c.99,8.48,3.63,14.41,10.56,15.71-1.65,2.71-3.11,8.49-1.21,10.75,3.27,3.92,7.29,5.22,12.4,5.76.12.92-3.15,5.95-4.87,4.97l-9.56-5.44c-7.81,10.24,16.76,32.59,3.98,50.6l-6.26-13.54-1.45,16.52c-16.89-27.04-11.19-6.56-21-25.16l-1.91,8.99-11.02-37.64c-6.88,16.65-13.03,29.54-21.19,44.32ZM80.06,50.77c-5.84-.57-6.17-.61-.98-.09,2.52.22,3.41.29.98.09ZM145.1,51.54c0-.79-.64-1.43-1.43-1.43s-1.43.64-1.43,1.43.64,1.43,1.43,1.43,1.43-.64,1.43-1.43ZM182.71,60.46c.26-5.19-3.36-11.21-8.59-11.18l8.59,11.18ZM89.94,57.17c0-.79-.64-1.43-1.43-1.43s-1.43.64-1.43,1.43.64,1.43,1.43,1.43,1.43-.64,1.43-1.43ZM72.61,154.59l12.33,12.63-11.7,9.83c6.32,12.74,14.09,27.06,22.11,39.43l2.27-8.42c.38-1.4,5.7.39,6.78,1.24l11.12,8.74c8.07,2.58,13.99,6.2,21.39,10.74,5.83,1.49,12.03-10.63,13.88-16.3l5.55-12.57c1.64-3.72,6.88-8.52,8.57-14.17l12.62-42.22,5.08-8.87-4.93-21.96c-2.24-9.95-12.11-22.38-18.11-29.76-12.96-5.55-21.22-12.07-23.89-26.18-2.04,1.21-4.39,3.19-3.48,4.28l3.85,4.61c-10.09,2.08-19.03,4.35-27.52,10.06l14.07-2.74c2.65-.52,7.34,2.78,8.68,5.16,1.11,1.98.29,9.01-1.8,10.15-7.76,4.23-21.36,1.6-30.09-5.53l-16.31,17.92,24.88,2.38-5.05,15.4c-1.17,3.57-7.77,7.53-11.24,8.12-4.27.73-11.49-2.12-12.12-5.87l6.88-.35c1.1-.06,1.32-2.67.77-3.63s-4.07-2.04-5.29-2.01l-10.87.28c-2.02.05-1.9,3.93-3.16,7.16-25.53,35.21-10.24,39.16-10.25,34.65v-4.43s.01-6.29.01-6.29c0-.92,3.56,1.32,4.01,2.12l3.1,5.49c.72,1.28,6.66-.27,7.85.95ZM156.97,56.67l2.36,3.95c.37.62,3.73-.54,3.27-1.09l-2.02-2.43c-.46-.55-3.98-1.04-3.61-.43ZM157.34,73.05l-14.77-12.8c1.48,6.75,6.44,13.96,14.77,12.8ZM91.55,66.86c-.85.23,1.79,3.58,2.42,2.86l3.45-3.96c.43-.49-3.71.51-5.87,1.1ZM111.77,65.75c.62.74,2.2,4.41,2.68,3.85l2.34-2.73c.46-.53.5-1.49-.2-1.56-.78-.08-5.27-.11-4.82.44ZM105.22,67.96l2.23,3.92c.35.62,3.84-.72,3.37-1.24l-2.06-2.27c-.48-.53-3.92-1.07-3.54-.41ZM66.3,71.81c0-.79-.64-1.43-1.43-1.43s-1.43.64-1.43,1.43.64,1.43,1.43,1.43,1.43-.64,1.43-1.43ZM178.75,77.73l3.29,5.22c.53.84.37-3.57.24-4.56-.08-.66-3.92-1.27-3.53-.66ZM183.22,95.89c-2.29-5.43-5.57-8.81-9.31-9.9,2.29,5.43,5.57,8.81,9.31,9.9ZM45.26,100.22c5.92-2.93,8.81-7.25,8.89-13.21l-8.89,13.21ZM64.05,110.08c0-.79-.64-1.43-1.43-1.43s-1.43.64-1.43,1.43.64,1.43,1.43,1.43,1.43-.64,1.43-1.43ZM205.69,120.35l3.34,5.38c.53.85.4-3.56.27-4.55-.09-.66-3.95-1.38-3.61-.83ZM48.29,123.59c0-.79-.64-1.43-1.43-1.43s-1.43.64-1.43,1.43.64,1.43,1.43,1.43,1.43-.64,1.43-1.43ZM189.36,134.84l-3.06-11.37c-1.04,4.3.4,8.24,3.06,11.37ZM44.1,134.81l.59-6.66-.59,6.66ZM198.58,154.77l-5.75-15.58c-.89,5.99,1.89,11.09,5.75,15.58ZM186.09,145.55c-.2-2.43-.13-1.54.09.98.52,5.2.48,4.86-.09-.98ZM58.06,166.58l2.14,6.6c.3.94,3.92-.28,3.63-1.22l-1.36-4.42c-.5-1.61-2.63-7.08-3.73-5.9l-4.14,4.44c-2.21,2.37-4.01,3.47-3.36,4.74s2.43,4.7,2.22,4.29l4.62-8.53ZM204.03,179.84c.54-5.43.68-8.01.46-9.08l-.46,9.08ZM210.09,173.12h-2.25v25.89h2.25v-25.89ZM73.38,192.48l-8.15-14.66-2.63,16.95,10.78-2.29Z"/>
  <path d="M146.63,127.46l-.89-7.48-7.08-2.88c-2.29-.93-1.68-6.75-1.26-11.08,11.49-1.73,23.95-1.83,35.5-.02l-8.99,16.81c-2.14,4-17,7.05-17.29,4.64Z"/>
  <path d="M143.65,197.71c-2.73,6.21-42,4-43.78-1.68,1.92-9.38,15.39-15.74,23.72-12.59,6.66,2.53,12.27,7.73,20.07,14.26ZM126.94,192.23c-4.44-.57-8.37-.56-11.57.06,4.44.57,8.37.56,11.57-.06Z"/>
  <path d="M137.97,167.13c-9.34,7.98-25.48,1.41-31.43-4.29-1-.95.98-5.47,2.32-5.17,9.78,2.2,8.78,11.71,21.68,4.48l-12.73-28.17c-.82-2.86-1.53-4.48-.75-5.78.78-1.3,5.09-3.75,6.17-2.67,6.89,6.91-2.66,4.88,7.28,23.56,2.8,5.26,5.65,11.83,7.46,18.04Z"/>
  <path d="M157.17,97.19c-1.3,2.62-9.67.38-10.89-2.29-1.34-2.93,1.31-10.68,4.67-10.64,5.42.06,8.25,8.83,6.22,12.93Z"/>
  <circle cx="96.94" cy="136.77" r="4.97"/>
  <path d="M157.48,143.35c-.01-.99,4.52-.69,4.48.32l-.15,4.27c-.04,1.01-1.97.93-3.06,1.03-1,.09-1.25-4.24-1.27-5.62Z"/>
  <circle cx="160.56" cy="173.12" r="2.51"/>
</svg>