<?xml version="1.0" encoding="UTF-8"?>
<svg id="Calque_1" data-name="Calque 1" xmlns="http://www.w3.org/2000/svg" viewBox="0 0 256 256">
  <path d="M119.16,252.68c-2.86,1.88-8.98-8.93-10.08-8.07l-3.75,2.96-3.4,2.68c-.66.52-2.29-.27-2.08-1.06l1.09-4.05,1.46-5.21c.25-.9-2.91-.7-3.79-.94l-5.52-4.18c-1.39-1.05-5.38,2.46-7.93,3.3-24.52-39.01-6.29-32.58-26.36-72.06-4.92-9.68-7.44-19.98-6.89-30.24-13.5-10.69-17.03-26.22-14.34-42.89l1.49-9.27c.33-2.04,7.43.38,9.16-.76,9.83-6.51,1.11-20.58,13.48-28.68l-2.25-5.93c-.55-1.44,2.51-4.36,3.8-5.72l14.92-15.84c4.49-4.76,15.02-11.02,21.58-13.8l17.72-7.5c17.34-7.34,36.92,5.37,40.96,5.57,13.53.65,29.54,2.58,34.76,15.55,14.46,35.93,12.45,12.26,11.95,57.68,21.52-2.85,13.93,49.46,6.77,59.75l-16.06,2.79c3.9,38.85-10,43.98-19.45,79.93-6.65-1.9-8.18,6.35-11.72,8.41-8.53,4.98-16.98,9.52-23.49,15.73-.3-1.8-3.09-8.45-5.53-9.44-4.28-1.72-8.51,6.09-16.5,11.33ZM129.23,11.71c0-.87-.7-1.57-1.57-1.57s-1.57.7-1.57,1.57.7,1.57,1.57,1.57,1.57-.7,1.57-1.57ZM162.42,17.98l-17.73,5.45c2.05,2.18,3.94,4.14,3.88,4.2s2.87-1.92,3.66-2.24l10.2-7.41ZM115.92,21.99c-6.41-.63-6.78-.66-1.07-.1,2.77.24,3.74.32,1.07.1ZM120.35,29.1c4.11-1.29.22-.07-4.11,1.29-5.28,2.9-1.98,1.64,4.11-1.29ZM135.68,31.87c-6.41-.63-6.78-.66-1.07-.1,2.77.24,3.74.32,1.07.1ZM168.76,31.48c0-.87-.7-1.57-1.57-1.57s-1.57.7-1.57,1.57.7,1.57,1.57,1.57,1.57-.7,1.57-1.57ZM145.03,36.17c-1.43.29,1.99,4.83,3.38,4.3l3.92-1.49c.94-.36-.43-4.21-1.4-4.01l-5.9,1.2ZM160.11,40.13c0-.87-.7-1.57-1.57-1.57s-1.57.7-1.57,1.57.7,1.57,1.57,1.57,1.57-.7,1.57-1.57ZM180.82,66.16c-2.01.96-4.85,3.18-5.87,2.09l-4.34-4.67c-2.5-2.69-9.33-3.29-16.3-3.56l6.69,20.03,23.78,4.07c-7.15,4.91-9.99,4.78-17.11,6.38-.37-.19,2.73,5.49,4.11,4.98l7.26-2.69,5.95,14.4-11.36,3.83c-1.07,10.14,7,18.58-2.47,28.42l-4.79-31.53c-10.53,5.36-19.07,3.58-22.94-5.58l18.14-6.99c-2.44-10.07-22.31,5.46-22.34-3,0-2.11.4-5,1.06-7.86.42-1.85,4.71.12,13.5-2.36.75-.21-5.97-25.59-17.21-28.55-2.28,1.3-5.96,4.25-7.03,3.03l-5.05-5.8c-1.64-1.88-10.83.5-11.18-2.02l-1.13-8.36c-3.12,6.27-6.17,11.96-7.83,13.71l-5.21-5.96c-.51-.59-1.67,1.64-1.94,2.4l-1.53,4.35-2.25,6.38c-.42,1.2-3.85-.34-4.14-1.54l-1.32-5.41c-1.03-5.12-1.49-5.35-1.59.11l-3.45,8.09c-.6,1.41-4.85.85-6.57,1.16-8.74,21.45-17.76,21.05-6.1,40.34-.86,11.89-2.5,26.82,1.06,38.74l7.13,23.85c16.65-10.36,9.92-35.44,23.64-37.39,3.03-.43,6.79,3.23,12.33,6.84-1.72-48.27,9.75-33.37,9.91-34.28-1.91,11.32-8.93,28.17,3.77,38.55,5.04-6,9.14-11.4,13.4-10.31,16.64,4.29,7.59,14.27,20.15,34.81,2.35,3.84,12.7,2.04,16.36-.21,3.47-2.13,3.97-11.07,5.07-15.8,5.62-24.13,11.55-46.54,8.87-71.83l-11.13-10.88ZM206.81,137.94c4.83-16.94,8.99-31.88.59-46.78l-5.48,38.53-1.36,8.3c-.2,1.2,3.61.47,6.24-.05ZM49.23,116.21c.76-6.63.3-13.81-1.27-22.01-4.13,6.58-6.2,15.04,1.27,22.01ZM176.18,103.14c0-.87-.7-1.57-1.57-1.57s-1.57.7-1.57,1.57.7,1.57,1.57,1.57,1.57-.7,1.57-1.57ZM100.74,137.87c.4,2.4,1.2,6.41,1.74,5.43.71-1.28,3.23-4.04,2.18-4.3-.7-.17-4.05-1.93-3.92-1.13ZM132.6,144.99c-6.26-2.05-8.88-2.81-12.2-3.47,2.45,5.48,7.88,6.08,12.2,3.47ZM122.79,156.22c-2.2-5.31-8.43-6.15-12.67-3.51l12.67,3.51ZM106.19,163.22c4.15,5.11,21.86,5.33,27.62,3.19,11.47-4.27-25.98-8.13-27.62-3.19ZM152.7,163.68c0-.87-.7-1.57-1.57-1.57s-1.57.7-1.57,1.57.7,1.57,1.57,1.57,1.57-.7,1.57-1.57ZM143.76,181.19c1.08-6.64,1.07-12.41-.08-17.72-1.08,6.64-1.07,12.41.08,17.72ZM64.42,167.07c.51.74,2.74,4.9,2.96,4l.94-3.89c.22-.91-4.44-.92-3.9-.12ZM83.51,178.51c0-.87-.7-1.57-1.57-1.57s-1.57.7-1.57,1.57.7,1.57,1.57,1.57,1.57-.7,1.57-1.57ZM95.87,180.98c0-.87-.7-1.57-1.57-1.57s-1.57.7-1.57,1.57.7,1.57,1.57,1.57,1.57-.7,1.57-1.57ZM158.53,196.81l-5.34-18.31-.77,20.83c-.04,1.06,4.84,3.61,4.91,2.55.05-.71,1.44-4.26,1.2-5.08ZM85.98,188.4c0-.87-.7-1.57-1.57-1.57s-1.57.7-1.57,1.57.7,1.57,1.57,1.57,1.57-.7,1.57-1.57ZM98.34,190.87c0-.87-.7-1.57-1.57-1.57s-1.57.7-1.57,1.57.7,1.57,1.57,1.57,1.57-.7,1.57-1.57ZM120.01,194.83l-12.32-3.94c3.34,3.39,8,5.16,12.32,3.94ZM132.91,196.43c.29,1.61.92,4.53,1.72,3.61l2.8-3.25c.53-.61-4.66-1.19-4.51-.35ZM79.95,198.19l-3.8.76,3.23,16.16,3.8-.76-3.23-16.16ZM108.84,211.47c.23-5.98.13-8.99-1.54-13.84-2.34.91-6.02,5.66-4.79,6.99l6.33,6.85ZM121.36,213.25c2.6-4.18,1.82-10.18-3.5-12.58l3.5,12.58ZM142.82,208.17c0-.87-.7-1.57-1.57-1.57s-1.57.7-1.57,1.57.7,1.57,1.57,1.57,1.57-.7,1.57-1.57ZM93.4,210.64c0-.87-.7-1.57-1.57-1.57s-1.57.7-1.57,1.57.7,1.57,1.57,1.57,1.57-.7,1.57-1.57ZM132.93,220.52c0-.87-.7-1.57-1.57-1.57s-1.57.7-1.57,1.57.7,1.57,1.57,1.57,1.57-.7,1.57-1.57ZM89.17,221.21c.65.96,3.16,5.09,2.84,4.22s2.05-3.76,1.12-3.86-4.47-1.12-3.96-.36ZM151.09,222.53l-3.58,7.92,6.43,2.9,3.58-7.92-6.43-2.9ZM115.4,241.06c-1.4.15,2.07,5.59,3.06,4.59l2.87-2.9c.62-.62,1.09-2.44.23-2.35l-6.17.66Z"/>
  <path d="M96.31,89.53l10.43,9.5c-9.37,10.4-25.05,10.15-32.24-3.41,2.6-2.41,9.43-6.38,13.62-8.52l-12.56-6.99c6.87-5.28,35.44.77,39.41,5.63,1.48,1.82-2.6,7.88-4.83,7.31l-13.83-3.52Z"/>
</svg>