<?xml version="1.0" encoding="UTF-8"?>
<svg id="Calque_1" data-name="Calque 1" xmlns="http://www.w3.org/2000/svg" viewBox="0 0 256 256">
  <path d="M113.59,243c-9.13.79-23.98-10.24-29.16-18.11-7.52-11.42-16.17-22.24-24.4-31.76,8.03-21.81-6.29-16.78-6.87-40.04-33.06-9.82-8.07-44.58-8.44-72.46,7.91-3.29,9.99-10.2,12.79-18.93,9.55-29.75,40.29-48.37,69.58-52.74,28.34-4.22,51.05,7.56,62.63,32.5l11.86,25.54,14.23,31.94c4.99,11.21,5.68,15.21,1.25,28.02-3.59,10.4-9.42,14.74-15.74,22.68-7.05,8.86-15.8,30.23-17.44,41.96-3.86,27.48-17.95,47.63-47.44,46.47-6-.24-16.26,4.34-22.84,4.91ZM118.06,25.63l20.16,27.17c-3.61-14.04-11.06-23.51-19.38-35.72-7.09,2.82-12.55,5.56-19.42,9.64,8.64,8.74,13.19,13.14,22.75,19.26,4.1-5.26-21.22-21.21-12.06-23.56,1.03-.26,3.54-.87,4.32-.15l3.64,3.38ZM128.84,17.52c.64.94,3.38,5.52,3.07,4.55-.31-.97,2.22-4.09,1.21-4.19-1.01-.1-4.85-1.21-4.28-.36ZM179.45,63.57c8.03-1.47.65-5.45-1.35-8.36l-24.97-37.22,9.5,20.16,16.83,25.42ZM95.78,32.84c0-1.65-1.34-2.99-2.99-2.99s-2.99,1.34-2.99,2.99,1.34,2.99,2.99,2.99,2.99-1.34,2.99-2.99ZM141.47,32.84c0-.94-.76-1.7-1.7-1.7s-1.7.76-1.7,1.7.76,1.7,1.7,1.7,1.7-.76,1.7-1.7ZM180.81,45.94c.17-5.61-3.14-11.95-7.93-12.15l7.93,12.15ZM154.89,38.21c0-.94-.76-1.7-1.7-1.7s-1.7.76-1.7,1.7.76,1.7,1.7,1.7,1.7-.76,1.7-1.7ZM85.95,52.36c-1.29-6.7-4.47-9.37-9.69-7.99l9.69,7.99ZM99.87,47.61c0-.94-.76-1.7-1.7-1.7s-1.7.76-1.7,1.7.76,1.7,1.7,1.7,1.7-.76,1.7-1.7ZM146.61,47.76l3.97,6.42c.63,1.01.48-4.23.32-5.42-.11-.79-4.7-1.67-4.29-1ZM160.02,50.23c.51,1.25,3.28,5.46,3.48,4.63.21-.88.61-2.36.89-3.16.28-.8-4.67-2.19-4.37-1.47ZM69.71,54.48c-1.7,2.33-4.06,4.85-2.91,5.32l6.07,2.45c3.2,1.29-3.21-7.69-3.16-7.76ZM122.54,54.55c-11.42-2.31-8.89,4.76-7.29,12.66l7.29-12.66ZM96.74,71.12l9.59-14.64c-3.8,1.74-7.88,4-9.87,5.72-1.56,1.35-.38,7.07.29,8.91ZM127.33,66.63c1.29,3.57,11.63-2.79,11.02-6.67-2.44-3.5-12.78,1.8-11.02,6.67ZM149.53,67.74c0-.94-.76-1.7-1.7-1.7s-1.7.76-1.7,1.7.76,1.7,1.7,1.7,1.7-.76,1.7-1.7ZM163.79,65.36c-1.72,2.04-4.06,4.18-3.06,4.95.67.51,3.49,2.67,3.53,2.55.68-2.19,2.34-10.83-.47-7.5ZM79.95,67.95c-.17,1.44-.53,8.56.51,7.59l2.89-2.68c.7-.65,1.35-2.83,1.65-3.75.29-.92-4.94-2.11-5.05-1.16ZM180.4,71.77c0-.94-.76-1.7-1.7-1.7s-1.7.76-1.7,1.7.76,1.7,1.7,1.7,1.7-.76,1.7-1.7ZM133.71,85.64c2.83,2.8,5.09,6.23,6.98,9.88,5.02-3.61,13.89-6.11,21.04-4.44,18.1,4.23,10.39,13.15,26.81,22.08,20.08,10.91,8.89-31.18-50.24-36.69-9.26-.86-22.96-2.69-30.7-1.13-20.44,4.11-37.77,15.55-53.16,30.06,16.22,3.02,25.13-15.57,48.56-14.04l11.58,15.18,21.21,2.31-2.08-23.21ZM187.82,76l-4.14,6.39c-.45.69,2.47.72,3.09.17.67-.6,2.12-2.04,2.67-2.66.55-.62-1.2-4.54-1.63-3.89ZM66.31,83.85c0-.94-.76-1.7-1.7-1.7s-1.7.76-1.7,1.7.76,1.7,1.7,1.7,1.7-.76,1.7-1.7ZM198.69,84.86c3.65.38-2.22-.23-3.65-.36-1.07-.1.48,4.85.81,6.79.15.87-.42,2,2.83-6.42ZM144.39,166.42l18.05,29.7c37.64-35.25,12.49-43.27,20.98-56.69l12.33-19.49-17.33-3.45c-5.52,10.82-11.34,15.21-19.87,15.82-10.22.73-16.08-2.7-22.45-10.88-4.11-5.27-15.82-8.33-19.51-.02-7.13,16.05,15.18,35.34-7.45,43.26l-.56-32.28c-11.27,3.21-20.11,4.55-27.51-.26-6-3.9-6.91-11.52-8.4-22.9l-19.09,6.15,5.56,26c1.28,5.97,2.65,14,4.24,19.03l13.21,41.84c14.78-15.63,2.95-27.25,15.11-37.96l2.6,16.81,12.79-7.55c-8.28-4.43-13.1-6.66-11.28-15.24,2.61-.37,9.3,1.75,11.1,3.92,1.55,1.86,2.3,6.44,3.2,10.92l20.08.21c2.04.02,7.54,2.78,8.68,1.12l5.55-8.05ZM202.16,140.84c5.59-13.31,8.33-20.44,10.94-31.72-3.74-1.62-19.34,36.58-10.94,31.72ZM47.46,143.64c4.89-8.31,2.76-17.29-6.07-22.3l6.07,22.3ZM98.86,200.72l19.88,16.64,24.44-5.82c4.23-8.06,6.38-18.07,1.75-22.31-5.73-5.25-14.14-5.61-19.7-2.3l11.27,1.19c2.34.25,4.66,5.73,5.07,7.38l-24.73-.14c-6.99-.04-12.45.66-17.97,5.36ZM121.34,187.2c0-.94-.76-1.7-1.7-1.7s-1.7.76-1.7,1.7.76,1.7,1.7,1.7,1.7-.76,1.7-1.7ZM94.71,189.8c6.29-.35.22-.01-2.79.16-1.79,6.92-1.74,9.49,2.79-.16ZM167.96,206.47c5.37-1.53,6.36-5.61,4.18-10.03l-4.18,10.03ZM105.23,214.05c0-.94-.76-1.7-1.7-1.7s-1.7.76-1.7,1.7.76,1.7,1.7,1.7,1.7-.76,1.7-1.7Z"/>
  <path d="M133.52,170.62l-4.65-7.38,10.45-13.14c2.68,7.76.28,14.19-5.8,20.52Z"/>
  <path d="M125.83,94.97l-7.02-13.66c8.75-.15,10.75,8.76,7.02,13.66Z"/>
  <path d="M116.54,96.78c-4.44,1.2-8.05-2.66-7.1-7.91l7.1,7.91Z"/>
</svg>