<?xml version="1.0" encoding="UTF-8"?>
<svg id="Calque_1" data-name="Calque 1" xmlns="http://www.w3.org/2000/svg" viewBox="0 0 256 256">
  <path d="M111.21,234.69c-27.21-19.56-41.68-46.47-47.68-79.96-13.17,13.14,4.9,44.85-22.31,33.97,7.78-13.03,5.22-27.2,5.49-42.66.66-37.86-9.36-18.73,1.31-55.91,2.24-7.82,5.78-13.2,12.6-21.87-15.7-.93-34.11-5.65-40.89-21.44,21.26.53,61.93.07,74.96-12.77l-12.11-15.29c4.67-16.24,16.75,5.66,27.84,5.56,8.72-14.01,20.33-13.18,33.34-9.57,9.58,2.66,24.31,1.85,25.18,16.79,13.97,3.58,20.45,17.02,26.53,30.46l9.95,22.01c6.65-11.6,17.2-29.14,26.65-35.87,5.59,8.57,5.05,15.78,1.61,24.97-5.38,14.36-7.78,34.8-16.04,46.33-9.39,13.11-13.45,20.15-12.04,36.28,1.13,12.86-14.06,26.12-19.6,36.34-9.99,18.41-21.34,32.11-37.62,42-19.83,12.05-3.9,3.74-37.17.62ZM105.87,69.15c2.54-4.94.88-12.13,5.9-14.07l4.5,34.89c12.26-14.18,17.45-27.01,25.82-44.05,1.67,15.87,3.3,25.52,13.56,33.29l22.47,17c6.25,4.73,15.04,6.88,23.9,4.94-1.08-16.08-18.92-62.3-34.69-65.47-4.28,2.76-10.2,8.47-14.42,4.13.94-2.32,5.46-6.92,9.04-10.28-4.29-13.96-40.64-6.97-48.35-1.36-32.87,23.88-35.31,21.56-80.79,25.34,28.94,17.59,21.61.99,46.08.51l-17.44,22.52c-9.24,11.93-15.77,35.71-8.03,52.08,7.67-3.34,12.77-8.36,18.2-15.4,14.54-18.83,21.15-18.59,34.26-44.07ZM203.69,123.29c9.46-3.71,10.24-7.71,12.57-14.83l9.37-28.65c.55-1.67-.71-8.18-2.24-7.88l-4.8.94c-3.82,7.29-6.91,11.77-11.29,17.19l-.12,13.8-3.49,19.43ZM137.6,233.22l15.86-9.65c2.93-1.78,7.13-8.63,10.23-10.93,15.77-11.72,8.33-17.68,28.54-38.42-.64-9.93-3.17-21.29-2.58-30.76l2.09-33.74-18.57-9.6-10.83,14.88c4.7.85,9.86.21,10.3,2.94l2.25,13.94c-6.87,3.47-18.51,6.39-27.21,5.92-3.53-.52-.65-11.24,1.79-13.02l-14.26-3.74c15.77-5.84,22.17-12.93,29.7-26.81-9.2-8.45-17.94-15.18-28.41-22.09l-16.93,23.23c-.57.78-.89,4.29-.99,5.25-.51,5.2-11.51-9.03-10.77-23.04l-17.55,25.86,27.74,19.55-12.99,2.47c.84.85,6.27,5.11,5.21,7.16l-4.88,9.48-20.39-7.97c-4.74-1.85-.52-14.44,2.82-18.63-5.31-3.15-12.13,1.13-16.77,6.9-4.98,6.2-7.65,11.94-5.36,19.81l11.08,38.14c5.59,19.23,19.25,36.35,35.95,47.18,5.49,2.95,19.3,5.08,24.92,5.69ZM165.76,121.33l-9.51,3.91,2.93,7.13,9.51-3.91-2.93-7.13ZM200.63,160.29l-1.92-29.51c-3.9,9.2-9.79,22.39,1.92,29.51ZM54.64,156.93c5.46-10.26,5.87-14.79,3.64-21.1-8.49,5.9-9,15.25-3.64,21.1Z"/>
  <path d="M139.38,163.57c.57,8.03-18.22,10.95-27.05,4.26-4.1-3.11-4.54-9.34-1.16-14.71l7.31,12.19,2.61-34.1c.12-1.53,2.32-4.64,3.36-5.45,1.05-.82,2.91,3.01,2.83,4.59l-1.8,34.8,13.91-1.58Z"/>
  <path d="M151.26,196.39c-7.37,6.04-48.96,6.69-42.59-3.49l24.38,3.05c4.31.14,12.13-6.43,16.57-9.04,1.38,2.57,3.18,8.23,1.64,9.49Z"/>
  <rect x="107.03" y="139.89" width="10.7" height="5.51" transform="translate(-68.64 128.24) rotate(-47.22)"/>
</svg>