<?xml version="1.0" encoding="UTF-8"?>
<svg id="Calque_1" data-name="Calque 1" xmlns="http://www.w3.org/2000/svg" viewBox="0 0 256 256">
  <path d="M118.61,236.03c-13.05-8.45-59.52-44.3-53.6-62.01-.84-1.09-7.07-2.89-9.1-4.04-21.27-12.09-32.01-46.98-17.35-53.85,3-1.41,8.26.92,13.31,3.22C60.3,60.5,90.44,5.92,155.55,6.54c33.26.32,55.55,21.96,63.27,53.47,4.08,16.64,4.43,32.43,4.7,50.02l.66,43.73c.39,25.83-9.3,44.85-21.9,65.96-10.31,17.28-21.84,29.48-45.55,22.37-9.26-2.78-28.1.43-38.13-6.06ZM120.55,231.43c20.59,3.64,37.45,5.78,57.12,5.01,7.46-.29,15.14-11.01,18.61-17.26,23.74-42.77,18.53-26.95,22.29-72.4,1.81-21.84-2.33-50.92-9.61-72.78-6.4-19.21,4.22-22.78-26.09-41.16-13.14,3.85-42.89,10.18-55.04,7.3l-3.38-13.19-32.21,21.78c2.72,9.27-.31,14.51-5.96,21.19l10.01,3.82c6.03,10.99-5.7,25.42-15.04,23.63-3.47-.67-4.03-10.06-4.44-14.22l-20.32,53.42c-6.09-.58-13.23-18.66-15.52-15.26-8.31,12.31,7.13,38.18,17.17,41.2,2.93.88,11.63.05,11.95,3,.61,5.6-.81,16.7,2.54,20.76,9.77,11.86,23.22,22.23,34.88,33.06l13.04,12.1ZM82.86,91.4c7.18-3.07,8.4-7.58,5.47-13.45l-5.47,13.45Z"/>
  <path d="M137.36,115.91c-15.9,17.8-39.26.49-38.8.05l4.46-4.25,13.14-12.28-21.58,7.34c-2.65.16-2.4-9.45.03-11.14,5.35-3.72,14.08-8.54,19.3-8.44l30.53.58c5.06,3.73,4.63,19.9.35,21.96l-19.06-5.71,3.59,9.21c.68,1.74,5.27,2.03,8.04,2.69ZM117.68,105.99c2.02-.93-4.56,2.09-6.63,3.04-1.53.7.58,5.36,2.35,6.81,1.46,1.19,7.78,2.58,8.36.78l2.03-6.3-5.94,4.56c-.68.53-4.3-.39-3.93-1.16l3.75-7.74Z"/>
  <path d="M201.1,112.95l2.35,1.14c10.24,4.96-24.9,9.71-27.01,1.69.04-1.9,3.95-9.13,2.07-9.12l-10.85.04c-1.77-3.03-2.61-10.9-3.73-22.25,2.73,5.25,2.4,6.78,4.73,7.62,12.17,4.38,19.2-8.4,30.28-4.07,5.5,2.15,8.32,7.47,8.26,15.62l-11.27-5.31,5.17,14.64ZM191.3,99.23c0-.85-.69-1.55-1.55-1.55s-1.55.69-1.55,1.55.69,1.55,1.55,1.55,1.55-.69,1.55-1.55ZM189.11,107.1c4.48,4.36,5.06,5.55,5.64,4.52l2.63-4.65c.41-.72-4.72-2.46-5.47-2.23l-8.48,2.58c-1.84.56-.57,6.64,1.35,6.76l7.35.47-4.76-3.43c-.74-.53,1.27-3.4,1.75-4.03Z"/>
  <path d="M178.62,197.36c-6.05,8.67-41.52,12.22-50.73-.92,4.73-5.77,13.58-8,22.7-7.5l26.38,1.45c1.76.1,2.66,5.53,1.65,6.98ZM162.61,199.87c-10.28-4.05-16.13-5.03-21.85,0h21.85ZM171.82,196.61c0-.85-.69-1.55-1.55-1.55s-1.55.69-1.55,1.55.69,1.55,1.55,1.55,1.55-.69,1.55-1.55Z"/>
  <path d="M161.16,167.23c.58-2.95,6.9-6.25,10.69-6.89-7.94-13.73-16.12-30.36-12.91-47.93,3.41,10.75,5.39,24.04,11.72,33.74,3.06,4.69,10.35,10.87,6.52,16.79-2.71,4.2-12.06,8.62-16.03,4.29Z"/>
  <path d="M136.56,171.23c-4.08,1.37-9.23-6.31-7.7-10.43,1.04-2.81,4.06-6.15,6.54-8.29l1.16,18.73Z"/>
  <path d="M148.11,170.53c-4.52,2.23-10.03-2.1-11.34-7.25,3.88-.71,7.12-1.35,8.35-.11s2.69,5.39,2.99,7.36Z"/>
  <path d="M155.89,171.75c-5.1.87-6.95,1.18,0,0,3.31-4.19,1.37-1.74,0,0Z"/>
</svg>