<?xml version="1.0" encoding="UTF-8"?>
<svg id="Calque_1" data-name="Calque 1" xmlns="http://www.w3.org/2000/svg" viewBox="0 0 256 256">
  <path d="M171.7,209.37c-16.43.09-8.52-4.12-29.3,10.78-7.76,5.57-12.64,9.71-22.33,6.34-13.19-4.58-25.21-11.61-34.55-21.16,1.24,5.14,1.98,10.59,1.61,13.99-5.47,1.91-7.74-15.53-7.86-6.6-.01,1.04-1.51,5.78-2.47,6.16l-12.79,5.15-14.99,6.02-1.48-12.08c-6.35,2.12-14.38,3.98-17.75.78-15.23-14.48,5.54-23.95-2.63-34.79,16.7-7.4,14.19-36.96,12.52-53.7-9.14-5.86-15.88-11.91-19.42-21.68-6.49-17.93-24.09-62.05-7.71-75.23,26.03-20.94,51.14,9.56,76.5,4.84,33.17-6.18,71.9-8.53,92.69,23.48,8.2,12.63,10.11,28.79,13.26,45.43,1.08,5.7,14.16,7.16,16.89,11.19,3.08,4.54,5.93,11.18,10.35,15.44,7.48,7.21,13.02,14.35,16.49,23.71,5.81,15.69,19.88,51.16-.8,60.92-10.28,4.85-26.82-1-37.2.98-3.63,1.72-11.65,9.34-14.37,6.46-5.75-6.07-8.74-8.37-17.4-7.13l2.73-9.32ZM12.35,56.7l26.55-24.42c-12.51,5-21.13,14.09-26.55,24.42ZM16.39,37.58c.29,1.56.88,4.33,1.63,3.46l2.69-3.11c.51-.59-4.47-1.14-4.32-.35ZM54.59,41.17c8.52-19.87-37.32,28.39-30.54,24.38l30.54-24.38ZM59.02,39.94c.27,1.51.87,4.36,1.63,3.47l2.69-3.12c.51-.59-4.45-1.05-4.32-.36ZM162.19,49.89c-13.79,0-52.84-15.01-55.18-7.32l60.91,13.39-5.74-6.06ZM71.62,42.41c-13.23,5.56-21.81,17.51-31.48,27.45,11.52-7.45,22.68-15.65,31.48-27.45ZM106.17,48.78c-2.11-5.09-8.08-5.9-12.15-3.37l12.15,3.37ZM95.56,51.32l-9.75-2.11c-.84-.18-.03.53,1.24,1.52l6.23,4.86c1.11.87,3.35-5.51,2.27-4.27ZM179.02,70.37c-1.56-4.61-4.77-7.73-8.21-8.43l-62.7-12.73c4.41,5.99,11.63,5.8,18.62,7.61l52.29,13.54ZM78.69,56.05l-3.72,5.67c-.39.6,2.19.68,2.73.19.58-.52,1.85-1.81,2.33-2.36s-.93-4.13-1.35-3.5ZM103.28,54.26l-19.7,17.25,2.99,3.41,19.7-17.25-2.99-3.41ZM14.02,61.32c.22,1.31.89,4.29,1.65,3.4l2.67-3.12c.51-.59-4.45-1.05-4.32-.28ZM182.59,81.68c.14.18,1.2-4.64-3.13-5.7l-41.02-10.1c-.4,3.63,3.32,5.1,7.73,5.97,8.98,1.76,37.21,10.89,36.41,9.84ZM135.42,71.26l-11.49,6.9,2.3,3.83,11.49-6.9-2.3-3.83ZM129.81,110.87l19.46-3.55c-6.35-9.37-28.03-19.38-38.86-22.11l-36.85-9.29c-4.14,16.83-4.81,35.06-.07,51.69,11.31-21.87,40.82-16.37,41.01-15.52l2.23,9.94c1.02,4.54,14.65,3.37,17.64,1.76l-4.56-12.92ZM40.96,77.26l-17.76,17.76,2.37,2.37,17.76-17.76-2.37-2.37ZM141.1,81.07c-.86-1.28-2.52-4.3-3.07-3.79l-3.43,3.2c-1.6,1.49-4.11,5.83-5.23,8.49l11.73-7.9ZM186.37,93.94c7.81-4.1-38.09-17.46-35.89-13.96,3.99,2.99,7.13,3.71,11.79,5.37l24.11,8.6ZM176.29,106.86c0-.83-.67-1.5-1.5-1.5s-1.5.67-1.5,1.5.67,1.5,1.5,1.5,1.5-.67,1.5-1.5ZM189.1,114.06c3.94-1.23.21-.06-3.94,1.23-5.06,2.78-1.9,1.57,3.94-1.23ZM203.15,122.82c-4.45-8.52-10.39-4.06-14.11-1.24l14.11,1.24ZM54.31,122.26c0-.83-.67-1.5-1.5-1.5s-1.5.67-1.5,1.5.67,1.5,1.5,1.5,1.5-.67,1.5-1.5ZM175.08,120.53c.22,1.34.9,4.31,1.65,3.43l2.67-3.13c.5-.59-4.45-1.07-4.32-.29ZM48.05,134.89c6.39-4.37,3.57-9.49-1.12-9.77l1.12,9.77ZM185.01,131.3c-.86.23,2,3.71,2.66,2.94l3.57-4.14c.45-.52-3.57.48-6.23,1.2ZM178.09,173.73c-12.4,6.39-25.3,12.26-36.41,19.63-5.98,3.96-5.08,12.92-15.94,10.98-8.92-1.59-12.51-3.16-19.49-16.46-.48-.91,15.72-21.41,32.89-7.75,12.85-5.77,24.74-12.36,38.82-15.86,7.13-1.77,9.64-14.95,3.35-20.05-5.86,2.7-13.55,5.89-19.85,7.9-29.9,9.56-30.02-29.02-37.11-19.39l1.52,17.01-7.48-13.29c-4.26,18.38-36.75,14.94-39.27,9.86l-6.19-12.47c.54,46.13,4.16,77.54,53.66,87.87,6.5-3.71,13.13-7.27,18.42-10.83,22.86-15.4,25.54-12.34,33.09-37.14ZM204.12,133.61c-1.05.29,1.77,3.84,2.43,3.07l3.64-4.2c.45-.52-3.89.53-6.07,1.13ZM196.4,139.46c.24,1.37.87,4.32,1.64,3.42l2.68-3.12c.51-.59-4.45-1.06-4.32-.31ZM58.1,167.55c.97-9.88-.31-18.21-3.06-26.59-2.06,10.01-1.05,18.46,3.06,26.59ZM66.59,165.13c2.26-4.75,4.64-13.71-3.17-14.8l3.17,14.8ZM229.54,153.38c0-1.28-1.04-2.32-2.32-2.32s-2.32,1.04-2.32,2.32,1.04,2.32,2.32,2.32,2.32-1.04,2.32-2.32ZM233.58,163.7c.14.15-2.34-2.43-3.39-3.53-9.53,6.42-17.4,11.14-25.1,19.31l28.5-15.78ZM237.87,173.18c0-.83-.67-1.5-1.5-1.5s-1.5.67-1.5,1.5.67,1.5,1.5,1.5,1.5-.67,1.5-1.5ZM56.4,188.48l-.89-15.64c-6.81,5.03-6.3,11.82.89,15.64ZM157,180.48l-.24-4.65-28.26,16.23,28.5-11.58ZM230.76,177.92c0-.83-.67-1.5-1.5-1.5s-1.5.67-1.5,1.5.67,1.5,1.5,1.5,1.5-.67,1.5-1.5ZM121.1,181.08c-1.22.35,2.55,4.24,3.32,3.21l3.26-4.34c.52-.69-3.98.39-6.58,1.12ZM189.05,191.02c5.09-2.11,5.9-8.08,3.37-12.15l-3.37,12.15ZM65.58,195.78l-.04-9.89-4.66,4.2c-.94.85,1.91,3.24,4.71,5.69ZM118.76,188.16c-1.22.35,2.47,4.29,3.24,3.28l3.32-4.35c.52-.69-4.2.39-6.56,1.07ZM179.73,186.4l-1.5,5.23c-.32,1.11,3.82,2.53,4.01,1.38l.77-4.58c.13-.76-3.07-2.77-3.28-2.04ZM216.55,187.4c0-.83-.67-1.5-1.5-1.5s-1.5.67-1.5,1.5.67,1.5,1.5,1.5,1.5-.67,1.5-1.5ZM37.73,190.95c0-.83-.67-1.5-1.5-1.5s-1.5.67-1.5,1.5.67,1.5,1.5,1.5,1.5-.67,1.5-1.5ZM49.11,200.72l-.27-10.36-3.38,5.36c-.64,1.02-.28,1.09,3.65,4.99ZM234.48,202.98c2.91-.18,8.04-1.46,8.94-3.74.99-2.53-1.53-9.96-3.03-8.31-.41,2.57.4,5.76-.81,6.96l-5.1,5.08ZM132.05,199.44c-6.87-2.02-9.92-2.81-14.24-3.6,4.55,3.81,9.87,5.18,14.24,3.6ZM72.9,207.14l-11.25-5.79,4.78,11.76,6.48-5.97ZM184.58,202.79c0-.83-.67-1.5-1.5-1.5s-1.5.67-1.5,1.5.67,1.5,1.5,1.5,1.5-.67,1.5-1.5ZM29.12,207.69q0-2.94,0,0,0,5.49,0,0ZM45.45,205.99c.6.91,2.66,4.7,2.87,3.83l.88-3.68c.21-.87-4.28-.94-3.75-.15ZM204.14,205.97c.62.94,2.63,4.73,2.86,3.92.36-1.29.75-2.86.92-3.73s-4.27-.94-3.77-.19ZM191.06,220.39l-1.32-11.72c-4.1,3.79-5.86,5.97-4.93,7.68,1.19,2.2,5.94,5.05,6.25,4.04Z"/>
  <rect x="104.73" y="153.67" width="5.56" height="8.81" transform="translate(-39.61 36) rotate(-16.1)"/>
  <path d="M122.74,158.66c1.03-.21,5.2,1.98,4.46,2.68-1.26,1.19-2.44,2.86-3.47,2.63l-4.51-1.01c-1.03-.23,2.48-4.09,3.52-4.3Z"/>
  <path d="M134.85,153.51c.23-.75,3.77,1.22,3.66,1.96l-.6,4.17c-.16,1.11-5.07.34-4.74-.72l1.68-5.4Z"/>
</svg>