<?xml version="1.0" encoding="UTF-8"?>
<svg id="Calque_1" data-name="Calque 1" xmlns="http://www.w3.org/2000/svg" viewBox="0 0 256 256">
  <path d="M138.88,236.23c-2.65-1.79-1.91,7.48-8.61,8.85-2,.41-4.51-4.05-5.15-6.17l-1.85-6.14c-.35-1.15-4.27,2.79-5.59,3.05-2.6.51-5.92-5.43-7.17-8.29l-10.09,3.19-12.79-29.42c-1.15-2.64-7.87-6.17-8.78-8.75-16.84-47.69-25.6-74.13-7.57-122.92,4.06-10.99,10.24-19.34,18.44-27.52,17.1-17.04,25.14,2.55,56.01-13.44,18.54,8.39,25.53,2.47,38.85,18.53,4.17,5.03,11.5,11.63,12.13,18.19l3.55,36.92c2.57,26.65-7.01,56.53-15.97,81.2-2.23,6.14-2.53,11.3-9.49,13.62-27.14,9.06-19.22,37.46-30.99,42.4l-4.94-3.32ZM148.6,152.16c7.98,14.09,12.05,27.96,9.32,43.43l16.65-7.88,1.14-13.69c6.32-5.35,8.34-12.74,10.38-20.64,6.27-24.21,6.82-46.67,3.69-71.6-1.79-14.24-5.4-33.08-21.43-38.24l-21.33-6.87c-29.47,17.28-49.89-13.81-69.22,40.59-15.16,42.66-6.81,74.66,10.58,116.01,5.04-21.74,10.19-38.86,27.03-50.72l-2.28-9.4c-.27-1.13,3.37-3.72,4.32-3.02.95.7,3.26,2.57,3.9,3.58l9.21,14.42c7.82-.26,10.98-19.62,17.6-14.01s-5.98,6.69.44,18.03ZM140.89,168.14c-.52-6.05-5.25-14.22-11.24-13.29-6.27.97-12.72,6.68-16.74,11.59,11.42-3.88,19.13-7.1,27.98,1.7ZM132.38,195.2l12.96-6.18c3.59-5.86-2.43-11.89-7.55-14.77-8.21-4.63-12.55-5.23-21.77-1.3-2.98,1.28-8.26,2.07-9.78,4.33-1.83,2.71-1.16,9.17.9,11.04l9.66,8.73,6.9-6.74c1.7-1.66,6.68,5.83,8.68,4.88Z"/>
  <path d="M91.57,116.34c-1.4-.73-5.96,1.5-7.44,2.04-1.78.64-4.58-4.79-3.67-6.44,4.01-7.28,10.44-14.07,17.64-17.08,9.93-4.15,22.72-.22,23.73,11.56.51,5.96-6.22,12.09-10.58,13.94-5.34,2.26-15.47-1.83-19.69-4.01ZM96.07,109.39c.28,3.24,7.33,6.74,11.5,5.43,3.08-.97,8.93-6.57,5.72-8.96l-6.59,6.87c-2.86,2.98-11.64-15.18-10.62-3.34Z"/>
  <path d="M179.31,109.48c2.34,3.8-14.27,15.53-23.09,15.05-5.14-.28-8.77-4.52-12.08-9.58l-8.68-8.89c11.14-14.1,34.43-11.92,43.85,3.41ZM165.69,108.94c-1,2.36-2.69,6.65-4.18,6.48-1.49-.16-5.53-1.29-6.34-2.41l-5.54-7.69c-2.86,5.05.33,10.65,3.91,12.29,3.69,1.68,9.97.33,12.34-2.29l4.16-4.61c.8-.89-3.86-2.96-4.36-1.77Z"/>
</svg>