<?xml version="1.0" encoding="UTF-8"?>
<svg id="Calque_1" data-name="Calque 1" xmlns="http://www.w3.org/2000/svg" viewBox="0 0 256 256">
  <path d="M153.95,216.06l-14.95,6.86c-3.75,1.72-10.29,2.98-15.39,4.7l-13.72-4.38c-14.34-4.57-24.58-9.51-33.13-21.16-7.08-9.64-13.75-19.25-18.97-30.2-1.94,1.13-7.69,4.5-10.25,4.26-3.96-.37-9.72-6.61-10.37-10.3-.79-4.44,1.9-10.7,2.76-15.53,2.45-13.68-.08-31.64,14.83-33.48,2.23-12.19,7.84-22.6,15.4-32.53,7.16-9.4,14.08-16.61,28.82-16.11l3.05-39.81,44.56,2.03-2.29,32.23,18.79,11.71c14.34,18.33,9.21,40.03,17.13,45.38,4,2.7,9.69,4.06,8.84,11.5l-2.05,17.84c4.81,5.13,8.28,15.1,2.94,20.6-2.43,2.51-9.81,2.24-14.43,2.06l-5.15,24.5c-2.9,13.76-15.26,11.06-16.42,19.82ZM122.38,168.73c-4.47,5.63-8.44,2.61-12.79-.06l5.15,8.07,14.42-11.38.33-9.62c2.87,1.68,6.31,5.41,5.82,7.39s-2.54,4.5-5.35,7.98l14.21,10.07c9.46-4.03,22.64-10.31,24.58-20.9,1.57-8.53.77-19.43.2-27.93l-9.16-17.94,9.71-1.61c1.56-7.85-.73-17.33-4.52-25.67-4.65-10.21-8.87-13-19.72-17.42-1.41-.58-.97,7.98-2.45,8.35-7.94,1.95-23.36,2.62-32.76,2.45l-7.15-.13c-1.23-.02-2.44-5.36-3.78-5.87-16.19-6.25-35.92,25.21-37.34,36.82,4.88,1.26,7.8,2.11,10.44,3.72,1.91,1.16.49,6.23-.98,8.53-4.64,7.3-4.49,14.02-4.1,22.24.92,19.71,2.81,9.06,23.65,28.12,3.43,3.13,13.65-1.45,15.28-4.83-3.11-2.22-6.34-4.48-8.03-5.86-1.65-1.34,1.64-6.7,3.72-7.46l1.9,6.03,18.72,6.9ZM53,121.9c-6.95,8.03-7.18,17.2-5.04,25.39,6.37,2.59,8.94-26.45,5.04-25.39ZM178.3,144.74c6.11-4.09,6.31-14.08,2.44-17.9l-2.44,17.9ZM184.45,166.04c3.87-3.18,1.64-11.6-3.12-11.69-2.47-.05-4.51,4.66-3.94,6.82.64,2.46,5.16,6.42,7.06,4.86ZM50.7,170.05c2.6-.51,5.41-7.85,3.82-9.71-1.6-1.86-6.13-3.35-9.56-3.84-2,.26-2.71,5.67-2.07,7.88.72,2.45,4.89,6.25,7.81,5.68ZM143.58,185.63c-7.1-.59-10.19-4.02-17.01-8.54,1.69,3.43,3.73,5.31,9.8,11.13l-15.46,9.34c-1.12.68-.75,5.01.57,5.11l4.99.38c12.65.96,20.56-15.54,17.11-17.43ZM105.25,191.87l-12.97-5.39,10.35-7.13c-5.13-.3-10.6,4.05-11.41,7.61,3.37,7.2,15.26,16.68,16.57,12.63l1.52-4.71c.29-.89-2.99-2.58-4.05-3.02ZM124.34,187.03l-1.82-7.29c-.34-1.37-5.29-.1-5.78,1.23-.81,2.2,4.19,5.36,7.59,6.06ZM120.75,191.17c-3.28-2.17-6.82-3.14-11.31-2.67,3.28,2.18,6.81,3.16,11.31,2.67Z"/>
  <path d="M125.74,133.18l-1.19-5.73c-.65-3.12-13.4,4.7-25.59-.86l3.69,9.87c-5.01.19-10.82-.24-17.39-1.87,1.72-5.08,4.4-7.91,9.35-12.34-.86-.28-5.46-1.29-7.55-1.49-2.04-.19-4.94,3.27-6.87,4.91l-2.62,2.22c-.74.62-2.32-3.06-1.92-4.18,2.16-6.14,11.58-12.42,20.2-7.53,4.92,2.79,10.99,5.35,16.5,7.21-3.39-8.33-12.07-6.04-8.99-15.16l11,10.18c.5.46,2.02,3,2.4,3.55.4.59.68-.41,1.03-1.01-.38-7.4-.35-14.54,3-21.26,4.41,8.44-5.14,19.69,3.44,23.09,4.16,1.65,1.46-10.79,11.59-12.89l-3.86,14.03c8.86-5.07,14.43-10.41,22.84-6.17,3.33,1.68,6.11,8.18,6.08,12.94l-8.75-3.6c-.23.46-1.75,3.71-.99,4.47l4.9,4.95-16.89,2.64c.42-9.09,4.91-12.25,11.1-14.44-5.6-3.38-9.42,1.72-13.9,3.72l-10.61,4.73Z"/>
  <circle cx="118.77" cy="134.85" r="2.04"/>
</svg>