<?xml version="1.0" encoding="UTF-8"?>
<svg id="Calque_1" data-name="Calque 1" xmlns="http://www.w3.org/2000/svg" viewBox="0 0 256 256">
  <path d="M98.83,233.27c-3.44,2.36-10.79-1.85-13.8-2.67-22.15-5.99-22.24-3.44-40.48-28.89-10.67-14.88-5.18-32.41-8.3-48.4-1.68-8.62-5.27-18.08-6.19-26.31-1.63-14.53,7.71-21.12,17.41-27.07,2.27-12.27,2.97-26.78,9.42-37.63l17.62-8.22c18.58-27.5,46.15-17.34,73.73-22.47,1.8-3.01,4.13-7.42,5.64-9.09,1.76-1.95,8.2,2.18,10.04,4.09l15.08,15.7c8.52,3.25,8.37,5.15,10.92,11.49,5.37,13.36,8.94,24.82,11.71,40.09l6.48-4.1c3.25-2.06,9.73-2.98,13.58-1.19,3.37,1.57,4.9,8.94,4.3,13.21-2.47,17.42-3.14,30.75-3.27,49.07l-19.3,4.96c.13,18.08-11.91,30.32-22.75,42.16-9.51,10.39-14.19,20.88-30.52,23.41-5.82.9-16.7,7.95-23.12,6.74-10.53-1.99-19.75-.67-28.19,5.12ZM160.52,208.48l24.22-27.12c11.33-12.68,8.11-35.67,13.54-36.09,10.58-.81,11.02,3.12,15.12-.82-.39-15.89,1.24-30.78,3.88-48.1-10.82-3.72-21.27,25.95-23.04,17.48-1.65-7.88,1.6-42.43-17.2-62.2l-17.86-18.78c-2.88,2.37-8.3,6.57-11.46,6.71l-33.65,1.54c-13.52.62-22.73,5.43-31.37,15.42-3.84,4.44-12.56,7.33-17.38,11.72-9.24,8.43-8.48,43.86-6.98,56.48.34,2.89-4.07,7.77-5.03,9.89-12.87,28.41-9.09,62.76,15.96,83.72l28.48,6.93c19.75-14.31,22.39,4.52,62.76-16.78ZM47.47,127.42c2.71-6.04.48-14.2-6.77-14.29-1.72,9.76-1.96,18.68-.15,27.39,3.07-5.35,4.92-8.65,6.92-13.1Z"/>
  <path d="M119.27,132.74c.91-.48,5,1.58,4.69,2.56-2.92,9.16-10.18,3.96-16.34,13.06l26.38,1.49-2.24-4.79c-.66-1.42,3.63-4.6,5.52-4.64,4.04-.1,7.92,3.91,7.83,6.89-.16,5.08-3.64,8.37-8.93,9.4-5.18,1.01-9.18.8-14.1-.84l-8.72,2.77c-.88.28-4.36,1.23-4.59.34l-1.6-6.29-.98-3.95c-.27-1.09-3.34.53-4.45.54s2.29,3.41,2.95,4.43c-1.7,5.83-14.18,4.03-15.96-1.62-.91-3,4.04-9.05,6.43-11.18-13.61-1.2-30.64-5.62-29.09-20.52.54-5.18,3.95-9.66,7.85-14.07l5.5-8.62,25.48-4.54c4.22-.75,8.72-.38,11.37,5.88l-12.39,4.01,12.8,9.3c3.56,2.58,13.19,1.32,17.5,2.63,6.51-6.31,13.74-11.71,21.71-14.37l-17.59.17c8.83-13.66,39.13-4.28,38.1-.77l-1.78,6.07,4.27,3.43c2.18,1.75,6.14,6.36,6.74,9.03s-2.52,7.72-3.79,10.33c-5.12,10.5-13.5,7.91-21.93,9.01-14.15,1.86-26.59.23-31.96-14.84l-33.67,16.85c2.04.71,6.8,2.42,8.06,1.76l16.94-8.92Z"/>
  <path d="M136.44,182.94c-11.52,8.98-31.09,14.48-45.67,5.73-5.67-3.4-12.65-4.98-14.31-12.27,19.87-12.33,43.61-10.32,59.98,6.54ZM118.3,176.86l-15.09-2.99c2.61,5.61,8.91,5.28,15.09,2.99ZM109.3,185.57c-8.25-4.21-12.9-6-20.4-6.18,6.37,5.65,14.04,10.33,20.4,6.18Z"/>
</svg>