<?xml version="1.0" encoding="UTF-8"?>
<svg id="Calque_1" data-name="Calque 1" xmlns="http://www.w3.org/2000/svg" viewBox="0 0 256 256">
  <path d="M69.54,149.02l3.24-12.65c.92-3.6,3.08-5.89,6.97-6.76l-1.51-2.91c-1.5-2.89,6.89-6.43,9.38-21.23,2.21-13.17-3.87-14.67,2.72-18.41-2.67-1.31-6.55-1.12-10.2-.32l-10.86-1.06c3.63-9.9,10.77-14.32,19.54-17.58,5.39-2,9.8-7.99,16.92-4.96l-11.32,5.04c-9.07,6.82-12.74,2.15-17.26,10.01,9.18-2.38,17.44-1.87,25.78-2.43,7.55-.51,14.1-2.27,22.19.17,3.83,1.15,9.74-1.38,13.94-1.96,9.58-1.32,18.36,1,28.96,2.05-1.14-4.05-23.33-11.37-28.87-13.81l-.11-4.14-7.46-11.25c2.02-5.9,1.62-11.73-2.73-16.47-26.14-28.49,2.3-7.56-35.06-26.25l-12.51,9.52,7.47,2.15c2.86.82,8.14,4.03,10.88,5.22.54.23,3.05-1.29,3.45-.85l2.4,2.66c11.76,13,.32,13.79,2.75,38.58.08.81-2.33,1.57-2.57,1-1.48-3.55-.84-17.31.53-23.49,1.04-4.66.2-6.84-2.52-10.69-5.52-7.79-23.73-13.42-31.74-2.47l-1.22-10.3c5.71.62,6.37-2.22,9.14-4.26,3.74-2.75,6.92-4.99,10.85-8.31,4.84-4.09,12.73,6.37,25.4,7.2l14.52,17.58c4.86,5.88,6.12,12.59,4.05,19.36,11.54,17.08,6.34,8.59,20.25,17.86,5.12,3.41,15.13,5.72,17.75,11.87.36.84-1.04,4.55-.36,5.2l3.88,3.67c-5.07,1.43-8.1,1.98-14.48,2.79.06,3.72.73,8.93,1.35,13.5,1.12,8.2.68,16.54,5.02,23.83,2.63,4.42,1.47,10.43,2.46,14.96,2.25,3.33,7.08,6.67,7.49,11.62l1.3,15.52c.04.44-1.5,1.69-1.71,2.08-.31.59-.91-2.13-1.33-2.78-2.64-4.02-10.34-5.38-14.38-1.26-2.19,16.39,4.75,19.83-2.03,31.24l.56,12.99c-2.67,6.13-7.52,12.78-6.75,19.65.75,6.74,4.64,14.91-3.4,20.82l-4.29-14.53-3.31,9.69c-.69,2.01-3.01,4.62-5.91,8.35l-2.08-12.82c-.99,4.14-2.19,6.4-5.79,7.03-4.89.86-5.84-1.13-9.83-5.94l-2.31,7.82c.15,1.29-3.62-.83-4.29-2.18-5.77-11.7-13.28-20.33-23.44-28.31l3.41-1.18c1.66-4.55.87-10.35-3.26-14.75l3.17-5.98-3.36-15.81c-3.14-14.79,3.52-2.79-2.56-25.8-1.5,1.64-2.77,3.15-3.84,3.88-1.25.84-4.85-.47-6.22-1.15l-5.22-2.59c-1.98-.98-2.14-5.46-1.68-7.27ZM125.61,90.26l10.85,2.38c.86.19,2.42,2.35,2.32,3.05l-12.31-.62c1.71,3.05,3.4,7.41,4.73,11.23.9-.64,2.79-1.99,3.01-1.3,1.89,5.97-2.32,5.76-.43,7.07l3.14,2.19c.91.63,3.76,1.84,4.31.92,2.95-4.89-1.37-6.34,4.07-9.37,2.14-1.19,2.94-3.31,2.38-5.45-3.03-11.72,2.9-6.28-6.46-23.76-22.12,7.3-23.13-3.91-36.95,3.43l-2.2,10.42c-.57,2.73.61,8.17-.32,10.72-1.53,4.15-2.38,6.59-.08,10.04,1.5,2.25,5,3.87,8.53,3.11l11.59-2.5c-2.66-1.47-6.17-3.16-5.77-4.83s5.41-3.73,6.3-2.28l1.96,3.19c.39.64,2.7-.25,2.85-.98.1-.49.13-2.35-.08-2.8l-3.82-8.32c.72-.51,2.16-1.05,2.19-1.75l.19-3.78ZM165.4,84.8c0-.41-.33-.74-.74-.74s-.74.33-.74.74.33.74.74.74.74-.33.74-.74ZM97.46,94.43c1.47-.84,1.86-4.68,1.07-6.51-1.98.61-2.61,4.55-1.07,6.51ZM150.98,90.96c-.1-1.27-.07-.8.05.51.27,2.71.25,2.53-.05-.51ZM155.63,95.93c.28-2.83.36-4.17.24-4.73l-.24,4.73ZM93.3,101.95c2.25-2.28,2.26-5.01,0-7.3v7.3ZM153.34,106.61c1.37-2.46,1.44-5.83-1.64-7.2l1.64,7.2ZM146.05,110.02c0-.41-.33-.74-.74-.74s-.74.33-.74.74.33.74.74.74.74-.33.74-.74ZM94.44,114.71c0-.41-.33-.74-.74-.74s-.74.33-.74.74.33.74.74.74.74-.33.74-.74ZM162.13,122.87l-.21-8.96c-3.66,3.31-2.74,7.27.21,8.96ZM98.49,120.16l-2.58,1.28,2.01,4.06,2.58-1.28-2.01-4.06ZM151.17,123q0-1.46,0,0,0,2.72,0,0ZM84.55,129.83l1.67-5.78c-1.2.73-2.9,2.02-2.65,2.78l.98,3ZM89.75,125.27c0-.41-.33-.74-.74-.74s-.74.33-.74.74.33.74.74.74.74-.33.74-.74ZM105,126.44c0-.41-.33-.74-.74-.74s-.74.33-.74.74.33.74.74.74.74-.33.74-.74ZM94.87,127.69q0-1.46,0,0,0,2.72,0,0ZM134,127.88c-4.42,2.5-5.38,2.79-8.17,2.93l-6.23.31-6.38-4.42-.85,8.06c5.23,4.29,12.22,7.86,19.19,7.1l4.33-5.84-1.89-8.14ZM163.08,131.19c.21-2.86-.47-4.57-1.58-4.53-.47,1.67.35,3.7,1.58,4.53ZM147.6,134.63c1.01-1.98,1.05-3.96-1.22-5.08l1.22,5.08ZM86.24,132.3c0-.41-.33-.74-.74-.74s-.74.33-.74.74.33.74.74.74.74-.33.74-.74ZM74.23,144.02c2.92-3.04,4.47-6.4,2.98-10.73-1.17,3.49-2.08,6.69-2.98,10.73ZM142.53,138.17c0-.41-.33-.74-.74-.74s-.74.33-.74.74.33.74.74.74.74-.33.74-.74ZM149.57,140.51c0-.41-.33-.74-.74-.74s-.74.33-.74.74.33.74.74.74.74-.33.74-.74ZM160.02,141.05c.24,1.34,1.18,3.77,1.35,3.17l.71-2.42c.12-.4-2.13-1.18-2.06-.76ZM114.23,146.18l-2.87-3.18.16,4.01c.03.69,3.22-.26,2.71-.83ZM152,144.12c-.07.63-.22,3.72.25,3.29l1.25-1.16c.31-.28.6-1.23.72-1.63s-2.17-.93-2.22-.51ZM73.06,153.88c1.61-2.66,2.1-5.21,1.42-8.3-1.93,2.22-2.48,5.17-1.42,8.3ZM98.25,145.58c.37.58,1.33,2.38,1.44,1.93l.44-1.81c.1-.43-2.12-.49-1.88-.12ZM147.61,149.87c1.58-1.65,2.06-3.59,1.25-4.63-1.58,1.65-2.06,3.59-1.25,4.63ZM143.68,147.55c0-.72-.58-1.31-1.31-1.31s-1.31.58-1.31,1.31.58,1.31,1.31,1.31,1.31-.58,1.31-1.31ZM105.78,153.32l.16-6.05c-1.38,1.33-2.23,1.91-1.89,2.6l1.72,3.45ZM151.17,155.63l3.05-6.89c-4.67,2.63-6.87,9.46-2.83,12.98l-.23-6.08ZM133.24,149.99c-.07.63-.22,3.73.24,3.29,3.43-3.19.93-.27,1.98-2.79.16-.39-2.18-.92-2.22-.5ZM156.84,150.78c-.1-1.27-.07-.8.05.51.27,2.71.25,2.53-.05-.51ZM100.4,155.6c-.59-3.23-.89-5-1.36-4.77-.76.37-1.66,3.3-.91,3.66l2.26,1.11ZM129.77,156.81c-.29-3.26-.61-5.28-1.59-6.07s-4.85,2.12-3.95,3l3.19,3.09c1.35,2.19,1.99,3.34,2.36-.02ZM139.31,151.3c.49.79,1.46,2.51,1.37,2.08s.98-1.74.54-1.81-2.13-.62-1.91-.27ZM172.34,159.38c.76-2.79.04-5.26-1.72-7.25l1.72,7.25ZM111.53,160.5c-.15-3.24-.64-4.59-1.7-5.99-.13,2.32.54,4.27,1.7,5.99ZM135.54,154.75l.19,3.39c.03.46,1.94-.2,1.95-.66l.07-2.29c.01-.46-2.24-.91-2.21-.44ZM107.35,156.93c0-.41-.33-.74-.74-.74s-.74.33-.74.74.33.74.74.74.74-.33.74-.74ZM143.36,156.55l-4.22-.33c-.4.03-.47,3.05.28,3.05l3.57-.02c.74,0,.53-2.91.37-2.7ZM120.67,159.36q0-1.46,0,0,0,2.72,0,0ZM175.37,161.62c0-.41-.33-.74-.74-.74s-.74.33-.74.74.33.74.74.74.74-.33.74-.74ZM128.38,162.13c.27.64,1.36,2.41,1.48,2.08.14-.37.32-.98.38-1.36s-2-1.04-1.86-.72ZM141.36,167.52l-.9-6.32c-1.05.56-2.4,3.75-1.73,4.27l2.63,2.05ZM151.65,170.03c1.94-1.25,3.43-2.49,4.44-3.72.66-.81-.51-2.77-1.82-4.7-1.21,2.55-1.81,4.42-2.62,8.42ZM125.34,172.24c1.41-2.64,2.05-5.75,1.29-8.36-2.32,2.32-2.26,5.2-1.29,8.36ZM143.14,170.69l1.64-3.67c.23-.52-.95-2.19-.83-1.57l-1.63,3.64c-.24.53.92,2.2.82,1.59ZM112.81,171l-.12-3.51c-.02-.64-1.43-.7-2.46-.76l2.58,4.27ZM108.96,174.52c.35-3.05-.28-4.66-1.7-5.95l1.7,5.95ZM97.22,172.26q0-1.46,0,0,0,2.72,0,0ZM134.72,178.22l1.83-6.39c-1.84.79-2.82,2-2.58,3.05l.75,3.34ZM153.66,178.16l1.06-6.46c-2.5,1.5-2.21,4.7-1.06,6.46ZM101.28,181.6l-.36-7.98c-1.95,3.93-2.98,6.66.36,7.98ZM113.21,175.7c0-.41-.33-.74-.74-.74s-.74.33-.74.74.33.74.74.74.74-.33.74-.74ZM143.4,182.71c2.94-1,3.18-3.88,1.72-5.94l-1.72,5.94ZM115.47,180.47c.01-.36-2.05-2.9-2.09-2.5l-.23,2.43c-.46,4.81-.35,9.28,1.92,12.98l.41-12.92ZM124.78,180.39h-1.17v12.9h1.17v-12.9ZM159.45,186.2l.54-6.08-2.49,2.22c-.53.47.51,1.97,1.94,3.85ZM120.67,182.82q0-1.46,0,0,0,2.72,0,0ZM134.45,182.33c-3.04-.3-3.22-.32-.51-.05,1.31.11,1.78.15.51.05ZM103.83,185.08c0-.41-.33-.74-.74-.74s-.74.33-.74.74.33.74.74.74.74-.33.74-.74ZM139.25,185.96c-.1-1.27-.07-.8.05.51.27,2.71.25,2.53-.05-.51ZM131.01,190.93c.28-2.83.36-4.17.24-4.73l-.24,4.73ZM149.74,194.15c2.03-4.56,3.58-6.59-.08-8.56l.08,8.56ZM127.38,198.74l.48-7.58-2.91,4.7c-.43.69-.77,2.37-.68,3.15s3.05.58,3.11-.28ZM144.28,198.1l1.06-6.46c-2.5,1.5-2.21,4.7-1.06,6.46ZM140.63,200.41c.3-2.31.29-4.36-.03-6.03-.3,2.31-.29,4.36.03,6.03ZM108.92,207.56c.62-3.9,0-7.52-3-9.69l3,9.69ZM147.46,198.86c-.1-1.27-.07-.8.05.51.27,2.71.25,2.53-.05-.51ZM118.87,208.35c-1.35-4.15-2.58-6.73-4.23-9.5.04,4.11,1.32,7.62,4.23,9.5ZM148.75,210.77c1.57-.87,3.25-2.1,3.72-3.23.4-.94-.49-3.1-1.42-5.13l-2.3,8.36ZM99.48,213.32c1.25-2.43,1.17-5.77-1.58-7.2l1.58,7.2ZM118.47,217.83c-.49-3.84-1.41-5.97-3.03-8.17.89,3.18,1.86,5.67,3.03,8.17ZM150.58,216.37c2.34-.67,2.78-2.45,1.82-4.38l-1.82,4.38ZM95.52,214.96c.22.54,1.41,2.38,1.52,2.03.12-.39.29-1.02.38-1.38s-2.03-.98-1.9-.64ZM115.55,216.75c0-.41-.33-.74-.74-.74s-.74.33-.74.74.33.74.74.74.74-.33.74-.74ZM131.97,217.92c0-.41-.33-.74-.74-.74s-.74.33-.74.74.33.74.74.74.74-.33.74-.74ZM99.08,218.62c-.66.09-.76,1.85-.25,2.28.38.33,1.64,1.67,1.72,1.19l.47-2.63c.09-.5-1.29-.92-1.95-.84ZM108.55,229.11l-2.77-8.9c-1.97,3.31-2.43,7.95,2.77,8.9ZM130.8,221.44c0-.41-.33-.74-.74-.74s-.74.33-.74.74.33.74.74.74.74-.33.74-.74ZM121.42,222.61c0-.41-.33-.74-.74-.74s-.74.33-.74.74.33.74.74.74.74-.33.74-.74ZM124.01,222.32c-.1-1.27-.07-.8.05.51.27,2.71.25,2.53-.05-.51ZM145.83,230.51l-1.9-9.22-.53,10.86,2.43-1.64ZM125.33,234.62l-1.64-6.67c-1.13,2-1.79,3.57-2.02,5.26-.13,1,2.33,1.98,3.66,1.41ZM130.11,232.46l4.49-.65c1.01-.15,1.38-1.81.99-3.67l-5.48,4.32ZM150.95,242.68c2.1-3.12,2.58-7.62-1.58-9.7l1.58,9.7ZM114.04,244.96c.24-1.59-.05-5.56-.69-7.71-.47-1.54-3.92-2.27-5.95-2.78l6.64,10.49ZM126.7,237.27c0-.41-.33-.74-.74-.74s-.74.33-.74.74.33.74.74.74.74-.33.74-.74ZM137.96,247.24c1.37-2.64,2.33-4.23,2.1-5.1-.17-.65-1.2-1.25-2.39-2.16l.28,7.25ZM127.62,242.62l-1.83,2.79c-.2.3,1.08.34,1.35.1s.92-.89,1.16-1.17-.47-2.04-.68-1.72Z"/>
  <path d="M122.8,84.53c.34,6.97-15,6.85-17.51,6.96-.87.04-.95-3.29-.16-3.75,4.06-2.37,12.4-4.25,17.67-3.2Z"/>
  <path d="M143.37,94.65c-12.52-9.94-15.35-1.95-17.21-10.48,4.76-1.4,10.06-.28,14.48,1.8l2.74,8.68Z"/>
  <path d="M111.67,96.3l-4.65,1.1c.32-1.17,1.74-3.91,2.99-4.03l6.23-.6c1.13-.11,4.58-1.36,4.83-.56-.45,4.14-6,5.11-9.4,4.08Z"/>
</svg>