<?xml version="1.0" encoding="UTF-8"?>
<svg id="Calque_1" data-name="Calque 1" xmlns="http://www.w3.org/2000/svg" viewBox="0 0 256 256">
  <path d="M149.34,224.48c-13.48,9.92-43.76,6.55-53.01-2.35l-3.01,16.21c-10.59-5.32-7.45-13.69-11.2-22.64l-1.86,16.17-22.03-.29c-1.37-15.94-.75-30.71,1.28-46.72.89-7.05-.31-16.94,1.76-22.85,2.06-5.88,3.08-9.22,3.88-15.71,1.14-9.2,7.79-30.62,11.51-39.53l6.99-16.72-13.04-17.59c-2.3-3.1-4.59-10.08-3.24-13.91,1.16-3.28,6.62-7.08,10.08-9.92,6.76-5.54-5.9-28.06,16.36-32.76,33.16-7.02,22.21,13,41.24,15.9,14.73,2.25,44.86,8.48,44.32,27.18-.19,6.57-3.45,14.53-6.41,22.07,10.09.97,17.08,6.51,19.82,16.49,1.17,4.26,5.55,11.26,5.68,15.74.56,18.84-5.41,36.65-2.27,54.82l3.18,18.39c2.56,14.78,1.5,29.25-.44,44.3-4.28-.32-6.26-2.28-9.92-5.37-4.85,5.11.25,2.95-4.75,15.5-.38.94-3.76,1.03-3.97.04l-1.01-4.97c-.64-3.17-1.47-7.13-2.53-9.03-1.23-2.21-8.23-4.44-9.59-2.33l-7.9,12.48c-6.16.06-8.43-4.99-9.94-12.59ZM90.88,69.66c3.22-10.4,10-6.9,15.95-10.11,4.49-2.43,8.44-.69,13.27-.01l23.91,3.32c7.69,8.48,12.77,16.45,18.84,26.35,4.39-8.1,8.88-18.12,10.33-26.9,3.51-21.15-37.61-26.01-51.14-26.06-5.91-.02-7.89-10.41-9.58-14.59-4.58-4.47-14.29-3.69-19.98.58l13.22,6.75c2.19,1.12,5.47,5.99,5,8.33-1.22,6.1-9.86,14.06-15.37,13.91-2.4-.07-6.34-3.48-8.75-5.27l-9.97,9.23c-2.02,1.87-4.73,4.01-4.91,5.88-.14,1.49,1.24,5.19,2.14,6.46l11.86,16.6c12.82-2.18,25.24-8.48,28.64-21.37l-23.47,6.92ZM85.6,41.35c3.38-7.8,5.88-11.3-.12-15.34l.12,15.34ZM121.95,71.66l2.8-4.2c.52-.78-.03-1.02-2.53-3.79l-.27,7.99ZM135.43,68.23c2.47.28-1.7-.18-2.44-.24-.79-.07.21,3.1.5,4.74.08.45-.3,1.21,1.93-4.5ZM133.83,202.69c-2.27-1.35-5.76-4.21-6.57-2.87l-3.7,6.08c-1.45-4.43-1.69-6.79-3.72-7.8-2.7-1.34-7.88.65-8.86,3.85l7.8,5.69c-8.57,5.73-8.33-11.31-14.91-11.63-2.16-.1-6.46,1.04-10.09,2.15,1.61,9.28,5.36,18.15,11.93,23.44l2.67-5.22c.4-.78,3.53.45,3.47,1.33l-.28,4.69,11.21.66-1.05-5.77c-.13-.7,1.77.21,2.63.35l2.15.35,4.41-.24c.91-.05.89,2.46.04,2.8l-5.09,2.01c2.35,2.1,8.11.97,11.79-1.43l5.93-.89-2.48-10.22,8.18-3.26c8.35-3.32,15.55-16.16,9.32-25.71,3.51-.29,7.25-.67,7.63-2.32.4-1.77-.52-4.42-1.75-7.53-.04,0,2.38-.05,4.29-.09,5.02-14.03,11.1-87.11-18.8-76.8-2.17.75-6.63,4.31-8.71,3.54-5.81-2.17-18.57-14.46-27.47-8.67-14.62,9.51-23.43,26.51-24.12,43.25-.91,22.27-2.84,43.76,4.18,65.01,2.23-4.96,8.89-2.8,13.27-4.54,5.04-2,12.66-6.17,17.4-8.65l-.38-6.81c-.07-1.28,4.24-1.57,4.72-.38l1.97,4.93c1.45,3.62,9.06,5.69,14.79,3.65-3.07-3.16-7.19-5.91-10.89-8.05-1.1-1.52-2.86-4.2-4.43-4.9s-5.56.96-8.04,2.15c-1.97.95-4.98-3.52-5.04-5.74-.05-1.85,3.97-6.05,4.46-4.27l1.7,6.19c.34,1.23,3.68-1.04,4.92-1.09l6.3-.24c1.02-.04,1-3.61.87-4.68l-2.02-17.4c13.69,11.52-.63,30.04,6.9,29.19l6.95-.79,4.13,8.91c.97-.87,2.47-2.55,2.34-3.44l-.7-4.68,6.94,13.56c-5.79-2.94-10.04-3.76-14.48-.52,4.62,1.79,1.94,1.87-.11,3.09l-3.54,12.07c-.33,1.12-4.01,2.96-4.25,1.98-.16-.65-1.58-2.48-.95-2.74l3.48-1.41c1.44-.59.08-4.45-.19-6.03-.22-1.25-4.74-1.02-4.99.23l-1.14,5.66ZM124.17,190.01c-.71.19,1.53,2.9,2.07,2.28l2.76-3.21c.35-.4-2.71.36-4.83.93ZM74.73,219.22c-.16-1.98-.1-1.26.07.8.42,4.23.39,3.96-.07-.8Z"/>
  <path d="M142.68,139.68c-.67-2.36,3.33-7.25,5.42-7.16l10.32.46c-1.62-1.5-4.88-4.32-6.7-5.34s-21.86,12.56-11.94-.52c2.86-3.76,11.29-8.97,16.77-4.68,3.4,2.66,8.44,7.65,11.14,10.76-.29,1.36-3.22,4.05-4.27,3.42l-4.9-2.96c1.25,2.77,3.95,7.93,3.25,10.19-.99,3.18-8.16,5.01-11.25,4.63-2.82-.35-6.81-5.11-7.85-8.79ZM146.38,137.74c.42.61,2.52,3.63,2.08,3.09s1.53-2.78.84-2.86-3.37-.86-2.93-.23Z"/>
  <path d="M125.27,139.97c-2.8,5.01-6.53,9.27-10.07,10.15-5.24,1.3-12.45-.91-13.19-6.23-.84-6.11,8.79-10.26,13.51-8.19l9.75,4.27ZM105.38,141.83c-.03,1.4,4.37,5.8,4.28,4.59l-.25-3.37c-.07-.92-4.01-2.14-4.03-1.22Z"/>
  <path d="M128.74,129.99c1.08,7.11-11.45-4.33-13-3.4-10.95,6.57-11.95,11.07-19.73,12.78,2.28-10.19,11.1-14.3,19.89-17.72,4.59-1.79,12.1,3.43,12.84,8.34Z"/>
  <path d="M129.09,114.92c-6.83.42-12.63,1.99-21,3.87,3.89-6.61,10.59-6.8,17.34-7.16l18.56-1.01c5.4-.29,12.63,1.08,19.5,2.06-6.49,5.64-13.28.94-19.68,1.34l-14.72.91Z"/>
  <path d="M131.89,108.52l-21.46,1.11c-7.77-3.85,47.8-8.7,43.39-2.64l-21.93,1.53Z"/>
  <path d="M101.47,177.16l2.58,6.36c.65,1.6,2.74,3.6,4.9,6.76-.33,2.71-24.03-12.92-15.13-14,.97-.12,3.66-.06,3.8.92l.7,5.03c.08.56,2.27.08,2.36-.43l.81-4.64Z"/>
  <path d="M107.65,214.89l-8.77-10.86c5.56-2.3,12.6,5.87,8.77,10.86Z"/>
  <path d="M151.82,201.79c-5.29-3.39-2.3-9.09,2.79-10.87l-2.79,10.87Z"/>
  <rect x="113.76" y="212.48" width="7.93" height="4.93" transform="translate(-121.35 268.82) rotate(-73.99)"/>
  <path d="M130.79,216.22c-2.05-.43-2.16-7.15.06-7.66,2.4.19,2.45,5.73-.06,7.66Z"/>
  <path d="M116.91,179.6c.32-.22,4.95-.38,4.54.52l-1.73,3.78c-.41.89-2.73.73-4.37.94-1.27.17.88-3.55,1.56-5.24Z"/>
  <circle cx="109.59" cy="182.36" r="2.54"/>
  <circle cx="96.17" cy="190.42" r="2.07"/>
  <path d="M165.31,75.81c-12.5,2.1,3.86-18.4-13.1-22.69-4.56-1.15-9.27-2.8-11.17-8.54,8.92,1.09,16.6,3.93,24.24,8.94.64,6.1.58,14.5.04,22.29Z"/>
</svg>