<?xml version="1.0" encoding="UTF-8"?>
<svg id="Calque_1" data-name="Calque 1" xmlns="http://www.w3.org/2000/svg" viewBox="0 0 256 256">
  <path d="M213.05,82.41c11.64,5.61,26.69,15.13,30.69,28.27,6.21,20.38-19.65,30.57-7.55,46.01,12.43,15.86,4.29,48.52-19.05,55.02-25.18,7.01-51.53,7.68-78,7.31-12.75-.18-23.06-3.1-28.24-14.76-4.62-10.4-3.89-22.62,6.23-31.49-28.45-16.39-56.75-29.28-78.23-53.29C17.73,95.82,8.37,60.87,11.11,29.16c16.72,7.9,24.31,19.29,36.99,26.36,30.03,16.73,60.3,30.89,97.08,32.85l-20.3-38.43c-.65-1.23-.61-4.55-.35-5.76.35-1.62,6.67-3.1,8.27-2.2l22.87,12.76,57.38,27.68ZM74.78,81.18l-5.6,29.42c-.29,1.52-6,1.86-6.83.56-.62-.98-2.32-4.29-2.4-5.65l-1.86-32.49-8.08-5.96-4.82,18.42c-3.22-.43-8.79-5.42-8.89-8.25l-.65-17.94-15.6-12.39c6.78,60.07,30.13,77.26,81.1,106.36-.89-19.84,1.42-41.74,9.14-57.5,1.12-2.28-4.73-5.8-6.58-4.64-1.52.96-4.28,4.86-4.56,6.68l-3.63,23.63c-.22,1.43-2.46,4.32-3.33,5.25-8.38,8.94-10.59-29.98-4.14-40.61l-13.27-4.88ZM189.5,83.36c-6.71-3.97-11.74-6.51-18.29-9.36l-31.29-15.29c4.68,9.78,10.49,20.32,17.79,28.77,10.56.33,20.82-1.4,31.79-4.12ZM223.45,195.63c-11.98,1.46-22.93,3.97-34.27,3.38l-40-2.09c-1.74-.63,2-6.72,4.27-6.74,32.44-.18,43.97,2.69,75.84-5.28,7.39-9.41,1.12-24.62-6.22-31.46-9.41,2.8-24.18-.87-22.8-10.03,2.24-14.79,15.7-18.98,27.65-25.21-14.84-4.91-24.35,14.11-31.91,7.41-9.27-8.22,27.98-20.81,32.23-21.99-9.97-4.65-24.82-7.39-34.93-.5l-3.92,7.26c-3.39,6.29-19.61-16.68-45.76-8.01,6.44,1.71,36.44,21.78,28.44,27.21l-7.24,4.91c-.89,11.93-7.19,24.72-21.19,24.67-9.89-.03-19.41-5.42-22.81-13.07-3.31-7.43-3.98-19.54,3.86-23.93,11.25-6.3,22.87.44,34.47,3.46-5.75-5.24-14.25-10.58-22.37-13.27l-21.35,11.36.3,38.11c10.23,3.97,14.89,6.23,24.03,12.21l-17.21,7c-7.11,4.37-5.74,14.79-2.77,20.43,3.72,7.06,10.84,9.84,19.03,9.73,14.16-.18,80.64-1,84.6-15.58ZM121.08,104.5c.26,1.46.82,4.18,1.57,3.32l2.59-2.98c.49-.56-4.28-1.03-4.15-.34ZM131.46,147.68l1.9-22.33c-9.19,5.66-7.68,16.97-1.9,22.33ZM151.3,132.08c.53.77,2.53,4.53,2.76,3.71.29-1.01.69-2.73.85-3.58.16-.85-4.08-.82-3.62-.14ZM211.65,147.31l-.04-9.53-4.49,4.06c-.89.8,1.84,3.1,4.53,5.47Z"/>
  <path d="M196.6,168.12c-13.43,7.66-4.88,15.55-11.04,19.76-7.83,5.35-5.62-12.04-18.54-20.81-2.18-1.48-2.73-9.16-.1-9.56,5.73-.86,36.65-3.96,33.93,4.82-.5,1.62-2.65,4.87-4.25,5.78Z"/>
</svg>