<?xml version="1.0" encoding="UTF-8"?>
<svg id="Calque_1" data-name="Calque 1" xmlns="http://www.w3.org/2000/svg" viewBox="0 0 256 256">
  <path d="M58.36,230.47c-3.25,2.82-6.86,6.29-9.4,6.45-2.96.18-8.55-4.07-9.96-6.69-12.33-22.92,16.84-32.93,26.61-50.69-7.99-1.45-10.21,1.93-16.31,3.95-7.06,2.33-12.03,5.59-17.77,11.48-4.4,4.51-14.86-2.52-17.66-8.92-3.04-6.95,2.29-13.33,9.69-20.07-3.75-.17-12.1.15-14.51-2.22-4.75-6.01.94-16.77,7.73-21.28,6.26-4.16,9.55-5.33,18.25-3.46l.09-8.38c.05-5-18.06,6.9-10.89-36.27,8.26-2.69,13.52-4.97,19.51-9.97,4.49-3.75,15.15-6.6,17.91-11.49,8.27-14.68,15.68-29.3,28.28-38.81,18.07-13.65,37.92-15.79,59.14-14.83,32.44,1.48,57.36,23.72,57.82,57.86.11,8.42,4.17,10.32,11.13,14.42l21.18,12.48c.35,13.97-1.61,28.66.96,41.69,1.83,9.27,2.79,17.96-3.67,24.78,0,3.83.35,11.14-.04,14.55-.44,3.85-8.98,8.83-12.82,8.35-7.13-.89-11.88-3.47-20.36-6.52l11.09,11.82c2.71,12.41-6.39,32.71-22.29,30.82-9.1-1.08-17.08-12.3-23.74-19.13l-9.51,11.3c-22.57,4.07-58.47,12.47-71.79-16.04l-28.65,24.81ZM158.48,58.65c2.8,3.5,5.61,12.05,7.8,16.79l28.94,7.96c3.36-28.4-15.85-53.3-46.05-54.32-41.03-1.38-61.61,13.09-76.54,51.02l28.78-2.86,11.69-21.12c7.88-5.48,40.41-3.69,45.39,2.53ZM153.74,69.36c-10.65-7.45-23.92-8.07-36.87-2.84,11.93,2.4,23.51,3.44,36.87,2.84ZM188.3,163.49l11.91-33.43c3.52-9.89-2.26-25.25-3.13-35.47-29.7-15.04-99.39-10.01-130.78-2.5-2.31,11.06-5.33,23.03-5.46,31.72l12.19,55.26,31.94,33.78c15.78,3.97,33.76,3.46,48.85-.17,15.9-27.48,24.82-22.11,34.47-49.19ZM54.51,136.6c-6.87-15.8,8.1-49.9,1.48-47.39-1.23.46-5.93,2.92-6.11,4.23l-5.3,39.29c-.26,1.96,2.91,6.19,4.54,7.14,1.21.7,5.76-1.77,5.39-3.26ZM214.38,150.05l2.74-48.55-12.93-5.94c.34,26.35,12.08,31.94-5.1,59.43l15.29-4.93ZM36.03,121.03l2.74-20.74c-11.22,4.53-8.49,13.81-2.74,20.74ZM228.85,122.87l-2.39-13.05-1.66,28.6c4.21-3.69,5.01-10.35,4.05-15.56ZM39.56,150.57c5.07,3.3,5.11,3.9,6.05,3.49l4.45-1.95c.64-.28-2.4-2.77-3.06-3.04l-7.51-3.08c-1.65-.67-3.47,4.36-3.34,6.12.13,1.77,2.93,6.37,3.58,5.7l-.18-7.25ZM23.6,161.57c5.23-3.9,7-6.82,6.89-9.85-.07-1.88-5.87-4-7.27-3.16l.38,13.01ZM233.16,152.54c-.2-2.43-.13-1.54.09.98.52,5.2.48,4.86-.09-.98ZM14.83,154.79c-.2-2.43-.13-1.54.09.98.52,5.2.48,4.86-.09-.98ZM214.43,160.9c3.8,1.93,7.6,2.01,9.75-2.34l-9.75,2.34ZM59.85,164.61c0-3-2.43-5.43-5.43-5.43s-5.43,2.43-5.43,5.43,2.43,5.43,5.43,5.43,5.43-2.43,5.43-5.43ZM197.78,182.17l9.61-17.28-10.06.73c-1.21.09-6.96,6.65-5.83,15.58.17,1.33,5.68,2.06,6.28.98ZM41.02,168.03l-5.61,1.94,2.63,7.61,5.61-1.94-2.63-7.61ZM219.46,182.93c.84-3.62,1.35-9.26.54-11.04-.65-1.42-4.93-2.09-6.18-1.16-2.16,1.61-4.47,7.58-4.08,10.19.38,2.61,9.1,4.71,9.73,2ZM29.03,180.3c0-2.2-1.78-3.99-3.99-3.99s-3.99,1.78-3.99,3.99,1.78,3.99,3.99,3.99,3.99-1.78,3.99-3.99ZM229.15,186.76l1.05-11.66-4.81,4.3c-.96.85,1.02,3.76,3.76,7.37ZM63.73,217.04l17.75-16.41-12.58-11.81-13.29,11.2,8.13,17.02ZM190.5,189.98c-5.17-5.53-14.74,9.25-13.87,11.06.8,1.67,3.05,3.95,4.65,5.59l9.22-16.64ZM196.4,197.05l-9.32,19.25,5.52,2.67,9.32-19.25-5.52-2.67ZM56.99,222.15l-6-16.56-6.14,6.68,12.14,9.88ZM47.5,229.96c-.35-6.07-2.85-8-6.52-6.49l6.52,6.49Z"/>
  <path d="M147.62,116.64c6.64-8.87,18.38-7.33,28.26-7.7-.2-2.69-6.68-5.54-9.61-4.48l-22.73,8.21c-1.89-4.39-2.81-11.12-1.89-16.84,23.15-.85,35.58-11.69,46.68,10.58.81,2.62-3.84,8.49-6.56,9.18-3.13.79-8.7.56-12.99.44,1.03,1.82,2,4.51,3.29,4.38l10.23-1.01c-.19,7.75-10.89,10.66-18.66,10.76-5.56.07-15.17-7.43-16.01-13.5ZM156.81,117.64c.73,1.15,2.83,4.71,2.57,3.9-.26-.81,1.88-3.37,1.04-3.48s-4.07-1.15-3.61-.42Z"/>
  <path d="M113.96,124.35c-3.01,8.07-15.13,8.1-20.95,3.25-5.53-4.61-8.44-13.41-3.24-20.33-5.76,2.41-14.04,4.38-15.98-.68,7.18-16.21,34.52-12.06,45.54-10.2,2.71.46,1.82,8.7.83,11.34l-6.2,16.62ZM92.92,111.86c1.03,2.35,3.42,5.77,4.02,4.42l2.34-5.27c.45-1-6.79-.12-6.36.85Z"/>
  <path d="M150.92,171.09c15.02,6.16-16.51,28.26-50.59,5.3,11.83-14.35,40.14-9.59,50.59-5.3ZM133.32,179.42c-5.43-.54-8.01-.68-9.08-.46l9.08.46Z"/>
  <path d="M147.74,139.05c.97,2.1,1.92,7.87,1.19,10.06-.87,2.63-4.81,5.52-8.47,7.33-12.65,6.26-25.71-2.7-28.49-9.97-.99-2.6,2.73-9.29,5.19-9.96,3.83,4.57,5.51,11.06,8.78,11.82,3.27.76,11.89-1.77,13.16-3.06l1.3-7.01c.28-1.5,6.69-.59,7.33.79Z"/>
  <path d="M126.54,107.82c9.12-7.53,9.03,31.82,3.6,34.05-5.89-10.28-3.82-22.68-3.6-34.05Z"/>
</svg>