<?xml version="1.0" encoding="UTF-8"?>
<svg id="Calque_1" data-name="Calque 1" xmlns="http://www.w3.org/2000/svg" viewBox="0 0 256 256">
  <path d="M81.84,209.1c-7.8-14.37-7.2-33.27-12.87-42.57-4.11.58-11.74.13-12.74-2.89l-8.99-27.07c-1.74-5.24,1.25-12.42,3.55-16.85-1.52-2.07-3.73-5.2-4.46-6.66-.73-1.46,6-2.61,6.7-2.82l-5.03-14.03-2.15-6.12c-.46-1.3,3.89-3.46,3.2-4.63l-2.79-4.68c-.72-1.2.94-3.46,1.69-5.87,8.55-27.37-1.4-14.95,5.83-26.22l7.01-10.93c.73-1.13,2.13-3.82,2.81-5.07.71-1.31,3.58.63,6.58,2.38l3.59-9.15c3.25-.8,5.76-1.96,8.87-4.86l6.75,2.36c3.58-1.19,7.17-1.97,10.98-2.47l21.24-2.83,4.84,6.97c5.83-8.83,13.19-10.36,21.62-9.28l1.99,10.34,14.02-6.86c1.79,8,9.97,9.69,17.51,9.82,3.98,10.7,10.96,19.79,18.45,28.62l9.5,11.21-6.42,2.55c6.62,5.49,6.51,32.37,4.48,38.2-1.46,4.18-4.86,9.13-3.28,12.86,5.15,12.17,3.87,23.8-3.41,33.99l-8.21,2.74-10.91,40.44c-1.1,4.08-1.71,10.73-2.03,14.46-9.1,19.38-30.68,30.44-51.52,29.37-6.43-.33-11.64-3.92-16.15-7.66-10.33-8.59-23.63-14.57-30.26-26.78ZM95.16,64.75c1.55-.34,4.24-7.08,5.53-6.04l5.75,4.65c3.93.43,9.44,1.11,14.13,2.46l6.83-6.82,9.45,8.17,18.05-1.14,13.73-.39c7.32-.16,16.85,26.33,17.51,32.23,1.51,1.71,4.93,5.46,6.14,7.88l5.84,11.72,2.69-14.11c1.99-10.43,1.26-19.57-1.2-29.29-3.19-12.63-9.17-20.02-17.8-29.36-4.25-4.6-6.13-11.53-14.95-12.97l-20.95-3.41-2.64-5.07-10.07,2.27c-2.28.51-6.17,3.96-8.49,4.19-1.99.19-5.94-3.42-8.09-3.96-3.38-.85-9.84,3.05-13.84,4.91l-6.12-4.35-4.09,4.2c-.84.86-4.68-1.7-5.72-1.09-3.89,2.28-10.9,7.53-14.96,10.3-10.52,7.16-11.77,5.78-15.51,24.82l-4.52,23.01c-1.86,9.45,3.6,5.78,6.63,23.62-2.11,3.05-3.98,4.99-3.53,6.82.57,2.33,6.55,4.86,6.98,3l2.72-11.7c1.64-7.04,5.53-14.09,8.78-19.31l7.83-12.59c1.52-2.45,1.7-10.03,4.28-10.58l9.59-2.08ZM175.93,148.03l13.19-16.8,2.53-14.07-10.31-10.49c1.13-4.16-8.67-27.49-10.68-30.94-1.87-3.21-12.32-2.06-15.12.18l-3.98,22.3c-8.05,5.91-11.54,14.6-9.02,25.29l19.83-14.17,12.22,3.6c-2.39,9.42-11.64,17.5-22.08,18.87-3.83.5-13.07-2.87-14.22-6.5-2.31-7.29-.82-19.05,3.34-24.33,3.88-4.93,5.44-7.68,7.19-13.96,1.62-5.8-.82-14.39-6.36-15.29-2.41-.39-7.3,2.56-8.89.96l-5.99-6.03-5.27,4.74c-1.02.92-4.03-1.08-6.34-2.19-6.81-3.26-10.92,5.32-12.67,2.2l-2.84-5.07c-.4,11.71,3.76,21.27,10.72,31.11,2.42,3.43,15.37,27.02,9.88,30.97-5.11,3.68-15.57,8.99-22.04,6.05-7.63-3.47-15.45-16.31-12.57-19.43,1.3-1.41,6.21-4.23,8.17-4.18l21.45,14.62c3.1-6.46-10.28-26.46-13.01-30.88-4.17-6.76-5.63-14.54-8.5-23.9-7.35,5.31-9.04,12.58-12.13,19.19l-5.21,11.15c-.6.77-2.99.94-3.31,1.92l-1.69,5.34c-1.97,6.2-4.53,14.15-5.34,19.54l24.18,23.83c7.04-2.17,14.67-3.16,22,.13,9.51,4.26,6.95,14.07,12.09,13l6.44-1.33c2.9-.38,10.57.91,12.04-1.68,1.74-3.07-.58-8.94-2.41-12.48l6.44.57c8.59-4.42,18.91-4.99,28.25-1.83ZM166.19,116.49c.52-1.23-4.65-3.24-5.75-2.36l-13.56,10.82c7.48,4.35,16.07-.81,19.31-8.46ZM110.02,128.39l-17.17-12.45c.18,5.42,2.01,9.54,5.28,11.95s7.2,2.72,11.89.49ZM195.56,152.17c7.85-6.19,8.68-18.42,2.12-28.07-2.56,9.05-2.67,17.83-2.12,28.07ZM66.22,159.1c-7.33-17.04-3.3-29.59-7.92-32.05-1.25-.67-4.77-.49-5.96.29-1.19.78-1.44,4.36-.9,6.11l8.06,26.41c.37,1.2,3.67,2.95,4.84,3.22.89.21,2.33-2.94,1.88-3.98ZM91.6,164.36c-7.07-13.48-15.11-21.49-25.05-30.39-6.05,10.74,21.2,34.79,25.05,30.39ZM179.49,162.96c9.21-4.66,11.98-13.4,9.52-23.2l-8.69,11.25c-1.08,1.4-3.83,4.54-3.23,6.03l2.39,5.93ZM134.51,194.38c13.29-1.28,24.48-10.41,34.46-18.17,13.06-10.15-.45-13.27,3.19-26.11l-20.86,1.82-2.94,10.98c-7.02,9.72-24.53,10.45-31.33.39-6.12-9.04-13.87-12.5-22.07-7.9l.46,14.1c.1,3.15,23.42,26.4,39.1,24.89ZM97.76,191.18c3.69-6.71,1.06-11.54-3.08-14.91l-23.17-18.86,8.29,29.4,17.95,4.38ZM185.55,165.62l-14.67,16.39c-1.07,1.2-.19,7.82,1.38,7.51,10.59-2.08,12.3-12.57,13.28-23.9ZM123.08,237.17c2.56,1.81,10.22,1.44,11.71-.11l-1.28-34.92-26.62-10.11c-2.19,3.07-5.8,5.55-8.04,5.3l-15.68-1.68c.62,7.77,3.64,15.83,10.13,20.42l29.79,21.09ZM176.65,199.2c-5.44.64-9.06-1.63-13.2-3.71-7.61-1.21-16.87,2.12-25.15,5.15l2.12,36.96c24.53-5.71,33.79-17.58,36.22-38.4Z"/>
  <path d="M125.43,159.34c-3.14-10.14-4.7-20.08-.33-30.09,3.71,9.99,4.29,19.31.33,30.09Z"/>
  <path d="M134.27,158.49c-4.08,8.1-4.96-38.26-.69-33.23,1.38,11.96,1.26,21.34.69,33.23Z"/>
</svg>