<?xml version="1.0" encoding="UTF-8"?>
<svg id="Calque_1" data-name="Calque 1" xmlns="http://www.w3.org/2000/svg" viewBox="0 0 256 256">
  <path d="M159.11,126.61c6.01,16.14-23.74,7.75-40.68,15.19l-22.66-11.54c-.33-3.51,1.49-10.82,3.95-12.63,6-3.26,13.86,6.55,18.6,6.27l30.9-1.82c4.27-.25,8.78,1.55,9.89,4.53ZM109.87,127.3c0-.7-.57-1.27-1.27-1.27s-1.27.57-1.27,1.27.57,1.27,1.27,1.27,1.27-.57,1.27-1.27ZM117.74,130.46l2.94,4.75c.47.76.36-3.17.24-4.05-.08-.58-3.53-1.27-3.18-.71Z"/>
  <path d="M167.77,226.12c-16.04,20.4-51.57,31.17-73.99,12.5l-6.96-14.72-21.43-1.44,1.63-19.86-25.2-12.19c4.21-12.18,11.21-20.08,20.47-29.14l-26.97-28.96c-1.48-1.59-1.12-8.14-.13-9.79,16.87-4.39,23.13,5.11,34.77.52-4.68-16.62-8.93-29.62-15.12-45.53-1.52-3.91-.82-10,.22-15.44,17.87.06,25.48,16.31,33.32,11.06l.13-30.42c.05-10.27-1.07-20.6-1.94-30.83,2.46-1.39,6.24-3.44,8.15-4.07,6.82-2.27,33.16,42.65,37.61,51.25l16.95-20.46c4.25-5.12,8.98-12.01,14.76-14.93l17.88-9.04c5.73,21.94.73,38.65-8.43,59.47,15.76,3.79,31.29,5.74,48.15,7.24-2.06,11.49-10.82,19.61-20.52,25.66l-12.08,7.54,13.16,10.61c5.36,4.32,10.53,9.52,14.75,15.38-11.56,4.84-17.96,7.3-26.96,14.63l27.97,17.32c-.69,22.33-21.44,18.82-30.79,29.88,6.66,10.93,12.46,21.3,12.83,32.81-10.38,5.34-23.62-.65-32.23-9.07ZM163.83,28.17l2.96,4.8c.47.76.36-3.16.24-4.04-.08-.58-3.49-1.23-3.2-.76ZM99.17,38.53l-2.5-7.7c-.25-.76-3.04,1.52-3.7,2.19l6.2,5.51ZM156.99,39l4.83-6.15c-1.53.2-5.62,2.54-5.99,3.82-.25.88,1.36,6.63,1.16,2.33ZM119.44,48.51c-2.15-6.02-4.6-9.62-7.65-12.83,2.15,6.02,4.6,9.62,7.65,12.83ZM169.33,34.72l-2.65,1.59,5.48,9.14,2.65-1.59-5.48-9.14ZM95.16,40.74l-3.24,1.95,5.48,9.14,3.24-1.95-5.48-9.14ZM103.86,43.1c0-.7-.57-1.27-1.27-1.27s-1.27.57-1.27,1.27.57,1.27,1.27,1.27,1.27-.57,1.27-1.27ZM144.3,55.26l9.6-12.15c-6.18.9-11.49,5.77-9.6,12.15ZM171.82,62.46c-3.57-6.35-6.51-10.65-9.68-14.84,1.87,7.13,4.9,12.2,9.68,14.84ZM94.84,54.12c0-.7-.57-1.27-1.27-1.27s-1.27.57-1.27,1.27.57,1.27,1.27,1.27,1.27-.57,1.27-1.27ZM183.48,109.29c-9.18-19.9-19.91-38.11-31.85-56.02,9.36,19.34,18.19,38.1,31.85,56.02ZM105.86,57.13c0-.7-.57-1.27-1.27-1.27s-1.27.57-1.27,1.27.57,1.27,1.27,1.27,1.27-.57,1.27-1.27ZM99.85,59.14c0-.7-.57-1.27-1.27-1.27s-1.27.57-1.27,1.27.57,1.27,1.27,1.27,1.27-.57,1.27-1.27ZM127.91,61.14c0-.7-.57-1.27-1.27-1.27s-1.27.57-1.27,1.27.57,1.27,1.27,1.27,1.27-.57,1.27-1.27ZM107.11,82.49l-13.43-22.36c-1.98,5.13,1.04,9.08,4.6,12.26l8.84,10.09ZM109.87,63.15c0-.7-.57-1.27-1.27-1.27s-1.27.57-1.27,1.27.57,1.27,1.27,1.27,1.27-.57,1.27-1.27ZM185.15,131.17c-3.94-14.45-11.74-27.38-19.67-41.22-5.83-10.16-9.23-20.82-18.21-29.07,10.27,23.01,23.74,49.17,37.89,70.29ZM168.01,67.15c0-.7-.57-1.27-1.27-1.27s-1.27.57-1.27,1.27.57,1.27,1.27,1.27,1.27-.57,1.27-1.27ZM132.91,75.4l.83-5.33c.13-.82-2.41-.65-4.12-.69l3.29,6.03ZM80.5,82.19c-1.74-4.16-5.22-8.05-9.83-8.3l14.68,19.87-4.85-11.57ZM69.78,79.18c0-.7-.57-1.27-1.27-1.27s-1.27.57-1.27,1.27.57,1.27,1.27,1.27,1.27-.57,1.27-1.27ZM99.29,83.49c-.32-5.4-2.54-7.13-5.81-5.78l5.81,5.78ZM113.88,79.18c0-.7-.57-1.27-1.27-1.27s-1.27.57-1.27,1.27.57,1.27,1.27,1.27,1.27-.57,1.27-1.27ZM69.69,90.29l-7.38-11.68c-1.04,6.74,2.1,11.79,7.38,11.68ZM91.83,81.19c0-.7-.57-1.27-1.27-1.27s-1.27.57-1.27,1.27.57,1.27,1.27,1.27,1.27-.57,1.27-1.27ZM176.76,87.63c2.27-4.96,3.23-6.78,2.25-6.83l-5.29-.29,3.04,7.13ZM193.94,102.59l-11.55-21.84c1.3,9.39,6.01,16.4,11.55,21.84ZM201.45,100.37l-11.39-18.68c1.75,8.83,6.33,14.67,11.39,18.68ZM101.59,94.8c-1.95-5.01-4.69-7.75-7.89-9.26,1.46,5.34,3.93,9.71,7.89,9.26ZM99.13,234.77c16.84,18.44,61.84,4.96,65-17.14l-11.65,5.56,9.88-16.79,2.37,11.87c2.91-7.64,1.23-15.24,2.4-21.69,3.21-17.63,2.82-32.44.23-49.78-2.89-19.35-3.64-39.46-20.61-53.37-5.45-4.47-17.88-8.6-25.98-6.97-7.47,1.51-20.52,11.02-22.5,18.43-4.11,15.41-6.34,29.91-8.58,44.23,4.04-6.7,7.29-10.72,13.33-13.04l-6.95,12.16,21.27,1.37,4.17-6.38c6.07,7.12,2.24,20.66-5.65,22.71-13.06,3.4-20.19-3.81-25.78-14.83-3.05,11.39-1.36,21.34-1.44,32.28-.14,17.49-2.62,37.01,10.5,51.37ZM205.99,88.47l2.92,4.65c.48.76.33-3.19.21-4.07-.08-.59-3.5-1.15-3.14-.58ZM91.94,109.19l-16.71-20.21,15.11,24.74,1.6-4.53ZM87.55,131.02c-5.33-10.8-11.37-21.25-17.77-31.35,1.79,13.05,8.84,22.52,17.77,31.35ZM79.8,105.25c0-.7-.57-1.27-1.27-1.27s-1.27.57-1.27,1.27.57,1.27,1.27,1.27,1.27-.57,1.27-1.27ZM166,107.25c0-.7-.57-1.27-1.27-1.27s-1.27.57-1.27,1.27.57,1.27,1.27,1.27,1.27-.57,1.27-1.27ZM88.6,123.41c.78-7.72-2.54-11.17-7.5-14.12,2.19,5.52,4.72,10.32,7.5,14.12ZM172.85,129.31c-.51-4.05-1.38-6.33-2.81-8.05l2.81,8.05ZM193.15,131.49l.61-7.08c.14-1.64-3.69-2.76-6.01-3.29l5.4,10.37ZM48.32,138.17c.05-7.86-2.74-13.27-9.65-9.96l9.65,9.96ZM58.34,143.77c.57-7.16-.93-13.49-8.75-17.04l8.75,17.04ZM71.62,127.06l-2.76,2.01,8.89,12.19,2.76-2.01-8.89-12.19ZM81.81,131.31c0-.7-.57-1.27-1.27-1.27s-1.27.57-1.27,1.27.57,1.27,1.27,1.27,1.27-.57,1.27-1.27ZM59.88,130.67c3.2,13.31,12.4,22.79,22.46,31.73-2.59-13.22-10.46-9.02-22.46-31.73ZM206.1,139.33c0-.7-.57-1.27-1.27-1.27s-1.27.57-1.27,1.27.57,1.27,1.27,1.27,1.27-.57,1.27-1.27ZM83.13,152.55c-3.7-7.45-6.89-10.87-12.24-12.34,4.4,5.76,8.21,9.08,12.24,12.34ZM185.29,150.79c-2.5-6.46-3.46-8.56-5.22-11.62,1,4.8,2.87,8.4,5.22,11.62ZM117.24,154.71l-9.74,4.09-8.06-5.94c-2.36,9.28,12.2,9.45,17.11,8.81,1.64-.21,2.23-7.61.69-6.96ZM176.2,183.19c11.04-2.07,9.69-12.05,8-16.36-.52-1.31-4.7-3.16-5.75-2.19-3.55,3.26-3.81,16.12-2.24,18.55ZM63.64,166.61l2.94,4.69c.47.75.33-3.18.22-4.06-.08-.59-3.46-1.11-3.16-.63ZM73.79,167.39c0-.7-.57-1.27-1.27-1.27s-1.27.57-1.27,1.27.57,1.27,1.27,1.27,1.27-.57,1.27-1.27ZM59.58,170.42c.31.78,2.47,4.02,2.61,3.39.15-.65.45-1.77.65-2.37s-3.5-1.64-3.26-1.02ZM83.89,177.6c-.13-2.67-5.38-6.81-7.24-5.66-5.49,3.39-2.94,14.16-1.15,14.26l7.15.39c1.64.09,1.38-5.93,1.24-8.99ZM191.25,183.73v-9.99s-3.47,5.1-3.47,5.1c-.72,1.06,2.76,4.33,3.47,4.89ZM184.05,187.44c0-.7-.57-1.27-1.27-1.27s-1.27.57-1.27,1.27.57,1.27,1.27,1.27,1.27-.57,1.27-1.27ZM83.81,211.5c0-.7-.57-1.27-1.27-1.27s-1.27.57-1.27,1.27.57,1.27,1.27,1.27,1.27-.57,1.27-1.27ZM172,212.24c.57,1.36,2.19,4.18,2.4,3.63.28-.73.8-1.69.6-2.15-.23-.51-3.24-2.05-3-1.47Z"/>
  <path d="M130.68,227.9c-12.55,8.97-3.98-2.48-17.79-9.96l-10.92-5.91c18.03-17.63,59.55-5.97,53.48.49l-2.81,2.99c-.7.74-3.06-2.72-3.56-3.36-2.36,3.09-5.65,6.64-9.12,9.12l-9.28,6.63ZM122.9,208.49c0-.7-.57-1.27-1.27-1.27s-1.27.57-1.27,1.27.57,1.27,1.27,1.27,1.27-.57,1.27-1.27ZM131.79,215.27l-1.74-6.89c-.29-1.14-3.7-.51-4.47-.24l6.21,7.12ZM140.23,215.92c3.69-3.5,4.12-5.37,2.55-6.23l-2.55,6.23ZM133.93,219.52c0-.7-.57-1.27-1.27-1.27s-1.27.57-1.27,1.27.57,1.27,1.27,1.27,1.27-.57,1.27-1.27Z"/>
  <path d="M137.72,163.48c-8.43-2.65-12.15-17.14-2.83-21.49v6.77c11.51,2.45,18.02-.94,24.7-11.23l2.08,24.5c-6.81,1.74-16.63,3.75-23.95,1.44ZM136.46,154.75c2.86,8.83,14.16,6.08,17.39,2.95,1.11-1.08-1.84-7.38-2.78-6.15l-3.31,4.31c-6.74,8.78-3.39-4.82-11.3-1.11Z"/>
  <path d="M123.95,194.46c-5.09-7.67-5.22-17.78.39-26.58l2.47,18.25,2.07-19.13c8.95-.38,3.04,27.61-4.94,27.47Z"/>
  <path d="M147.01,117.48c-11.37,3.25-28.92,5.85-37.5-5.6,4.81-.11,9.85,1.88,14.81,4.28,7.21-.04,14.01-1.62,22.69,1.32Z"/>
  <path d="M160.34,172.14l-16.33,2.41c6.26-8.93,20.58-9.5,18.36-5.8l-2.03,3.39Z"/>
  <path d="M142.74,111.58c-9.87,3.26-21.57.13-28.25-8.21l28.25,8.21Z"/>
  <path d="M97.15,203.88l3.93,16.99c-2.63-.88-5.99-3.39-7.12-5.57-1.89-3.67-.1-9.99,3.19-11.42Z"/>
  <path d="M114.63,177.63c-1.7,1.24-6.73,2.13-10.24,1.74-3.11-.35-6.48-4.39-7.35-8.63l17.59,6.89Z"/>
</svg>