<?xml version="1.0" encoding="UTF-8"?>
<svg id="Calque_1" data-name="Calque 1" xmlns="http://www.w3.org/2000/svg" viewBox="0 0 256 256">
  <path d="M165.6,205.03c-5.68,8.66-7.22,22.65-15.83,28.31-11.8,7.75-28.56,7.08-42.36,5.22-14.12-17.7-26.45-40.84-30.59-62.06-11.38-8.51-19.23-18.1-13.91-34.42l-8.76-32.49-8.88-30.2,11.46,5.32-1.95-33.27c7.04-1.25,11.26,3.23,16.31,9.68l5.62-15.57c11.14-2.5,4.27-10.42,11.89-20.5l10.51,17.38,7.62-18.16c3.77,2.88,5.73,5.21,9.7,9.95l6.26-12.85c8.69-17.86,6.7,16.9,18.1,13.75,2-3.53,4.36-8.12,7.93-8.36l7.1,20.58,7.34-7.98,2.6-2.83c.57-.63,3.27,2.71,3.2,3.55l-1.75,19.73c4.35-3.59,7.19-6.37,11.22-6.14l-.34,29.99,13.78-15.54.4,10.42c2.67-3.84,4.83-7.29,10.51-8.15-4.18,25.01-12.83,46.81-24,68.66l7.06,1.68c10.8,2.57-11.11,34.28-11.1,34.23-3.4,9.57-2.59,20.06-9.16,30.07ZM131.7,200.61c13.87-1.67,23.96-13.8,33.14-22.83,1.33-1.3,4.99-3.82,4.89-6.01l-1.7-36.39c-6.11,4.26-4.89,10.07-6.46,16.14-2.92,11.3-16.32,13.85-26.56,10.35-2.11-.72-5.67-2.36-5.24-3.86,3.67-12.83,1.28-15.57,5.09-19.34,9.87-9.79,21.99,3.12,29.41-10.63l-15.97-28.49-10.15,6.44c-1.24,8.76-5.69,16.83-13.91,20.47l-9.68-9.64-1.55,4.62c-.57,1.7,11.98,10.04,8.77,18.3l-18.92-27.21,11.46,4.35c-5.51-8.24-8.01-11.97-11.29-18.36-14.79,20.38-4.14,10.54-15.99,26.85-.86,1.19-2.37,4-2.91,5.17-.4.88,3.26,1.85,4.3,2.44,16.66,9.33,22.98-1.66,30.04,15.53,1.32,3.22,3.52,6.48,6.45,11.04-5.39,1.9-12.76,4.71-18.49,6.17-10.88,2.77-18.3-9.33-18.73-18.54-.26-5.59-1.82-9.78-5.35-13.73-2.65,9.6-.48,50,1.83,56.52,5.86,16.53,15.38,30.69,25.18,45.36,12.05,1.14,26.58,1.18,37.3-4.96,5.83-3.34,8.35-14.16,10.51-20.38-20.28,18.27-30.72,24.45-57.23,7.93l-7.76-22.95c-1.61-4.76-7.39-8.58-4.62-14.07,16.8,9.92,17.46,22.91,44.14,19.7ZM156.83,148.76c0-5.81-4.71-10.51-10.51-10.51s-10.51,4.71-10.51,10.51,4.71,10.51,10.51,10.51,10.51-4.71,10.51-10.51ZM114.35,151.48c0-5.91-4.79-10.69-10.69-10.69s-10.69,4.79-10.69,10.69,4.79,10.69,10.69,10.69,10.69-4.79,10.69-10.69ZM184.4,145.49l-9.58.25c-1.49,7.98-2.13,12.22.12,20.98,4.12-7.6,5.65-11.32,9.46-21.23ZM76.62,152.22c-1.03-2.22-7.09-4.83-9.73-5.51-2.61,9.61.43,18.74,10.06,23.28.89-4.69,1.65-13.5-.33-17.77ZM164.25,197.4l2.64-5.88c.38-.84-1.54-3.55-1.34-2.53l-2.63,5.85c-.39.86,1.49,3.55,1.32,2.56ZM145.36,202.62c0-.66-.54-1.2-1.2-1.2s-1.2.54-1.2,1.2.54,1.2,1.2,1.2,1.2-.54,1.2-1.2ZM114.2,218.66c0-1.16-.94-2.1-2.1-2.1s-2.1.94-2.1,2.1.94,2.1,2.1,2.1,2.1-.94,2.1-2.1ZM134.88,221.46c-4.4-.69-8.24-.67-11.61.06,4.4.69,8.24.67,11.61-.06Z"/>
  <path d="M128.24,141.23c-3.56-6.82,9.84-14.26,16.55-26.8,1.17,5.72-2.23,11.08-6.28,15.53l-10.27,11.28Z"/>
  <path d="M133.93,192.19c-3.4-4.01-4.83-10.55-3.9-16.64,5.94,3.09,7.54,9.91,3.9,16.64Z"/>
  <path d="M141.4,191.06l-3.34-8.12c1.25-7.1-1.21-11.78-5.15-17.19,6.81.7,8.95,7.14,8.23,13.19l.26,12.12Z"/>
  <path d="M117.58,190.93c-.66-6.12.33-11.68,2.33-17.4,4.29,5.58,4.14,12.2-2.33,17.4Z"/>
  <path d="M113.46,188.56c-1.92-1.62-3.08-2.25-2.91-2.85l.94-3.33c1.53-5.4-1.24-11.68,6.13-15.7l-4.15,21.87Z"/>
  <circle cx="146.2" cy="149.96" r="3.91"/>
  <circle cx="103.64" cy="152.91" r="4.27"/>
</svg>