<?xml version="1.0" encoding="UTF-8"?>
<svg id="Calque_1" data-name="Calque 1" xmlns="http://www.w3.org/2000/svg" viewBox="0 0 256 256">
  <path d="M134.17,236.72c-13.4,3-24.52,2.1-35.22-5.5l-18.4-13.07-15.78-27.45-6.74-13.62c-4.99-3.06-11.38-7.31-11.78-12.84-1.51-21.07-5.35-42.69,12.07-54.07-1.55-31.45,4.23-53.47,27.19-74.72,21.93-20.31,26.17-19.83,57.82-14.99,8.22-1.13,15.11.57,21.57,5.27,27.5,11.14,17.38,38.51,31.16,59.37,1.9,17.06,4.08,34.87,2.19,52.02l-4.21,38.33-1.95,18.82c-1.51,14.54-16.27,33.14-29.1,36.01l-28.84,6.45ZM67.62,184.23l16.93,29.92,15.35,10.43c13.62,9.25,24.66,7.88,38.83,6.1,22.4-2.81,42.8-14.8,45.06-39.91l3.05-33.78,4.26-19.74c3.46-16.06-.12-33.13-1.61-48.92-16.96,5.03-17.36-3.11-38.17,4.18-8.71,3.05-1.79-18.15,35.49-7.45l-7.19-29.45c-4.84-19.81-20.33-31.19-39.91-30.01-9.77.59-21.75-4.42-31.36.23-31.82,15.4-47.13,49.21-43.05,83.36l8.29,4.27c.95.49,1.47,5.03.42,5.19-7.18,1.11-11.04-6.32-16.99-.72-2.22,2.09-4.5,7.77-4.1,9.78,3.97-3.15,6.85-6.04,8.98-5.79,1.77.2,5.27,2.81,6.44,4.22,6.34,7.65.76,16.42-5.33,23.25.02,1.76,4.93,4.21,8.02,5.95.08,2.55-7.84,5.66-10.3,3.97-13.37-9.17,10.39-27.51,1.4-27.22l-4.82.16c-2.42.08-4.98-.65-4.91.77l.28,5.53.34,21.98c.05,3.01,3.24,8.73,5.84,9.45,8.09,2.23,13.05-7.71,16.32-1.73,4.26,7.78-14.2,4.23-7.55,15.98Z"/>
  <path d="M102.5,102.06c2.44,5.77,3.62,8.74,7.73,10.61,5.62,2.56,10.03,3.06,14.13,1.18,3.75-1.72,7.8-9.71,3.37-12.57-11.8-7.63-32.73,6.52-32.86-4.21,9.67-3.65,34.16-8.86,40.92-.2,1.89,2.41,2.67,10.57,1.05,13.39-2.73,4.76-10.89,11.06-16.54,11.05-5.32,0-19.44-5.78-21.9-12.57-.54-1.5,1.54-4.18,4.09-6.68Z"/>
  <path d="M183.68,117.12c-6.61,8.47-15.5,9.34-23.63,4.88-5.88-3.22-13.72-11.74-9.01-20,5.06-8.89,27.66-4.8,34.42,2.22,2.25,2.34.87,9.52-1.77,12.9ZM178.63,106.46c-14.37-8.06-23.63-4.21-23.1-.79.26,1.68,1.6,5.45,2.78,7.18,3.04,4.48,9.52,6.09,14.09,5.13,3.62-.76,9.45-9.73,6.24-11.53Z"/>
  <path d="M147.33,173.49l-2.29,2.65c-.62.72-3.6,1.08-3.46.14,1.6-10.72,9.15-12.06,5.62-20.58-5.32-12.83-11.5-26.15-1.5-39.36l2.68,26.88c5.95,10.6,7.73,20.12-1.05,30.27Z"/>
  <path d="M137.72,86.78c-10.27,4.94-14.79-5.25-39.02,2.55-2.99.96-7.99-1.06-9.09-4.18,12.96-6.73,34.29-6.65,46-2.84.85.28,2.87,4.1,2.1,4.46Z"/>
  <path d="M148.42,188.9l-21.56,1.58c7.77-11.39,22.04-9.57,34.33-8.01-2.35,5.97-6.92,6-12.77,6.43Z"/>
  <circle cx="118.58" cy="107.26" r="3.96"/>
  <circle cx="167.06" cy="110.46" r="4.36"/>
</svg>