<?xml version="1.0" encoding="UTF-8"?>
<svg id="Calque_1" data-name="Calque 1" xmlns="http://www.w3.org/2000/svg" viewBox="0 0 256 256">
  <path d="M174.85,221.36c-8.87,11.15-19.06,20.4-31.47,23.26l-23.51,5.42c-4.71-1.33-13.55-4.56-18.02-6.36-1.82-9.09-9.09-9.5-14.14-13.92-13.5-11.78-16.63-32.44-19.46-49.46-18.46-6.54-16.04-25.82-10-40.83-2.66-3.68-11.98-10.05-12.94-15.61-5.5-31.79,9.15-34.6,25.8-54.63,2.23-6.54-2.27-20.29-6.93-25.99-11.6-3.73-23.17-13.86-17.85-25.99l27.6-11.28c25.29,17.01-8.1,32.59,22.19,51.53,11.92-3.35,68.74-3.75,74.24-1.19,6.67,3.1,17.71,7.51,25.38,11.78,12.8,7.14,22.46,29.96,23.64,46.16,1.11,15.23-11.87,26.04-21.27,35.44,7.38,7.66,6.78,31.01,2.65,34.92-2.72,2.58-8.72,2.73-12.98,1.66-3.89,10.55-5.21,25.37-12.94,35.09ZM72.37,25.65c0-2.13-1.73-3.86-3.86-3.86s-3.86,1.73-3.86,3.86,1.73,3.86,3.86,3.86,3.86-1.73,3.86-3.86ZM131.18,78.8c0-.72-.58-1.3-1.3-1.3s-1.3.58-1.3,1.3.58,1.3,1.3,1.3,1.3-.58,1.3-1.3ZM85.19,85.95c0-.72-.58-1.3-1.3-1.3s-1.3.58-1.3,1.3.58,1.3,1.3,1.3,1.3-.58,1.3-1.3ZM137.6,187.15c8.6-.83,18.49-.86,22.98,5.54,12.65,18.05-3.05,22.51-2.65,34.18,9.51-6.99,14.64-16.56,17.49-28.21,7.21-29.48,12.47-39.05.28-66.61l7.66-10.23c-10.77-8.91-26.21-13.16-40.19-11.86-3.32.31-10.03-2.9-13.12-3.29-34.07-4.37-15.41-5.43-50.35,5.51,21.1,45.02-19.81,11.46,2.32,93.27l14.08-17.22,14.56-.49c.09-1.29.34-4.83.34-4.8l20.38-1.67c1.88-.15,5.16.19,5.41,1.56l.8,4.33ZM66.3,116.26c.52.79,2.27,4.13,2.48,3.39.29-1,.65-2.44.77-3.2s-3.67-.82-3.25-.19ZM68.15,145.55c1.81.21-.69-.08-2.68-.31-4.77,8.08-4.72,19.06.99,25.92l1.69-25.61ZM194.08,155.33l-5.52,23.64,4.58,2.02c4.3,1.9,4.46-26.4.94-25.66ZM128.68,195.13l-2.95-7.44-3.99,5.96c-.44.66-.64,1.5.11,1.5h6.83ZM104.51,226.01c6.94,2.24,19.12,9.2,26.15,6.3l9.79-4.04c.86,5.5,1.09,10.11,2.84,9.49,1.4-.5,6.02-2.78,6.51-4.3l8.43-26.02c.74-2.27-.27-8.56-2.09-10.09-1.82-1.52-6.53-1.75-8.63-1.73l4.51,4.6c-2.45-2.49-3.85,22.69-23.31,19.94-14.16-2-27.67-5.88-34.48-20.17-7.76,2.35-6.65,22.29-1.06,26.08,2.29,1.56,8.46-.02,11.35-.07ZM138.5,203.85c-1.21-2.9-1.69-4.61-2.3-4.31-.61.3-3.04,1.35-3.76,1.58-5.44-.1-10.36-.7-16.17,1.48l22.22,1.26ZM137.3,208.64l-26.51.42c8.98,3.75,19.22,9.64,26.51-.42Z"/>
  <path d="M155.63,131c-13.48-14.37-27.91-1.93-45.44-8.71l-17.83,3.28c.33-10.59,17.67-5.25,15.49-8.83l-3.8-6.24,21.08-.85c14.16-.57,28.56,6.04,41.98,10.03-4.64,7.33-9.05.93-17.53.82,6.34,3.79,12.48,5.49,22.6,8.93l-16.56,1.56ZM147.05,119.66l-15.72-5.13c-4.64-1.51-9.88-2.14-13.96,4.07l29.69,1.06Z"/>
  <path d="M119.99,162.08c-10.22,6.96-19.07,10.73-29.04,5.19l7.58-6.41c-7.7-.47-11.83-.26-17.02-3.6,17.55-10.92,21.56-12.08,42.29-17.32l-8.62,16.24,4.44-.38c.96-.08,1.36,1.57,2.23,3.26,1.46,2.21,4.12,4.31,3.78,6.16-.44,2.39-3.82,6.76-5.57,8.16l-.07-11.3Z"/>
  <path d="M163.04,165.09c-6.09,4.51-11.56,8.44-19.81,4.9-6.02-2.58-7.4-11.01-7.95-18.14-.21-2.7-1.84-7.5.13-9.26l30.89,15.16c1.35.66,3.23,4.41,3.48,5.8s-5.14,1.22-6.74,1.53ZM156.73,163.62c0-.72-.58-1.3-1.3-1.3s-1.3.58-1.3,1.3.58,1.3,1.3,1.3,1.3-.58,1.3-1.3Z"/>
  <path d="M158.83,137.03c-32,4.14-23.23-8.34-43.8-4.82l-16.01,2.74c8.86-6.98,21.82-9.37,30.63-6.17,25.05,9.12,20.13.11,29.18,8.25Z"/>
</svg>