<?xml version="1.0" encoding="UTF-8"?>
<svg id="Calque_1" data-name="Calque 1" xmlns="http://www.w3.org/2000/svg" viewBox="0 0 256 256">
  <path d="M174.41,222.55c-7.47-5.29,10.04-9.5,9.19-20.92-6.89,7.15-11,16.24-23.92,13.8,1.58-15.03,5.8-29.29,11.27-44.63-17.71,16.79-31.22,36.61-53.35,48.17-12.68,6.63-34.36-2.15-41.44-14.15-5.83-9.88-5.03-22.05-8.11-33.06l-8.89,19.83-6.09-4c-3.35,2.79-9.5,6.19-12.78,6.15l5.68-29.48c6.79-35.24,18.16-68.33,27.64-103.27,3.3-12.17,6.71-25.68,23.77-27.33s38.58-1.82,55.7,3.89l26.44,8.81c4.81,1.6,14.02-1.8,17.92-2.8,3.67,11.76,22.58,6.52,22.89,17.89,1.7,61.31-1.48,17.89-10.76,60.8-3.14,14.51-6.63,27.46-10.98,41.68-2.63,8.59-2.34,18.46-3.64,28.33-.95,7.22-12.16,36.22-20.53,30.28ZM74.78,85.34l36.73-45.32c1.33-6.74-47.84,49.08-36.73,45.32ZM111.35,60.95c8.06-6.44,14.3-13.41,16.65-22.2-7.5,7.21-12.33,14.39-16.65,22.2ZM143.15,41.86l-9.84,9.84,2.19,2.19,9.84-9.84-2.19-2.19ZM129.23,50.61c0-.77-.62-1.39-1.39-1.39s-1.39.62-1.39,1.39.62,1.39,1.39,1.39,1.39-.62,1.39-1.39ZM168.29,49.52l-15.3,15.3,2.19,2.19,15.3-15.3-2.19-2.19ZM100.95,65.93l9.18-12.43c-5.78.77-10.69,6.48-9.18,12.43ZM132.09,105.37l48.91-52.5c3.3-13.23-61.74,59.2-48.91,52.5ZM80.25,62.52c5.46-1.05,7.63-3.64,6.5-7.89l-6.5,7.89ZM186.06,55.47c.31,1.63.78,4.04,1.48,3.24l2.5-2.86c.47-.54-4.12-1.07-3.99-.39ZM189.91,73.54l13.15-15.91c-1.31-.77-4.74-2.75-5.2-1.8s-1.65,4.4-2.52,5.41l-28.5,32.81c8.94-4.06,15.93-11.89,23.06-20.51ZM122.67,59.35c0-.77-.62-1.39-1.39-1.39s-1.39.62-1.39,1.39.62,1.39,1.39,1.39,1.39-.62,1.39-1.39ZM129.86,57.29l-3.41,5.19c-.38.58,2.02.66,2.51.2.52-.48,1.71-1.68,2.15-2.18s-.91-3.74-1.26-3.21ZM113.63,91.72c11.08-10.93,19.86-21.66,26.49-34.85-10.71,10.9-19.06,22.24-26.49,34.85ZM195.82,87.76l17.11-16.94c1.62-1.6,1.87-7.7.62-9.65-1-1.56-6.1-2.19-7.31-.61l-15.66,20.46c12.17-1.96,8.49-16.3,21.58-18.87l-16.34,25.61ZM105.79,66.07l-3.38,5.19c-.36.55,2.02.61,2.52.16s1.72-1.66,2.16-2.17-.93-3.74-1.29-3.18ZM113.93,70.29c0-.77-.62-1.39-1.39-1.39s-1.39.62-1.39,1.39.62,1.39,1.39,1.39,1.39-.62,1.39-1.39ZM122.67,70.29c0-.77-.62-1.39-1.39-1.39s-1.39.62-1.39,1.39.62,1.39,1.39,1.39,1.39-.62,1.39-1.39ZM102.37,81.5l-6.48-9.84-5.73,13.97,12.21-4.13ZM139.16,82.01c6.16-1.16,9.27-4.35,8.99-10.02l-8.99,10.02ZM134.21,74.81l-3.39,5.18c-.36.55,2.01.64,2.51.19.55-.5,1.71-1.67,2.16-2.18s-.9-3.77-1.28-3.19ZM114.49,77.05l-3.34,5.16c-.36.56,2.01.59,2.52.14s1.72-1.66,2.16-2.17-.97-3.71-1.34-3.13ZM172.96,79.03c0-.77-.62-1.39-1.39-1.39s-1.39.62-1.39,1.39.62,1.39,1.39,1.39,1.39-.62,1.39-1.39ZM78.71,96.18c2.08-2.42,3.73-9.37,3.85-12.56-6.74,9.04-12.14,16.58-15.04,25.61l11.19-13.05ZM129.23,85.59c0-.77-.62-1.39-1.39-1.39s-1.39.62-1.39,1.39.62,1.39,1.39,1.39,1.39-.62,1.39-1.39ZM204.54,96.65c6.87-5.02,10.36-7.69,10.36-13.48-4.52,3.85-8.3,8.66-10.36,13.48ZM102.64,89.75c3.41-2.73,3.06-5.14-2.7-1.88-5.28.9-3.67,1.35,2.7,1.88ZM87.68,90.52c.26,1.4.8,4,1.5,3.18l2.48-2.87c.47-.54-4.12-1.05-3.98-.31ZM151.68,90.13l-3.37,5.19c-.36.55,2.02.6,2.52.15.53-.47,1.72-1.67,2.17-2.17s-.95-3.72-1.32-3.16ZM190.47,106.04l-.69-16.88c-6.15,3.46-10.91,6.47-14.96,9.43l15.65,7.45ZM121.08,92.32l-3.37,5.16c-.37.57,2.01.62,2.51.18.52-.46,1.72-1.67,2.16-2.18s-.91-3.77-1.3-3.17ZM115.28,117.32c-.75-8.01-2.56-17.83-7.19-20.93-8.22-5.52-17.71.45-22.98,6.42,7.51,9.85,17.44,16.15,30.17,14.52ZM124.86,103.08c0-.77-.62-1.39-1.39-1.39s-1.39.62-1.39,1.39.62,1.39,1.39,1.39,1.39-.62,1.39-1.39ZM194.54,120.95c6.47-6.28,11.7-12.12,16.1-19.87-8.31,4.37-13.52,10.97-16.1,19.87ZM199.19,105.27c0-.77-.62-1.39-1.39-1.39s-1.39.62-1.39,1.39.62,1.39,1.39,1.39,1.39-.62,1.39-1.39ZM171.86,106.36c0-.77-.62-1.39-1.39-1.39s-1.39.62-1.39,1.39.62,1.39,1.39,1.39,1.39-.62,1.39-1.39ZM182.89,109.63c-1.24-4.37-4.57-5.18-8.17-3.4l8.17,3.4ZM132.37,169.6c0,3.74-9.64.62-9.92-3.01-1.09-13.87,9.2-6.94,2.78-20.28l-9.33,11.42-.58-19.58-14.2,18.45,8.41-2.38c.85,2.97-2.14,8.33-4.88,10.18-3.04,2.05-11.91-2.77-9.44-6.4l18.86-27.74-15.11-1.96,10.31-4.64c-10.73-2.19-19.34-6.95-26.37-13.71-10.49,8.85-11.14,24.27-9.62,36.99l5.25,43.76c1.09,9.05,7.17,17.11,13.63,20.49,7.37,3.85,18.39,5.72,24.65.87l26.7-20.67c8.68-6.72,41.7-44.5,39.32-54.73-11.99,1.09-20.95.61-29.06-1.3l-.98,8.53-9.83-18.4c-2.37,2.8-10.59,10.22-10.59,15.13l-.02,28.99ZM185.87,127.71c-1.94-8.42-6.35-14.86-10.59-15.41-8.38-1.1-19.76,4.03-22.74,11.67-3.13,8.03,27.88,10.93,33.33,3.74ZM59.71,137.15c6.26-7.98,8.51-10.66,7.28-17.01-4.11,4.89-6.86,11.41-7.28,17.01ZM131.97,122.97l-3.33,5.15c-.36.56,2.01.59,2.51.14.53-.47,1.73-1.67,2.17-2.17s-.99-3.69-1.35-3.12ZM183.34,157.58l9.52-10.67c3.78-4.23,7.08-9.61,8.6-15.11l-13.26,13.55-4.85,12.22ZM61.41,151.67c2.35-3.93,3.67-8.63,3.38-13.1-8.12,7.3-11.67,16.96-12.24,27.93l8.86-14.82ZM177.73,174.84c6.13-6.28,11.89-13.08,17.1-20.58l-11.93,9.45c-1.96,1.56-3.59,5.04-5.17,11.12ZM57.09,170.85c0-.77-.62-1.39-1.39-1.39s-1.39.62-1.39,1.39.62,1.39,1.39,1.39,1.39-.62,1.39-1.39ZM188.79,169.25l-2.6,5c-.48.92,4.15,1.1,4.34.08l.79-4.06c.13-.66-1.87-1.01-2.54-1.02ZM178.97,182.35c-5.68-.95-8.13,6.39-7.84,12.57l7.84-12.57ZM170.37,208.94l17.52-19.68c.87-.97,2.09-4.71,1.16-5.25l-2.36-1.38-11.23,14.58c-2.91,3.77-11.74,3.6-5.09,11.72Z"/>
  <path d="M122.02,185.32c-10.32,1.4-19.08,2.4-26.72-6.35,10.95-5.98,24.01-4.75,33.76,5.39l-7.04.95ZM115.97,180.66c-4.31-.56-8.13-.54-11.23.06,4.31.56,8.13.54,11.23-.06Z"/>
</svg>