<?xml version="1.0" encoding="UTF-8"?>
<svg id="Calque_1" data-name="Calque 1" xmlns="http://www.w3.org/2000/svg" viewBox="0 0 256 256">
  <path d="M89.85,107.22c8.04-3.6,16.37-8.88,25.74-10.86,18.57-3.94,40.98-1.27,58.44,7.57l7.96-16.95c.22-.47.94-3.19.44-3.27l-3.48-.55,4.37-23.7-10.31,12.74v-18.99c.02-7.67,5-15.01,5.47-23.84l-11.37,15.77-3.29-27.83c-5.76,6.91-9.32,12.8-13.42,20.65l-2.58-24.04-15.78,21.06c-.02-9.06-1.1-14.86-4.26-22.98l-10.88,19.62-4.23-16.81-10.52,31.59-4.69-18.21c-4.46,6.3-5.29,13.95-5.38,23.21l-7.44-10.27-1.73,21.3c-.46,5.63.02,9.28.22,17.66-3.04-2.58-5.64-5.23-8.97-8.81l12.66,32.87c-8.5-12.35-12.83-27.14-19.52-42.35,5.98,2.9,8.83,6.94,12.18,11.35l2.97-40.49,6.73,11.41,2.51-7.05c2.8-7.88,3.83-15.7,5.15-25.03l4.94,25.84,8.56-21.51,1.78-10.08c2.72,7.01,3.53,11.54,5.5,20.13,4.12-6.78,7.21-13.85,9.86-22.31l7.58,22.88,16.66-23.74c-1.44,9.47-1.79,16.66.23,25.27l15.06-20.54c-.22,6.04-1.02,10.87-.54,14.91l1.97,16.57,13.55-21.31c.12,20.52-9.51,27.07-6.22,44.5l12.19-11.52-5.87,25.5c3.16-1.33,4.63-1.88,6.6-1.93l-8.88,21.68c-16.9,41.25,5.28,36.7.97,58.94-.83,4.29-3.05,7.52-7,10.82l11.92,22.46c-.16,2.48-4.01,5.43-7.21,5.96l4.5-5.38-7.15-12.34-6.7,4.24c-1.4.89.1,5.35.93,6.87l9.31-3.99-8.32,9.15,8.79,1.53-9.24,3.27-3.95-12.9c-1.4,8.12-4.19,16.23-7.47,24.55l-10.54,26.69c-2.93,7.43-13.97,14.81-22.47,16.57-6.04-1.04-16.71-9.04-18.61-14.94l-6.36-19.8c-4.37-13.61-2.43-26.03-6.7-40.35l-10.94,17.8c-4.09-1.44-10.48-7.02-9.73-12.12,3.1,3.68,5.6,7.42,7.95,8.2,1.26.42,3.8-4.31,2.89-5.29l-3.38-3.65c-1.03-1.12-3.24-4.28-4.56-3.77l-6.81,2.63,7.54-7.81c4.29,5.06,6.36,7.34,9.93,9.96-.08-5.74-3.8-8.09-8.9-10.32l5.02-8.45c-13.94-20.76,2.91-33.34,3.86-40.13l2.46-17.53ZM122.51,115.92l2.6-17.82c-6.7.7-13.33,1.56-18.19,5.39-1.01,3.6-1.38,10.65-1.49,15.07l17.08-2.64ZM144.17,116.93l16.13,1.42,2.46-15.17c-12.22-4.64-23.07-5.15-35.43-4.51l-2.23,17.64,15.21.62,3.85-16.35v16.35ZM103.43,110.22l.23-5.03c.03-.73-1.85-.11-3.32.34-3.49,1.42-8.26,4.29-8.95,7.16-.87,3.61-.56,7.93.59,12,2.85-.31,7.55-2.16,9.21-4.14,1.45-1.74,2.1-7.35,2.24-10.33ZM171,124.32l.55-15.15c.04-1.24-4.41-5.14-4.88-3.99l-2.22,5.5c-.74,1.83-1.26,7.16-.6,9.04.66,1.89,3.7,3.01,7.15,4.59ZM118.82,167.17l1.94,5.12c.19.49,1.34-.62,1.36-1.14l.11-2.28,3.91-18.87c2.07,1.88-2.98,22.98.89,20.37l2.01-1.35c-.38-5.26-1.02-11.35.53-17.1l3.73,20.77,2.12-6.65c1.17-3.66,10.91,10.16,15.77,10.56l3.64,31.74c6.37-8.92,8.26-18.58,7.69-29.64-.18-3.51,4.98-9.61,5.94-13.25,2.82-10.69.28-21.04-1.53-31.66-.94-5.53-3.71-9.89-10.48-10.99-12.63-2.06-47.68-4.62-55.03,2.46l17.91.24-.23,11.16c-7.39-4.75-10.96-5.86-17.37-4.65l-1.73-6.8c-5.19,3.32-6.6,5.76-8.79,10.52-14.5,31.52,8.24,28.75,9.06,54.39.16,5.04.59,9.53,1.75,14l3.37-20.08c.83-4.94,13.98-1.98,18.16-5.37l-7.1-5.84c-3.71,2.51-7.23,4.63-12.09,5.56l14.45-11.24ZM85.4,141.16c4.2-4.67,5.45-8.75,5.21-13.48-5.12,3.31-8.63,8.51-5.21,13.48ZM170.04,137.55c.58-3.69.56-6.92-.05-9.75-.58,3.69-.56,6.92.05,9.75ZM172.88,148.49c.38-3.82.48-5.64.33-6.39l-.33,6.39ZM174.65,151.34l-2.45,4.62,3.45,1.83,2.45-4.62-3.45-1.83ZM82.76,156.92c.33.52,1.71,3.29,1.9,2.7l.7-2.15c.19-.58-2.93-1.07-2.59-.55ZM92.03,178.07c.89-5.84-2.72-11.24-7.22-11.15-1.61,1.99-.71,6.46,1.15,8.27,1.25,1.22,4.47,2.79,6.07,2.88ZM168.92,177.62c3.4-1.73,5.79-4.35,5.05-5.73-.57-1.05-3.25-3.23-4.03-2.31-1.48,1.75-2.59,8.15-1.02,8.04ZM125.9,179.9l20.42-.46-7.37-6.59-6.02,3.98c-1.15.76-3.54-.82-6.28-2.57l-.74,5.64ZM127.25,249.86c19.78-8.31,23.87-21.68,23.37-40.96l-.66-25.21-24.68-.74c-5-.15-12.14,1.04-17.45,1.79l-2.94,23.03c-1.09,8.53,2.66,19.41,5.46,28.34,1.69,5.39,11,12.2,16.91,13.74Z"/>
  <path d="M89.85,107.22c-.61.27-2.87-.09-2.89-.65l-.12-2.42c.27-.1,3.15,2.15,3.02,3.06Z"/>
  <path d="M118.33,141.21c2.73,4.64-2.99,10.39-6.88,10.89-5.94.77-12.33-2.63-9.85-10.03,2-5.98,13.23-6.82,16.73-.87ZM112.28,141.42c-5.95-1.85-9.39,1.17-7.67,5.58l7.67-5.58ZM115.59,143.77c0-.56-.45-1.01-1.01-1.01s-1.01.45-1.01,1.01.45,1.01,1.01,1.01,1.01-.45,1.01-1.01Z"/>
  <path d="M161.17,126.63c-.73,8.11-7.74,3.41-19.84,10.22-3.22.4-2.67-10.06,1.54-11.17,5.59-1.47,12.53-.66,18.29.95Z"/>
  <path d="M156.84,142.99c1.81,4.4-2.72,9.9-6.07,10.45-5.19.86-12.3-1.76-11.67-8.24.26-2.63,4.93-5.96,7.39-6.21,2.76-.28,9.25,1.32,10.36,4ZM153.09,148.3c2.15-3.89-3.29-6.49-6.27-5.96-2.17.38-5.33,5.09-3.81,6.19,2.15-.9,5-4.18,6.18-3.26l3.91,3.04Z"/>
  <path d="M158.88,159.03l-4.73,2.09c-.95.42-2.26-3.77-1.33-4.2,3.86-1.88,8.6-8.13,11.82-13.31,1.38,4.91-.91,13.29-5.75,15.43Z"/>
  <path d="M104.05,157.55c1.47.37-6.24,4-6.66,3.17l-1.73-3.37c-1.74-1.26-4.12-2.18-3.62-3.3.68-1.55,2.4-5.43,2.32-5.26l6.68,7.53c.36.41,2.54,1.11,3.01,1.22Z"/>
  <path d="M120.49,141.41l10.06,2.15c1.96.42,3.9-3.45,6.31-6.14,1.39,3.64-1.3,7.98-5.16,8.91-4.59,1.1-9.77-.82-11.21-4.92Z"/>
  <path d="M134.1,219.87c-1.25-3.1-10.87-3.13-12.01-.21l-4.42,12.07c-5.69-13.49-10.53-28.17-7.67-43.18,12.9-2.74,24.73-3.64,38.22-3.3,1.56,16.83-.42,31.27-6.18,47.01-4.12-2.48-5.46-6.25-7.94-12.4ZM139.33,191.63c.23,1.19.57,2.94,1.09,2.35l1.8-2.07c.34-.39-2.99-.78-2.89-.28ZM121.13,193.66c0-.56-.45-1.01-1.01-1.01s-1.01.45-1.01,1.01.45,1.01,1.01,1.01,1.01-.45,1.01-1.01ZM123.96,193.31c.42.62,2.05,3.25,1.82,2.7s1.31-2.41.72-2.47-2.88-.74-2.54-.23ZM133.8,193.66c0-.56-.45-1.01-1.01-1.01s-1.01.45-1.01,1.01.45,1.01,1.01,1.01,1.01-.45,1.01-1.01ZM141.72,196.83c0-.56-.45-1.01-1.01-1.01s-1.01.45-1.01,1.01.45,1.01,1.01,1.01,1.01-.45,1.01-1.01ZM135.15,216.18l6.09,9.67,3.81-26.16c-10.75,5.43-22,6.72-32.49-1.19-.77,5.4-.03,11.35,1.78,17.25l2.69,10.1,4.17-9.61c2.48-2.04,12.2-2.82,13.94-.05ZM121.13,198.41c0-.56-.45-1.01-1.01-1.01s-1.01.45-1.01,1.01.45,1.01,1.01,1.01,1.01-.45,1.01-1.01ZM128.23,199.2c0-.97-.79-1.76-1.76-1.76s-1.76.79-1.76,1.76.79,1.76,1.76,1.76,1.76-.79,1.76-1.76ZM131.26,198.11c-.9.09,1.36,3.58,1.99,2.94l1.83-1.86c.38-.39.73-1.55.18-1.49l-4,.42Z"/>
  <path d="M138.97,205.44c-2.02,9.07-18.39,10.93-22.35.28,7.23,4.65,13.76,4.07,22.35-.28Z"/>
</svg>