<?xml version="1.0" encoding="UTF-8"?>
<svg id="Calque_1" data-name="Calque 1" xmlns="http://www.w3.org/2000/svg" viewBox="0 0 256 256">
  <path d="M169.39,86.76c1.66,6.88,14.84,9.99,9.34,21.8-2.22,4.77-5.85,11.29-9.12,16.84l-6.01-3.2-6.07,34.8-3.93,18.4c-1.15,5.39-10.46,13.03-9.65,18.35,1.75,11.45,4.29,21.58-.44,33.17l-1.86-35.07c-8.42,10.07-13.37,14.15-23.66,13.02l-14.55-1.6c-10.12-1.11-22-6.37-26.71-16.66-4.11-8.97-3.69-20.5-2.11-29.76-2.65,4.25-5.07,5.78-4.22,1.33l-1.84-21c-1.33-15.17-5.26-27.97-8.83-42.74-3.24-13.36,5.51-30.46,13.26-40.83,4.23-5.65,12.33-8.22,17.4-12.18,6.11-4.76,14.8-9.13,19.74.8-9.77-5.12-13.19-.14-19.04,3.11-11.36,6.32-18.93,12.66-23.38,24.98-4.64,12.83-7.48,24.51-.03,37.6,8.55,15.03-5.09,31.29,15.07,51.1,11.93-.68,20.47-9.72,20.57-9.7l6.42,1.3c9.29.04,17.69.61,26.32,2.77l14.31,3.59c3.06-4.23,4.92-11,6.05-16.92l5.49-28.92c1.71-9.02,1.32-19.12,1.89-29.08.83-14.37-14.14-41.13-25.48-40.73l-26.17.93c8.86-5.76,22.67-7.38,31.03-3.27,18.5,9.1,21.68,29.05,26.21,47.78ZM165.37,119.3c3.79-1.47,8.79-6.59,9.75-10.84,1.16-5.13.36-12.29-5.22-14.37-7.36,3.93-.28,16.09-4.54,25.21ZM95.01,176.52c-.77.35,4.24-6.46,4.84-4.82l3.24,8.95c.73-1.15,3.16-4.96,3.66-4.03l3.07,5.63c3.49-4.38,8.77-6.75,14.36-8.66,3.12-1.04,6.51-8.58,7.05-11.74l-8.95-.64c-1.92-.14-4.38-5.47-5.99-8.05l-3.03,9.09c6.35-.02,8.63-.13,11.71,2.45-11.11,2.94-19.93,3.87-31.02,1.18l17.49-4.28c-1.19-2.74-7.65-4.77-10.63-3.82-3.47,1.11-7.06,4.37-10.01,6.69l-3.98,3.13c-.66.52,1.26,3.23,1.82,3.79l6.36,5.12ZM149.04,171.6c1.48-5.36,2.49-9.35,1.24-8.75-1.57.74-4.45,4.07-3.64,5.24,1.06,1.55,2.89,4.21,2.41,3.51ZM80.21,169.69c-1.19-5.84-1.64-6.59-1.56-.35l1.56.35ZM98.77,193.95c1.63-6.65,1.68-10.84.14-14.78l-.14,14.78ZM84.77,190.79l.43-10.27-3.79,5.34c-.86,1.22,2.26,5.1,3.36,4.93ZM130.12,198.51c4.73-3.12,5.49-8.48,1.77-10.02l-1.77,10.02ZM107.68,192.43c0-.99-.8-1.79-1.79-1.79s-1.79.8-1.79,1.79.8,1.79,1.79,1.79,1.79-.8,1.79-1.79ZM119.62,193.09c0-.64-.52-1.16-1.16-1.16s-1.16.52-1.16,1.16.52,1.16,1.16,1.16,1.16-.52,1.16-1.16ZM126.04,197.68c0-.64-.52-1.16-1.16-1.16s-1.16.52-1.16,1.16.52,1.16,1.16,1.16,1.16-.52,1.16-1.16Z"/>
  <path d="M182.64,111.32c-2.89-7.87,1.71-20.37-2.03-28.77l-11.69-26.3c6.92,6.45,8.64,13.64,13.43,22.21l-5.12-25.68c-2.21-11.09-4.99-21.42-11.25-31.39-1.9-3.02-11.27-.54-14.64-1.47l-30.69-8.42-9.62,5.81-2.74-1.95c-.72-.51-1.27-4.04-.41-3.85,10.79,2.34,7.47-7.19,19.13-2.65,32.95,12.82,38.32.67,44.53,13.21,4.14,8.35,7,17.85,9.26,27.39l9.4,39.74c1.87,7.9,2.41,10.79,1.87,18.38-.71,9.96,5.38,35.14,5.55,38.55l2.19,44.93c-5.88-3.79-3.08-10.25-4.45-15.52-2.48-9.52-5.39-19.24-3.87-28.94,2.12-13.52-4.45-23.2-8.88-35.27ZM187.72,98.69l-.18-5.46c-.03-1.01-2.25-1.13-3.85-1.22l4.03,6.68ZM190.1,118.06l-4.57-14.19c-2.77,6.54.11,11.32,4.57,14.19Z"/>
  <path d="M43.59,214.27c-2.56,8.3-3.44,17.3-11.46,22.77,10.69-24.06,13.29-39.36,10.08-64.69l5.14-16.52-11.25-50.22c-1.64-7.32-2.18-13.6-.35-21.56l6.74-29.33c1.82-7.91,11.45-16.22,15.82-23.3,7.27-11.77,19.2-16.83,32.01-17.83,5.68-.44,11.33-6.63,17.02-.45l-17.21,3.43c-11.67,2.33-22.73,5.83-29.61,17.57-3.39,5.78-11.89,13.46-14,20.1-4.19,13.16-6.78,26.97-8.2,40.87-1.11,10.84,4.01,22.92,6.26,33.1l6.51,29.41-6.48,14.38c3.77,14.62,3.27,28.35-1.01,42.25Z"/>
  <path d="M141.68,86.82c-.5,2.09-1.45,5.01-2.71,6.67-1.25,1.66-7.46,2.1-9.54,1.83-4.88-.64-9.17-3.5-8.36-6.88l4.23,2.99c.84.59,3.46-.02,4.41-.43,1.29-.56.64-4.84-.77-4.98l-14.82-1.49c-.71-.07-1.73-4.22-1.48-4.89l.89-2.36c.38-1,3.65,1.64,4.78,1.9l29.87-.53c1.16.05,1.68,5.68.43,5.8l-7.76.77-3.41.32c-.92.09.03,2.19.27,3.56.17.97,2.04-.95,3.96-2.29Z"/>
  <path d="M107.24,78.84c-.47,3.99-3.47,8.12-7.35,12.48-4.69,5.28-13.87,5.91-19.58,2.19l-2.34-16.09,22.51,3.7,6.75-2.28ZM89.82,87.37l-6.68-1.39c-1.6-.33-1.3,6.55.34,6.46l5.34-.32c1.31-.08,2.31-4.47,1-4.74Z"/>
  <path d="M185.51,214.17c-11.97-14.82-10.97-58.96-9.7-77.12l3.37,18.47c-2.05,19.8,1.75,37.52,6.33,58.64Z"/>
  <path d="M64.8,137.08l-2.34-5.58-3.14,29.73c-5.01-7.62.84-30.74-2.14-47.86l3.8,16.63,1.49-15.16c2.63,6.69,3.3,12.55,2.34,22.25Z"/>
  <path d="M88.53,226.87l-4.28-14.35-11.95,9.45-.47-7.72c-.53-8.55-.88-16.39-.62-24.17l4.01,27.33,11.41-9.85c1.63,6.1,2.62,11.22,1.9,19.31Z"/>
  <path d="M49.95,113.04c-3.78-17.78.86-36.73,13.91-50.98-8.12,16.49-14.77,30.73-13.91,50.98Z"/>
  <path d="M91.49,248.37c6.08-19.23.19-16.79,6.04-34.06,1.78.53,1.6,35.1-6.04,34.06Z"/>
  <path d="M168.83,217.88c-2.62-.33-5.65-40.38-3.96-42.43l3.04,18.44.91,23.99Z"/>
  <path d="M59.74,238.4c1.25,1.34,1.78,2.5,1.3,3.46-.65,1.29-6.4,2.9-7.27,1.78-2.72-3.52-1.7-13.7,1.3-16.97,1.46,4.99,2.48,9.39,4.67,11.73Z"/>
  <path d="M97.06,145.23c-6.46-3.06-9.1-6.43-5.38-13.75,5.09,2.17,7.92,8.52,5.38,13.75Z"/>
  <path d="M115.37,117.15l-6.32-24.05c5.64,7.12,9.42,14.71,6.32,24.05Z"/>
  <path d="M76.47,34.63l-11.89,15.51c1.83-7.47,2.64-14.96,12.89-19.11l-1,3.59Z"/>
  <path d="M187.49,203.14c-4.48-3.8-5.02-11.39-.43-17.86,1,5.84,1.03,10.45.43,17.86Z"/>
  <path d="M187.17,163l-4.67-19.23c8.36,3.77,5.81,12.91,4.67,19.23Z"/>
  <path d="M136.06,22.59c-5.93.75-11.36.86-17.77.63,5.35-2.22,10.86-5.63,17.77-.63Z"/>
  <path d="M53.65,203.33c-2.14-7.24-2.43-14.03,2.35-20.35l-2.35,20.35Z"/>
  <rect x="161.27" y="32.24" width="3.28" height="19.26" transform="translate(-1.53 77.27) rotate(-26.56)"/>
  <path d="M118.21,145.35l3.85-12.57c4.11,3.54,5.98,10.65-3.85,12.57Z"/>
  <path d="M169.5,157.27c-4.61-2.64-6.05-8.84-.33-14.01l.33,14.01Z"/>
  <polygon points="124.32 131.84 117.9 129.9 117.3 119.99 124.32 131.84"/>
  <path d="M176.82,219.55c-3.84-4.79-4.49-10.86-2.18-16.61l2.18,16.61Z"/>
  <path d="M161.28,213.55l-.66-12.33c4.72,2.34,6.36,7.89.66,12.33Z"/>
  <rect x="56.14" y="162.85" width="1.83" height="17.41"/>
  <path d="M157.08,38.2c-4.95-.84-8.5-3.3-11.27-7.31,4.95.79,8.53,3.27,11.27,7.31Z"/>
  <rect x="87.13" y="26.97" width="8.13" height="3.38" transform="translate(2.14 63.42) rotate(-38.77)"/>
  <rect x="124.72" y="29.6" width="9.84" height="3.28" transform="translate(-.29 61.27) rotate(-26.56)"/>
  <path d="M118.37,136.17c-2.93,2.22-5.29,3.85-6,3.06l-3.49-3.92,9.5.86Z"/>
  <path d="M89.37,239.54l2.34-10.9c1.87,3.32,2.31,8.6-2.34,10.9Z"/>
  <path d="M81.75,229.81c-1.64,1.27-4.67.53-7.24-1.95,1.64-1.27,4.67-.53,7.24,1.95Z"/>
  <path d="M170.72,195.97c-.5-2.6-.51-5.8-.05-9.42.5,2.6.51,5.8.05,9.42Z"/>
</svg>