<?xml version="1.0" encoding="UTF-8"?>
<svg id="Calque_1" data-name="Calque 1" xmlns="http://www.w3.org/2000/svg" viewBox="0 0 256 256">
  <path d="M191.91,198.12c-14.17,28.7-11.81,17.46-30.49,29.37-32.24,20.56-15.26,17.22-74.09,14.65-11.05-.48-17.42-7.56-22.59-16.42-7.16-12.27-13.32-23.49-17.48-37.2-4.64-15.3-17.55-10.02-27.52-46.02,16.48-51.31-1.83-68.94,36.11-109.56,10.86-11.63,19.99-18.92,37.06-19.69,12.39-.56,25.62-1.44,38.81-.81,31.26,1.49,33.61-.52,60.78,16.44,12.36,12.74,16.05,30.18,18.83,46.83l12.69,4.41c2.84,10.01,13.49,23.75,12.11,34.32l-4.78,36.5c-.93,7.1-7.5,11.93-14.04,12.17-6.95.26-11.19-4.07-14.68-11.36-8.3,14.73-11,29.85-10.73,46.38ZM131.28,179.4c6.94,3.43,11.45,6.85,13.15,9.57-6.86,5.52-11.12,12.95-14.93,19.03-19.63-5.09-36.31,4.94-44.78-11.66l-9.11,3c-4.94,1.63-.95-14.49-3.13-15.22-21.45-7.2,3.26,1.22-18.71-14.39l8.17,23.3c2.32-2.85,5.06-6.36,5.76-4.95.55,1.11,2.79,4.8,1.71,5.27l-6.76,2.96c3.47,7.55,7.62,14.9,13.95,24.41l-1.37-15.17c-.62-.52,6.63.26,8.7,1.18,2.1.93-1.4,11.81-2.5,12.43l-4.06,2.25c1.44,6.3,10.2,14.79,16.19,8.51l5.21-5.45c1.12-1.17,3.83,5.46,5.47,6.36,14.15,7.7,42.4,2.53,49.25-15.34.99-2.58.99-7.83,1.98-10.06.99-2.23,9.82-1.09,9.03,1.21-1.15,3.37-2.32,7.36-2.03,9.05,11.63-6.81,5.08-18.18,1.3-27.22,1.9-1.42,9.07,1.4,9.07,3.87,0,1.83-.25,3.4-.74,7.02l2.53,6.61c9.7-13.64,1.89-22.52,9.17-43.92l-7.49-3.34c-.97-.43.25-1.71,1.67-3.74,2.08.98,7.93,4.57,8.24,2.61l1.24-7.95c.26-1.65-5.37-.95-7.07-1.47-.86-.35-2.46-3.27-1.54-3.62l6.47-2.42,2.62-33.5c.78-10.02-.78-18.67-2.23-28.44-2.71-18.38-4.82-36.05-19.11-50.71l-23.49-3.63c-13.23-2.04-27.06-4.57-40.27-.42-4.72,1.48-14.2,3.35-18.04,5.79l-22.5,14.29c-11.13,21.42-16.55,43.07-18.92,68.87,18.3-2.04,21.23-12.89,46.98-2.3l-.59-10.91c-.09-1.59,5.06-2.53,6.5-1.84,6.89,3.32,8.32,14.32,5.97,17.33-5.65,7.23-16.22,3.83-16.04,7.69.05.99.5,4.77.17,5.71-1.62,4.57-12.79,6.82-18.25,5.61l-5.79-1.28c-.73-.16.21-1.86.86-2.22l3.39-1.92c2.02-1.15,5.64-2.18,5.06-3.5l-2.68-6.1c-.45-1.02-4.4,2.23-5.62,2.36l-22.11,2.35,8.13,35.62c6.71,1.14,9.55,4.5,12.98,10.23l13.17,9.16c3.14-12.66,5.67-23.56,17.73-26.09,8.91-1.87.78,16.38,9.38,15.42.85-.1,1.09-3.3,1.06-4.79l-.62-40.63c-.03-1.74,5.65-5.58,6.66-4.37.75.9,2.37,3.03,3.42,4.24,1.36,26.9-5.94,19.57-1.94,53.52l6.24-13.08c3.71-7.77,10.35-16.99,17.18-16.52,2.34.16,7.12,3.84,8.45,6.12l16.7,28.68c1.44,2.47.4,8.34-2.11,8.96-12.93,3.18-3.08-9.22-19.96-17.62.3-3.99-.57-10.56-3.52-13.66-2.08,8.31-2.59,14.06-9.84,17.09l-4.57,16.18,14.01-2.05c-1.86-6.2-2.5-8.4-2.49-12.38ZM218.61,154.02l6.6-39.98c1.15-6.95-7.46-19.27-10.27-26.1-10.95,7.89-12.47,19.5-13.26,31.72-.61,9.45,1.84,15.09,7.49,22.3l9.44,12.05ZM93.35,194.57l19.08-.12-7.25-20.03-17.42,8.43-1.8,7.06,7.64-4.5c1.81-1.06,7.87,2.33,7.19,2.89l-7.44,6.27Z"/>
  <path d="M162.47,119.19l-3.9,13.96c-6.36,3.22-16.79,1.07-20.25-5.61l6.93-.17c1.36-.03,1.66-1.86,2.32-5.41l-21.12.22c-6.18.07-11.08-12.54-9.39-17.44.69-1.99,7.55-4.6,8.58-2.85l5.99,10.22,24.11-7.5c14.18-4.41,27.8,4.01,24.32,9.67-3.9,6.33-16.12-.37-17.59,4.9Z"/>
  <path d="M116.93,47.29l-6.2,10.16-5.35-15.7-2.32,16.55-5.86-3.09c-2.58-1.36-10.25,6.72-9.77,2.73l.67-5.61c.17-1.44,3.06-5.44,1.93-6.39l-5.83-4.89,17.05-11.21,38.02,1.83c-5.66,5.03-8.04,5.29-12.29,6.99l11.58,4.31c2.35.88,2.12,7.5.45,11.26l-12.57-9.27-2.67,6.72c-.63,1.58-3.96-1.71-6.84-4.4Z"/>
  <path d="M120.44,229.81c-.23,1.07-5.5.31-5.5-.76l.05-6.98-9.59-9.82,17.14,2.13c-.56,4.33-1.35,11.97-2.1,15.42Z"/>
  <path d="M158.95,196.87c-14.4,7.66-12.58,17.46-16.45,15.18l-4.6-2.7c-1.46-.86,6.66-12,9.41-13.56,2.3-1.3,9.81.21,11.65,1.07Z"/>
  <path d="M176.59,178.18c.97.73-2.36,6.56-3.27,5.83l-5.43-4.37-4.74-3.96c-1.01-.84,1.74-6.1,2.7-5.58l10.73,8.08Z"/>
  <circle cx="138.15" cy="221.11" r="4.18"/>
  <circle cx="91.8" cy="212.65" r="3.62"/>
  <circle cx="174.31" cy="167.4" r="3.41"/>
</svg>