<?xml version="1.0" encoding="UTF-8"?>
<svg id="Calque_1" data-name="Calque 1" xmlns="http://www.w3.org/2000/svg" viewBox="0 0 256 256">
  <path d="M150.55,233.14c-27.33.46-46.21,12.26-57.34-17.3-18.9-11.18-26.54-76.88-27.36-99.67-16.11-9.64-32.02-4.4-43.15-21.11-1.59-2.39-3.02-8.59-2.34-11.16.68-2.58,5.18-6.91,7.83-7.64l38.05-10.5,3.13-26.24,27.21-15.79c33.55-19.47,76.12-13.39,103.72,14.09l1.71,27.43c24.33,9.09,23.94,15.57,41.2,23.64-8.06,23.39-17.47,23.8-41.41,34.04l-6.17,23.14,2.43,18.69c-6.13,28.74-24.67,50.16-47.5,68.37ZM153.3,47.78c-8.04-12.98-18.5-21.12-31.44-27.5,10.1,10.59,20.41,19.32,31.44,27.5ZM153.42,22.46l37.71,35.38c4.42-4.37-31.78-43.62-37.71-35.38ZM107.75,25.21l38.67,30.71c13.13,7.31-51.58-50.78-38.67-30.71ZM124.14,49.92c-6.81-10.06-15.22-16.19-24.56-21.27,7.62,9.43,15.87,16.15,24.56,21.27ZM92.74,33.6l-3.99,4.91,28.78,23.43,3.99-4.91-28.78-23.43ZM86.77,42.51c-1.05-1.14-6.35-3.06-7.04-2.06l-2.8,4.02c9.11,7.2,16.2,13.61,27.44,17.17l-17.6-19.13ZM175.94,56.9c.19-5.54-5.13-10.68-9.46-8.55l9.46,8.55ZM79.24,55.36l2.55,4.32c.4.67,4.09-.58,3.59-1.17l-2.21-2.65c-.5-.6-4.33-1.17-3.94-.5ZM139.73,61.01l-9.08-7.73,1.67,7.95c.27,1.27,5.57.31,7.41-.22ZM149.69,58.15c.54,1.31,2.62,5.08,2.88,4.33.29-.8.95-2.18.77-2.64-.21-.51-3.95-2.42-3.65-1.69ZM77.35,63.28c0-.86-.7-1.56-1.56-1.56s-1.56.7-1.56,1.56.7,1.56,1.56,1.56,1.56-.7,1.56-1.56ZM118.08,68.58c-6.36-.62-6.72-.66-1.06-.1,2.75.24,3.72.32,1.06.1ZM96.02,71.03c-6.36-.62-6.72-.66-1.06-.1,2.75.24,3.72.32,1.06.1ZM181.41,70.6c-5.71-.89-10.71-.87-15.09.08,5.71.89,10.71.87,15.09-.08ZM32.63,93.32c12.9-6.41,20.65-11.5,28.91-19.06-12.43,3.91-21.44,11.13-28.91,19.06ZM174.7,170.38c-.74-6.95-1.98-11.84,4.65-16.26l4.73,28.23c10.68-10.63,2.51-24.2,4.5-35.82,1.65-9.64,5.16-18.46,4.14-28.62-1.14-11.25,1.6-24.13-6.88-33.37-2.77-3.01-22.98-11.51-28.88.83l6.03,2c.69.23-2.33,4.13-3.06,4.1l-44.13-2.04c-7.67-.03-17.28,8.38-27.09,5.1,11.17-10.92,9.33.39,28.59-11.18,10.24.86,20.09,1.67,28.55-5.07-26.14-1.98-47.86,1.13-72.39,5.4l-.04,19.44c17.57,4.13,31.11-12.7,49.59-6.2,1.49.52,4.49,4.56,5.57,5.5.81.71,4.16-1.77,5.59-1.76,34.14.27,19.54-9.75,58.45,7l-13.92,5.25c-.03,3.79.39,10.95-1.88,11.79-12.05,4.49-28.69,5.63-40.5-6.58-1.67,4.57-.44,14.91,3.64,16.61,19.2,7.97,17.76,27.92,18.29,30.21l9.66,41.73c3.64-2.03,9.5-10.73,8.91-16.3l-2.13-19.98ZM210.75,77.98c-5.09-2.21-14.36-1.96-15.01,6.8l15.01-6.8ZM61.11,87.16c2.05-3.42,3.27-7.13-.72-2.96-8.21,4.79-15.12,8.21-19.24,16.19l19.96-13.23ZM204.84,90.25c0-.86-.7-1.56-1.56-1.56s-1.56.7-1.56,1.56.7,1.56,1.56,1.56,1.56-.7,1.56-1.56ZM61.73,93.4l-10.6,8.06,2.95,3.88,10.6-8.06-2.95-3.88ZM109.69,121.71c4.44.36,11.48-4,12.06-7.34.51-2.92-.7-9.05-3.09-10.71-2.39-1.65-8.92-1.98-12.55-1.47-6.5.92-11.74,4.83-11.19,9.81.68,6.21,5.34,8.96,14.76,9.71ZM201.67,103.13c-.22-2.65-.14-1.68.1,1.06.56,5.66.53,5.29-.1-1.06ZM171.07,117.46c-.83-6.1-4.25-14.29-7.19-13.8l-22.69,3.79c3.25,7.45,8.14,13.53,12.95,14.59,5.06,1.11,17.18-.35,16.93-4.58ZM113.55,161.76l11.76-3.1c-6.77-2.23-11.25-3.63-13.38-9.05-1.65-4.18,2.12-12.05,5.75-13.18l5.46,16.51c8.61-10.53,6.62-22.2,4.58-33.68-10.16,11.36-28.74,11.92-38.75,1.14-1.18-3.59-1.9-10.04-4.52-9.8l-10.85.97.53,20.49c28.92,6.54-4.82,39.74,20.06,73.99-.74-46.46,9.5-29.3,9.25-47.97l-.09-6.33c-.16-11.96,5.4,11.29,10.21,10.02ZM76.12,148.29c2.35-2.2,4.5-3.94,3.65-5.25l-3.57-5.48-.08,10.73ZM151.74,158.94l-3.87-8.24c-.85-1.8-6.73,2.32-8.59,4.54l12.46,3.7ZM109.22,171.16c0-.86-.7-1.56-1.56-1.56s-1.56.7-1.56,1.56.7,1.56,1.56,1.56,1.56-.7,1.56-1.56ZM130.78,181.13c1.18-.25,3.73,2.62,2.96,3.55l-3.73,4.49c1.62.99,8.14-.81,9.65-3.25,1.26-2.03-2.73-8.84-5.05-8.01l-16.92,6.05,13.08-2.83ZM148.12,179.91q0-3.04,0,0,0,5.68,0,0ZM126.38,190.77c0-.86-.7-1.56-1.56-1.56s-1.56.7-1.56,1.56.7,1.56,1.56,1.56,1.56-.7,1.56-1.56Z"/>
</svg>