<?xml version="1.0" encoding="UTF-8"?>
<svg id="Calque_1" data-name="Calque 1" xmlns="http://www.w3.org/2000/svg" viewBox="0 0 256 256">
  <path d="M142.74,186.08l-7.09,6.74-14.64-4.4c-18.8,3.07-10.4-.36-26.92-8.29l-5.7-24.66-5.96,2.47c-1.38.57-5.51-2.72-5.54-4.18l-.51-19.47c-4.17.55-9.65,1.4-12.42.81l-14.17-3.01c-5.27-1.12-14.11-9-15.45-14.21-1.58-6.16.42-15.2-8.93-16.21l-15.37,3.33c-1.74-2.38-4.5-6.77-6.47-10.12,5.35-4.29,10.6-4.45,16.58-5.48,5.06-.87,10.22-2.04,15.13-.46l21.55,6.91c6.32,2.03,12.79,7.5,20.11,8.22,2.23-18.31,12.29-32,29.66-38.61,13.64-5.2,31.78-.63,44.72,4.9l11.76,16.88,11.72,21.6c1.19,2.19,8.36,3.52,10.52,2.64,9.44-3.89,2.2-18.58,25.87-22.01l22.26-3.23c7.09-1.03,11.18,1.02,15.19,6.8,3.24,4.67,5.1,10.15,2.69,15.71l-7.61-6.99c-1.68-1.54-9.83-.46-10.53,1.85-1.81,5.96-3.25,16.01-4.62,22.31-1.54,7.06-11.46,6.76-17.53,6.43l-3.25,10.64-16.6,4.56c-9.52,2.62-7.3-8.25-14.66-4.06-1.12.64-2.62,3.9-1.66,4.77l4.78,4.3c-8.57,7.03-13.99,15.78-17.06,27.39-4.21,3.53-12.22,5.3-19.84,6.13ZM122.45,78.33l-.69-9.65c-10.96-3.69-28.42,7.56-23.77,10.45,1.06.66,4.14,1.32,5.49,1.18l18.97-1.98ZM128.13,103.27l14.32-5.91c1.39-.57,4.62-4.12,3.73-5.14l-3.14-3.56c2.73-2.18,4.72-5.96,4.74-8.66.02-2.14-1.96-7.61-4.13-8.03l-17.4-3.35c.71,5.43,2.04,10.3,4.06,13.62,3.18-3.57,5.11-8.1,6.86-7.31,2.09.95,5.26,2.8,8.03,4.53l-7.16.33c-2.29,3.65-5.44,5.29-8.77,5.38l-1.13,18.08ZM156.06,101.73c.83.38,2.6,1.8,3.01,2.23s-.66,2.19-1.23,2.03l-3.07-.87c-1.63-.46-5.02-1.73-5.49-.37l-2.11,6.01c4.32.21,7.78.36,11.09.74,2.39.27,5.47,5.52,5.3,7.26l-7.32,1.7,3.12,5.16c.46.76-3.46,3.33-4.34,3.21l-13.85-1.92,4.34-3.36c.64-.5.74-2.51.44-2.21l-7.78-.44c.11-5.06,0-6.46-.63-10.48l3.75-9.67-15.61,5.93c-1.17.44-4.47,1.14-4.63.02-.13-.9-.2-4.01-.87-4.63-2.41-2.24-12.28.95-11.95,4.23,4.07,2.15,10.24,4.67,12.28,7.27.81,1.03-.72,6.04-1.96,5.57l-4.87-1.82c-.99-.37-1.82,3.03-2.25,4.5-.3,1.04,1.35,1.43,2.34.93l4.55-2.31c-1.24,3.16-3.67,8.25-4.77,9.8l-13.37-2.76c-.85-.17-3.76-2.03-4.73-2.66-.73-.47,1.58-2.37,2.56-2.5l2.54-.34-10.9-4.04c3.87-8.06,8.84-7.05,16.71-9.13l-5.85-1.98c1.71-2.53,4.23-7,3.21-8.82-.87-1.57-3.52-3.94-4.76-4.66.39,3.43,1.65,6.15.44,6.05-.91-.08-6.06-.16-6-.68l3.78-10.08-7.83-1.09,6.46-4.61c3.65-2.6-9.63-13.01-15.49,31.16l-6.64-4.1.17,10.01c.04,2.35-6.24,5.12-8.73,4.86-5.25-.53-14.71-4.46-16.31-8.93-1-6.52-2.98-9.28-9.59-14.96,15.58-5.31,19.53,13.18,32.06,8.55-7.97-7.06-17.1-10.44-27.17-13.04-6.53-1.68-12.89-8.6-20.47-.87,9.78,3.02,13.96,9.72,15.51,19.13.68,4.14,5.22,13.63,9.59,13.98,7.27.57,15.34-.58,21.48-.55,11.85.05,14.25,8.77,17.79,16.7,4.3,9.62,9.96,18.47,15.32,27.73l11.41,8.31c3.96,2.89,12.85.47,18.3.28,6.23-.22,13.11.39,18.7-1.08,6.25-1.64,4.83-12.71,7.77-16.01,5.51-6.18,8.2-12.78,11.8-20.21,2.58-5.32,6-9.34,7.36-16.83.73-4.03,9.53-6.99,13.33-9.11l-17.05-1.46-4.19,1.2c-3,.86-9.37-32.45-16.82-30.46-.36.1-.7.78-.44,1.09l1.54,1.85,2.5,3.71c.52.76-1.4,2.22-2.3,1.98l-5.21-1.41c-1.09-.3-.79,4.13.3,4.63l5.73,2.63ZM109.77,87.31l14.52-5.71c-8.43.08-13.9.91-22.24,2.69,1.69,3.11,5.12,4.04,7.71,3.02ZM108.2,98.65l13.72-1.39c-.22-2.2-.82-6.5-2.64-6.97-3.99-1.03-14.38,1.43-13.66,3.1.5,1.16,2.12,4.52,2.58,5.26ZM210.13,125.66c2.14.94,6,2.35,7.86,2.62,8.11,1.16,4.61-16.42,10.61-28.18,1.72-3.37,10.5-3.74,14.32-4.47-1.03-3.27-6.53-5.33-10.55-4.2l-24.58,6.9-11.96,18c7.79,1.12,10.54-14.95,18.87-14.45,2.31.14,6.62,3.1,6.24,5.82-.85,6.04-3.72,11.63-10.8,17.96ZM203.08,134.39l-2.81-3.99-8.51,5.44,11.33-1.45ZM184.99,135c-3.32-.42-5.37-.85-5.17-.12s.73,2.81.67,2.57l4.51-2.44ZM194.09,139.82l-7.81-.25c2.02,1.99,2.86,3.16,3.83,2.59l3.98-2.33ZM82.94,153.12l-2.01-8.71c-2.03,3.05-2.82,9.18,2.01,8.71ZM96.06,168.88q0-2.14,0,0,0,4,0,0ZM109.79,184.77c-.83-4.31-2.87-6.03-6.23-5.14l6.23,5.14ZM133.61,187.17c-4.48-.44-4.74-.46-.75-.07,1.93.17,2.62.22.75.07Z"/>
  <path d="M111.48,156.54l9.66-27.77c.54-1.55.65-1.84,1.04-2.38.39-.54,2.65-.13,2.61.53l-.25,3.9c-.13,2.02-1.55,5.71-.48,6.72,1.07,1.01,3.69,2.9,5.64,4.27,1.72,1.2,4.91-3.21,5.71-5.09,2.56-5.94-7.98-11.48-2.96-14.27,5.73,2.24,3.87,9.69,5.53,12.79,2.78,5.21,5.42,9.73,7.77,15.24l-6.19-4.08-19.41-2.68c-2.03,3.96-5.06,9.22-8.68,12.81Z"/>
  <path d="M110.28,163.71c1.78-9.98,9.61-4.25,15.61-4.84,6.48-.63,14.01-5.21,20.28-1.09l2.37-3.42,2.61,5.46c.65,1.35-2.58,4.38-3.99,3.84l-6.63-2.53-10.78,3.63-19.46-1.06Z"/>
</svg>