<?xml version="1.0" encoding="UTF-8"?>
<svg id="Calque_1" data-name="Calque 1" xmlns="http://www.w3.org/2000/svg" viewBox="0 0 256 256">
  <path d="M133.7,210.85c-29.97,10.36-47.99,14.15-67.53-10-9.91-1.28-19.14-2.4-25.69-11.28-3.27-4.43-2.38-13.29.46-18.9,2.3-4.55,8.66-8.04,15.99-11.99-11.96-7.85-18.97-20.06-12.03-32.96,5.09-9.47,15.98-5.72,23.2-7.35,7.86-1.78-16.27-7.73-12.62-25.93,1.33-6.61,7.87-13.63,14.39-18.43-.78-20.77,11.76-36.61,32.69-41.17,7.65-1.66,14.09-11.37,24.06-9.16,18.08,4,24.37,16,31.73,35.02l35.71,3.83c7.56.81,17.12,6.91,23.51,11.02l2.83,11c28.76,33.47,12.86,77.55-16.85,105.11,3.65,16.12-8.21,29.75-25.09,32.26-15.1,2.24-29.97-3.09-44.76-11.07ZM118.22,38.63c1.32.99,5.13-.36,6.02-1.72.89-1.36,2-6.3.42-6.08l-8.08,1.17c-.91.28-3.72,2.59-2.94,3.18l4.58,3.45ZM149.11,62.96c.02-11.1-6.76-21.85-14.95-26.72-10.65,12.79,1.97-9.03,14.95,26.72ZM91.49,66.24c-.19-11.26,5.17-18.51,16.01-24.31-8.13-1.39-17.41,1.3-22.97,7.28-16.8,18.07,4.34,31.25-9.18,68.17l18.18,1.95c10.71-24.09-1.17-1.22-2.03-53.09ZM101.81,62.45c.26-1.93,7.89-4.16,8.81-2.71l3.06,4.81c1.02,1.6,2.27,7.43,3.95,6.64l5.14-2.41c2.15-1.01-.08-20.25-11.43-19.94-6.18.17-13.02,5.98-12.96,12.73l.24,32.07c6.07-.63,9.27-1.17,2.57-3.55-.47-8.14-.4-19.93.63-27.64ZM214.43,88.81c-1.77-1.91-3.69-9.45-5.82-8.42-3.1,1.5-4.83,3-9.47,7.05l-19.85-13.21,12.64-4.27c-8.48-1.78-20.47-5.2-29.69-3.14l-27.47,6.14c-12,2.68-15.92,8.92-20.59,18.97-4.67,10.07-9.97,20.16-12.19,30.53-6.04,28.18,8.29,48.9,35.56,56.96l27.32,8.07c9.68,2.86,27.21.42,35.54-5.15,17.58-11.78,44.25-61.06,14.04-93.52ZM68.78,107.3c5.51-9.82,6.21-16.71,2.38-26.33-4.33,4.42-7.13,8.78-8.51,14.16-.92,3.59,1.97,8.62,6.13,12.17ZM192.41,192.83c-1.97,13.36-7.45,16.6-17.23,18.22-13.43,2.22-30.31-2.27-36.51-14.76-1.45-2.93-3.35-10.91-6.28-11.72-23.68-6.54-41.2-29.54-38.58-54.11-2.22-3.09-7.55-6.71-10.46-7.08-2.49-.32-7.69,2.28-9.41,4.59-19.68,26.34-13.99,65.33,14.66,81.67,15.49,8.83,32.04-5.94,46.43-4.83,6.16.48,56.3,25.34,62.38-5.33.51-2.58-4.62-9.22-5-6.65ZM66.41,126.71c-2.55-1.47-8.89-2.65-10.98-1.39-6.9,4.14-5.64,15.69-.1,23.44l11.08-22.05ZM60.07,190.85l-5.94-24.57c-4.1,3.58-7.27,9.97-7.17,14.39.17,7.29,5.72,10.82,13.11,10.18Z"/>
</svg>